<?xml version="1.0" encoding="UTF-8"?>
<svg xmlns="http://www.w3.org/2000/svg" width="80" height="36" viewBox="0 0 80 36" fill="none">
  <path fill-rule="evenodd" clip-rule="evenodd" d="M5.51937 18.5261H8.36786V22.9361H7.4596V21.5411C7.29456 21.8561 7.08803 22.1261 6.84035 22.3961C6.30383 22.8911 5.64325 23.1612 4.98268 23.1612C3.08373 23.1612 1.59766 21.1361 1.59766 18.5261C1.59766 15.9161 3.08373 13.846 4.94153 13.846C5.9735 13.801 6.88167 14.4311 7.37704 15.3761V13.981H8.24397V16.816H7.3358C7.25324 16.411 7.08803 16.0511 6.88167 15.736C6.46878 15.151 5.80838 14.791 5.1478 14.746C4.15715 14.746 2.67104 15.691 2.67104 18.436C2.67104 20.5961 3.74426 22.1712 5.1478 22.1712C6.26242 22.1261 7.17068 21.2261 7.37704 20.056C7.41845 19.831 7.41845 19.561 7.41845 19.3361H5.47813L5.51937 18.5261Z" fill="#FFFFFE"></path>
  <path fill-rule="evenodd" clip-rule="evenodd" d="M13.5285 19.465L12.9506 19.5549C11.0516 19.8249 10.4324 20.1849 10.4324 21.0399C10.4738 21.8051 11.0516 22.3451 11.7122 22.3451C12.6203 22.3 13.4047 21.5799 13.5285 20.5899V19.465ZM15.3036 22.975H13.5285V21.76C13.1156 22.6151 12.2901 23.11 11.4232 23.11C10.3911 23.2 9.48287 22.3 9.40039 21.1749C9.40039 21.1301 9.40039 21.085 9.40039 21.0399C9.40039 19.735 10.4324 19.1049 12.9093 18.8349L13.4871 18.79V18.115C13.4871 17.3499 12.9506 16.8549 12.0837 16.8549C11.2168 16.8549 10.7627 17.1698 10.5975 18.0699H9.64807C9.73055 17.5299 9.97823 17.0348 10.3498 16.6749C10.8039 16.2699 11.4232 16.0898 12.001 16.0898C13.2808 16.0898 14.3542 16.7199 14.3542 18.4299V22.165H15.2212L15.3036 22.975Z" fill="black"></path>
  <path fill-rule="evenodd" clip-rule="evenodd" d="M17.9025 17.4439C18.1915 16.994 18.7282 16.0489 19.8841 16.0489C20.7097 16.0489 21.1638 16.4989 21.3289 17.4439C21.4941 17.129 21.6591 16.8589 21.9069 16.5889C22.2785 16.2289 22.7325 16.0039 23.2279 16.0039C24.1773 16.0039 24.714 16.6789 24.714 17.849V22.124H25.5809V22.934H23.8471V18.209C23.8471 17.264 23.5582 16.8139 22.9389 16.8139C21.8657 16.8139 21.2876 18.209 21.2876 18.7039V22.124H22.1959V22.934H20.3795V18.074C20.3795 17.2189 20.0905 16.8589 19.4713 16.8589C18.5218 16.8589 17.82 18.1639 17.82 18.794V22.169H18.7282V22.979H16.0449V22.169H16.953V16.9489H16.0449V16.1389H17.8614L17.9025 17.4439Z" fill="black"></path>
  <path fill-rule="evenodd" clip-rule="evenodd" d="M28.2634 20.0972C28.2634 21.2223 29.0478 22.1223 30.0386 22.2123C31.1119 22.2123 31.7724 21.1773 31.7724 19.5122C31.7724 17.8473 31.0706 16.8572 30.0386 16.8572C29.1303 16.8572 28.2221 17.9372 28.2221 18.9273L28.2634 20.0972ZM26.5297 13.6621H28.2634V17.5773C28.5112 17.0822 29.213 16.0921 30.2863 16.0921C31.6899 16.0921 32.7631 17.6672 32.7631 19.6472C32.7631 21.4923 31.6072 23.0673 30.2863 23.0673C29.1717 23.0673 28.635 22.2573 28.2634 21.7173V22.9773H26.4883V22.1673H27.3552V14.4721H26.5297V13.6621Z" fill="black"></path>
  <path fill-rule="evenodd" clip-rule="evenodd" d="M33.2952 13.6621H35.0702V22.1673H35.8961V22.9773H33.2539V22.1673H34.1622V14.4272H33.2952V13.6621Z" fill="black"></path>
  <path fill-rule="evenodd" clip-rule="evenodd" d="M41.0543 19.0149C41.0543 18.385 40.8476 17.7999 40.4349 17.3048C40.1461 17.0348 39.7745 16.8549 39.403 16.8998C38.6186 16.9449 37.9583 17.5299 37.7516 18.3399C37.7105 18.5649 37.6277 18.79 37.6277 19.0149H41.0543ZM41.9624 21.085C41.8801 21.49 41.7147 21.8051 41.467 22.1199C40.9715 22.7501 40.27 23.11 39.4857 23.11C37.7927 23.11 36.5957 21.6701 36.5957 19.6C36.5957 17.6199 37.7927 16.0898 39.3201 16.0898C40.8476 16.0898 42.0863 17.3949 42.0863 19.7799H37.5866C37.6693 20.7699 37.8754 21.355 38.2882 21.8051C38.6186 22.12 39.0314 22.3 39.444 22.3C40.1461 22.3 40.5999 21.9401 40.9304 21.13L41.9624 21.085Z" fill="black"></path>
  <path fill-rule="evenodd" clip-rule="evenodd" d="M46.8744 15.7275L45.8013 19.6876H47.9475L46.8744 15.7275ZM45.8835 14.0625H47.8653L50.1358 21.5326H50.7547V22.9726H48.8973L48.3606 21.0376H45.4708L44.9342 22.9726H43.0352V21.5326H43.6545L45.8835 14.0625Z" fill="black"></path>
  <path fill-rule="evenodd" clip-rule="evenodd" d="M50.6719 16.1855H53.1491V17.4905H52.5298L53.3962 21.4956L54.4288 16.1855H56.0384L57.0705 21.4056L57.8964 17.4905H57.2771V16.1855H59.7539V17.4905H59.2173L57.8964 22.9356H56.2451L55.2131 18.2556L54.2223 22.9356H52.5709L51.2085 17.4905H50.6719V16.1855Z" fill="black"></path>
  <path fill-rule="evenodd" clip-rule="evenodd" d="M64.1311 19.7799C62.6864 19.9149 61.7367 20.0499 61.7367 20.9949C61.7367 21.5351 62.1498 21.895 62.7687 21.895C63.5118 21.895 64.1311 21.2651 64.1722 20.4549V19.7799H64.1311ZM65.6175 21.6701H66.154V22.975H64.2139V22.165C63.7596 22.795 63.058 23.11 62.3149 23.11C61.0762 23.11 60.127 22.2101 60.127 20.9949C60.127 19.0149 62.191 18.79 64.1722 18.6099C64.1722 17.5748 63.8423 17.2599 63.058 17.2599C62.2737 17.2599 61.9844 17.6649 61.9432 18.2949V18.3399L60.4569 18.2949C60.5397 16.9449 61.5305 16.0898 63.0163 16.0898C64.7505 16.0898 65.6585 16.9449 65.6585 18.4749L65.6175 21.6701Z" fill="black"></path>
  <path fill-rule="evenodd" clip-rule="evenodd" d="M69.0802 17.2677C69.4931 16.4127 69.9478 16.0527 70.6494 16.0527C70.8972 16.0527 71.1032 16.0976 71.351 16.1427V17.7178C71.1032 17.6727 70.8554 17.6276 70.6076 17.6276C69.8235 17.5828 69.1628 18.2127 69.1219 19.0227V21.6328H69.8652V22.9378H66.9746V21.6328H67.5945V17.4926H66.9746V16.1877H69.0802V17.2677Z" fill="black"></path>
  <path fill-rule="evenodd" clip-rule="evenodd" d="M75.9735 18.749C75.9735 17.984 75.3961 17.399 74.7346 17.399H74.6937C73.9922 17.399 73.4141 17.984 73.2898 18.7039L75.9735 18.749ZM77.5835 20.7289C77.294 22.2141 76.1803 23.114 74.6937 23.114C72.9594 23.114 71.6797 21.629 71.6797 19.559C71.6797 17.4889 72.9594 16.0039 74.6937 16.0039C75.6431 16.0039 76.5507 16.4989 77.0879 17.399C77.5009 18.1639 77.7487 19.019 77.7078 19.9189H73.2489C73.4141 21.6741 74.446 21.764 74.7346 21.764C75.3127 21.8091 75.85 21.359 76.0143 20.774L77.5835 20.7289Z" fill="black"></path>
</svg>
