<?xml version="1.0" encoding="UTF-8"?>
<svg xmlns="http://www.w3.org/2000/svg" width="80" height="36" viewBox="0 0 80 36" fill="none">
  <path d="M17.2735 16.2491C17.2634 16.559 17.2029 17.4187 16.4665 18.0285C15.6698 18.6884 14.3181 18.8382 13.3396 18.8382C12.9664 18.8382 12.5831 18.8282 12.2099 18.7882C11.4433 18.6982 10.5657 18.5084 10.0916 17.7986C9.79913 17.3487 9.76887 16.8789 9.75878 16.3391H12.2704C12.2704 16.419 12.2402 16.7789 12.4822 16.9889C12.6133 17.1089 12.9261 17.2287 13.3497 17.2287C13.4203 17.2287 13.9751 17.2187 14.2979 16.9789C14.6711 16.699 14.6307 16.1591 14.6307 16.0591C14.6307 15.7692 14.6408 15.4893 14.6408 15.2094C14.5198 15.3993 14.5097 15.4194 14.3987 15.4993C13.9852 15.8292 13.3497 15.9092 12.8453 15.9092C12.109 15.9092 11.4836 15.7692 10.8885 15.3194C10.3842 14.9295 9.72852 14.1198 9.72852 12.5903C9.72852 12.2604 9.75878 10.9408 10.6162 10.0411C11.2214 9.4013 12.1493 9.16138 13.0067 9.17138C13.2084 9.17138 13.9852 9.17138 14.5601 9.62123C14.6812 9.7112 14.7518 9.78118 14.9233 10.0111L14.9132 9.36132H17.3038L17.2936 15.8592C17.2936 15.9992 17.2936 16.1191 17.2735 16.2491ZM14.0255 11.1807C13.9448 11.1408 13.7733 11.0607 13.5313 11.0708C13.3598 11.0708 13.1782 11.1108 13.037 11.1807C12.6436 11.3706 12.3813 11.8005 12.3813 12.6702C12.3813 13.2501 12.5125 13.6099 12.684 13.7999C12.7747 13.9098 12.8857 13.9698 13.0168 14.0298C13.0673 14.0598 13.2589 14.1098 13.4606 14.1098C13.5716 14.1098 13.7532 14.1098 13.9852 13.9998C14.54 13.7599 14.6004 13.0801 14.6004 12.5603C14.6004 12.0705 14.55 11.4406 14.0255 11.1807ZM22.5994 16.2591V15.7292C22.4884 15.8092 22.3573 15.9191 22.0849 16.0491C21.7924 16.1991 21.1569 16.419 20.2895 16.419C20.118 16.419 19.6439 16.419 19.1799 16.2491C18.2821 15.8992 17.798 15.1294 17.798 14.1997C17.798 13.8299 17.8788 13.0002 18.7563 12.4203C19.3311 12.0405 20.0675 11.9405 20.7434 11.8505C21.1368 11.8005 21.5503 11.7405 21.9336 11.6706C22.1051 11.6306 22.2968 11.5906 22.4681 11.5406C22.4681 11.5106 22.4681 11.3307 22.4279 11.2207C22.3471 10.9408 22.1455 10.7409 21.5301 10.7409C21.3284 10.7409 21.1973 10.7709 21.1266 10.7808C20.6929 10.8908 20.6525 11.2407 20.6121 11.3907L18.0199 11.4507C18.0501 11.3007 18.0905 11.1708 18.1108 11.0408C18.1813 10.7709 18.3225 10.301 18.8773 9.87115C19.4321 9.45128 20.2693 9.15138 21.7721 9.16138C22.8615 9.16138 24.3343 9.34132 24.8689 10.451C25.0201 10.7609 25.0706 11.0308 25.0706 11.6706L25.0605 15.4194C25.0605 15.9191 25.1311 16.0292 25.3026 16.2691L22.5994 16.2591ZM21.4091 13.38C21.1165 13.45 20.6929 13.5399 20.4811 13.7999C20.4508 13.8399 20.3601 13.9599 20.3601 14.1198C20.3601 14.3297 20.5315 14.6496 21.046 14.6496C21.288 14.6496 21.4999 14.5696 21.7218 14.4597C22.4985 14.0498 22.4581 13.37 22.4581 13.0501C22.1051 13.1801 21.7621 13.2801 21.4091 13.38ZM38.1129 16.2891L38.123 11.9405C38.123 11.5106 38.123 11.1408 37.9919 10.7409C37.659 9.7312 36.7915 9.44128 36.4385 9.34132C36.0249 9.22136 35.7021 9.23136 35.5306 9.23136C34.4009 9.21136 33.826 9.65122 33.5033 9.98112C33.4124 10.0711 33.2611 10.221 33.1401 10.5009C32.9888 10.231 32.898 10.0711 32.7971 9.97112C32.1314 9.22136 30.9714 9.22136 30.7293 9.22136C29.7811 9.22136 29.1961 9.58125 28.9136 9.84116C28.8028 9.95112 28.7019 10.0811 28.5405 10.361V9.38131H25.8675L25.8574 16.2691H28.6313L28.6414 12.5303C28.6414 12.3204 28.6816 12.1804 28.7119 12.1005C28.9036 11.5306 29.4785 11.4606 29.6703 11.4606C29.882 11.4606 30.4369 11.5306 30.5983 12.1104C30.6385 12.2704 30.6385 12.3804 30.6385 12.5403L30.6184 16.2691H33.3823L33.3923 12.6003C33.3923 12.4303 33.3923 12.2904 33.4326 12.1304C33.6041 11.5206 34.1891 11.4706 34.4009 11.4706C35.45 11.4706 35.3693 12.4003 35.3693 12.6702L35.3593 16.2691L38.1129 16.2891ZM44.9316 16.0591C44.4575 16.3391 43.9129 16.469 43.358 16.469C42.652 16.469 42.1476 16.2391 41.9056 16.0791C41.7845 15.9891 41.7038 15.8892 41.613 15.7892V16.299H38.94L38.9501 6.91211H41.7038L41.7139 9.89115C41.835 9.77118 41.9256 9.69121 42.077 9.58125C42.4805 9.31133 42.9748 9.21136 43.469 9.21136C44.3264 9.21136 45.0526 9.51126 45.6276 10.1311C46.0411 10.5809 46.495 11.3307 46.495 12.7102C46.5051 13.1001 46.4749 15.1294 44.9316 16.0591ZM43.4891 11.5606C43.2471 11.2107 42.8739 11.1607 42.7226 11.1607C42.6116 11.1607 42.3594 11.1907 42.1375 11.3607C41.6936 11.7206 41.6433 12.3204 41.6433 12.8402C41.6433 13.32 41.6936 13.9599 42.0973 14.2797C42.1779 14.3497 42.3998 14.4897 42.7125 14.4897C42.8335 14.4897 43.1564 14.4497 43.4085 14.1997C43.6405 13.9599 43.7816 13.5399 43.7816 12.8402C43.7816 12.4104 43.7414 11.9205 43.4891 11.5606ZM49.7531 16.299L49.7733 6.91211H46.9994L46.9894 16.299H49.7531ZM50.5904 8.74152V6.92211H53.3541V8.74152H50.5904ZM50.5701 16.3091L50.5803 9.4213H53.344L53.334 16.3091H50.5701ZM61.5951 16.3191L61.6051 11.9705C61.6051 11.4807 61.5648 11.2407 61.5144 11.0108C61.4035 10.5609 61.1815 10.1111 60.8184 9.81117C60.1628 9.25135 59.3054 9.24136 59.0531 9.24136C58.3471 9.24136 57.6007 9.4213 57.0964 9.93113C56.9651 10.0611 56.9349 10.0911 56.7635 10.341V9.4213H54.1611L54.151 16.3091H56.9048L56.9148 12.6402C56.9148 12.3504 56.9048 11.5106 57.9235 11.5106C58.5488 11.5106 58.7505 11.8405 58.8211 12.0804C58.8615 12.2404 58.8615 12.3903 58.8615 12.5503L58.8515 16.3091L61.5951 16.3191ZM69.6949 16.329C69.6848 16.639 69.6243 17.4986 68.8879 18.1085C68.1011 18.7682 66.7394 18.9182 65.7609 18.9182C65.3878 18.9182 65.0044 18.9082 64.6312 18.8682C63.8646 18.7782 62.977 18.5884 62.513 17.8785C62.2205 17.4287 62.1901 16.9589 62.1801 16.419H64.6917C64.6917 16.499 64.6615 16.8589 64.9035 17.0689C65.0346 17.1887 65.3474 17.3087 65.771 17.3087C65.8416 17.3087 66.3964 17.2987 66.7193 17.0587C67.0924 16.7789 67.052 16.2391 67.052 16.1391C67.052 15.8492 67.0621 15.5693 67.0621 15.2894C66.9411 15.4794 66.931 15.4993 66.82 15.5793C66.4065 15.9092 65.771 15.9891 65.2666 15.9891C64.5304 15.9891 63.8949 15.8592 63.3099 15.3993C62.8055 15.0095 62.1499 14.1998 62.1499 12.6702C62.1499 12.3404 62.1801 11.0208 63.0375 10.1211C63.6427 9.48128 64.5706 9.24136 65.4281 9.25135C65.6299 9.25135 66.4065 9.25135 66.9815 9.70121C67.1025 9.79118 67.1731 9.86116 67.3445 10.0911L67.3345 9.44128H69.725L69.715 15.9392C69.715 16.0791 69.7149 16.1991 69.6949 16.329ZM66.4469 11.2607C66.3661 11.2207 66.1946 11.1408 65.9525 11.1507C65.7811 11.1507 65.5995 11.1907 65.4582 11.2607C65.0649 11.4507 64.8026 11.8805 64.8026 12.7502C64.8026 13.33 64.9339 13.6899 65.1053 13.8798C65.1961 13.9898 65.307 14.0498 65.4381 14.1098C65.4885 14.1398 65.6803 14.1897 65.882 14.1897C65.9929 14.1897 66.1745 14.1897 66.4065 14.0798C66.9613 13.8399 67.0219 13.1601 67.0219 12.6402C67.0219 12.1604 66.9714 11.5206 66.4469 11.2607ZM23.8199 26.6957C24.5663 26.6957 25.3329 26.5757 25.5649 26.5557V24.6864C25.2925 24.7364 25.232 24.7364 25.0706 24.7364C24.3444 24.7364 24.304 24.2965 24.304 24.0165L24.3545 21.3675H25.5649V19.8779H24.3848L24.4049 17.7086H21.631L21.5906 19.8679H20.6223V21.3574H21.5705L21.52 24.6964C21.52 24.9362 21.5301 25.1861 21.6008 25.4361C21.8125 26.1359 22.3573 26.6857 23.8199 26.6957ZM36.6806 23.6666C36.6806 23.6666 36.6806 23.9866 36.7411 24.1965C36.8319 24.4664 37.1043 24.9662 37.8406 24.9562C38.2643 24.9562 38.4963 24.8062 38.6273 24.6964C38.9098 24.4664 39.0409 24.1665 39.1014 24.0765L41.3609 25.0262C41.2903 25.1362 41.2096 25.2761 41.028 25.4861C40.5439 26.0459 39.989 26.3459 39.757 26.4657C39.4243 26.6257 38.698 26.9056 37.7094 26.9056C37.1345 26.9056 36.5796 26.8256 36.0653 26.6157C34.6329 26.026 33.8663 24.6464 33.8764 23.1469C33.8764 21.7274 34.5421 20.8476 34.9356 20.4677C35.9341 19.528 37.306 19.458 37.6993 19.458C38.1734 19.458 39.5856 19.528 40.5943 20.6076C40.9271 20.9676 41.1793 21.4174 41.3306 21.8872C41.5121 22.4871 41.5324 23.0669 41.5324 23.6966L36.6806 23.6666ZM38.6576 21.8372C38.476 21.2675 37.9616 21.1875 37.7498 21.1875C37.538 21.1975 37.3968 21.2575 37.316 21.2974C36.8016 21.5174 36.7411 22.0772 36.7109 22.2271H38.7181C38.708 22.1471 38.708 22.0072 38.6576 21.8372ZM46.5153 21.8872C46.6464 21.8872 46.7876 21.8972 46.9188 21.9172V19.608C46.1924 19.608 45.6074 19.628 44.9921 20.0579C44.8408 20.1479 44.75 20.2277 44.6189 20.3477V19.748H41.966L41.956 26.6357H44.6996L44.7096 23.3967C44.7096 23.1569 44.7096 22.9669 44.7904 22.747C45.1233 21.8072 46.3034 21.8772 46.5153 21.8872ZM51.71 26.6457V26.1159C51.599 26.1959 51.4679 26.3059 51.1955 26.4359C50.903 26.5857 50.2675 26.8056 49.4 26.8056C49.2286 26.8056 48.7545 26.8056 48.2905 26.6357C47.3927 26.2859 46.9086 25.5161 46.9086 24.5864C46.9086 24.2165 46.9894 23.3867 47.8669 22.807C48.4418 22.4171 49.1781 22.3271 49.854 22.2371C50.2373 22.1871 50.6609 22.1272 51.0443 22.0572C51.2158 22.0172 51.4074 21.9772 51.5788 21.9272C51.5788 21.8972 51.5788 21.7174 51.5385 21.6074C51.4578 21.3274 51.2561 21.1275 50.6408 21.1275C50.439 21.1275 50.3079 21.1575 50.2373 21.1675C49.8035 21.2775 49.7631 21.6274 49.7229 21.7772L47.1305 21.8372C47.1608 21.6874 47.2011 21.5574 47.2214 21.4274C47.292 21.1575 47.4331 20.6876 47.9879 20.2577C48.5428 19.8379 49.3799 19.538 50.8828 19.548C51.9723 19.548 53.4449 19.728 53.9795 20.8376C54.1307 21.1475 54.1813 21.4274 54.1813 22.0572L54.1711 25.806C54.1711 26.3159 54.2417 26.4157 54.4132 26.6557L51.71 26.6457ZM50.5198 23.7566C50.2271 23.8266 49.8136 23.9166 49.5918 24.1765C49.5614 24.2165 49.4708 24.3365 49.4708 24.4964C49.4708 24.7064 49.6421 25.0262 50.1566 25.0262C50.3988 25.0262 50.6105 24.9462 50.8324 24.8362C51.6091 24.4264 51.5688 23.7467 51.5688 23.4267C51.2158 23.5567 50.8727 23.6666 50.5198 23.7566ZM59.4869 26.8256C59.2851 26.8256 58.5589 26.8256 57.984 26.4359C57.8931 26.3659 57.8326 26.3159 57.6915 26.1859V29.1449H54.9781L54.9881 19.758H57.6814V20.2877C57.8125 20.1279 57.873 20.0779 57.9538 20.0179C58.2059 19.818 58.7304 19.568 59.5273 19.568C61.6959 19.568 62.5533 21.3274 62.5533 23.2369C62.5533 25.1861 61.6455 26.8356 59.4869 26.8256ZM59.5374 21.9472C59.2953 21.6274 58.9321 21.5774 58.801 21.5774C58.6901 21.5774 58.4783 21.5874 58.2664 21.7072C57.7015 22.0072 57.6712 22.707 57.6712 23.2469C57.6712 23.7766 57.7116 24.4864 58.2462 24.7762C58.4581 24.8962 58.6396 24.8962 58.7304 24.8962C58.8515 24.8962 59.0431 24.8864 59.265 24.7564C59.7593 24.4465 59.8299 23.7866 59.8299 23.2867C59.8299 22.857 59.7996 22.3071 59.5374 21.9472ZM70.2698 19.788H67.4051C67.395 19.8679 66.3561 24.2765 66.3561 24.2765L65.3675 19.788H62.4828L64.6715 26.1159C64.7825 26.4257 64.8834 26.7157 64.8834 26.8157C64.8834 27.0656 64.6917 27.1455 64.3085 27.1455C64.0361 27.1455 63.7839 27.1155 63.5216 27.1056V29.055L64.2883 29.1349C64.5203 29.1649 64.7624 29.1449 64.9843 29.1449C65.6701 29.1449 66.2048 29.155 66.7595 28.725C67.284 28.2952 67.5261 27.6754 67.7379 27.0656L70.2698 19.788ZM33.3216 21.2275C33.2106 20.6477 32.9384 20.2977 32.7568 20.1279C32.2625 19.638 31.4959 19.4381 30.8303 19.4381C29.8215 19.4381 29.1961 19.818 28.9238 20.0779C28.833 20.1679 28.7624 20.2379 28.6111 20.4277L28.6211 17.2387H25.8675L25.8574 26.6257H28.601L28.6111 21.7174H31.0623L31.0521 26.6257H33.3823L33.3923 22.1372C33.4023 21.7874 33.3923 21.5674 33.3216 21.2275Z" fill="black"></path>
</svg>
