<?xml version="1.0" encoding="UTF-8"?>
<svg xmlns="http://www.w3.org/2000/svg" width="80" height="36" viewBox="0 0 80 36" fill="none">
  <g clip-path="url(#clip0_2186_1526)">
    <path fill-rule="evenodd" clip-rule="evenodd" d="M30.9203 30.289C30.8605 31.5756 29.9586 32.4123 28.7521 32.4123C28.1189 32.4123 27.5752 32.1791 27.1453 31.718C26.787 31.3366 26.5957 30.8413 26.5957 30.2833C26.5957 29.7196 26.8226 29.2016 27.2588 28.7918C27.6708 28.3986 28.1786 28.2051 28.7997 28.2051C29.6658 28.2051 30.3351 28.6097 30.6634 29.3096H29.9049C29.6241 28.9683 29.2298 28.7918 28.7521 28.7918C28.3517 28.7918 27.9815 28.9395 27.7007 29.2128C27.4021 29.503 27.235 29.902 27.235 30.289C27.235 30.716 27.39 31.103 27.6649 31.3763C27.9576 31.6665 28.3578 31.8318 28.7521 31.8318C29.3911 31.8318 29.8927 31.5071 30.2154 30.8583H28.2922V30.289H30.9203Z" fill="black"></path>
    <path fill-rule="evenodd" clip-rule="evenodd" d="M32.8892 29.0461L32.2797 30.583H33.4865L32.8892 29.0461ZM31.5809 32.3308H30.9297L32.5904 28.2832H33.1877L34.8481 32.3308H34.1733L33.7073 31.1527H32.0588L31.5809 32.3308Z" fill="black"></path>
    <path fill-rule="evenodd" clip-rule="evenodd" d="M35.082 32.3308V28.2832H35.9958L37.2263 31.4145L38.4568 28.2832H39.3588V32.3308H38.7795L38.8211 28.8185L37.4415 32.3308H37.0052L35.6317 28.8185L35.6733 32.3308H35.082Z" fill="black"></path>
    <path fill-rule="evenodd" clip-rule="evenodd" d="M42.0614 32.4123C41.434 32.4123 40.9024 32.1903 40.4843 31.7691C40.0842 31.3651 39.8809 30.864 39.8809 30.2663C39.8809 29.7085 40.102 29.1958 40.526 28.8032C40.9442 28.41 41.4701 28.2051 42.0733 28.2051C43.0649 28.2051 43.9128 28.826 44.1877 29.8221H43.0648C42.838 29.4235 42.4973 29.2128 42.0792 29.2128C41.4458 29.2128 40.9503 29.6795 40.9503 30.272C40.9503 30.9152 41.476 31.4105 42.0614 31.4105C42.4614 31.4105 42.814 31.2056 43.0409 30.8297H44.1701C43.8891 31.8146 43.0826 32.4123 42.0614 32.4123Z" fill="black"></path>
    <path fill-rule="evenodd" clip-rule="evenodd" d="M46.1405 29.6097L45.7166 30.9075H46.559L46.1405 29.6097ZM45.221 32.3308H44.0859L45.7166 28.2832H46.5648L48.1957 32.3308H47.0486L46.8395 31.7446H45.4361L45.221 32.3308Z" fill="black"></path>
    <path fill-rule="evenodd" clip-rule="evenodd" d="M49.5178 30.1505C50.0316 30.1505 50.2822 30.0252 50.2822 29.6607C50.2822 29.3248 50.0616 29.1885 49.6015 29.1885H49.3147V30.1505H49.5178ZM48.2754 32.3308V28.2832H49.6851C50.1328 28.2832 50.4736 28.3116 50.7606 28.5051C51.1367 28.7555 51.3339 29.137 51.3339 29.638C51.3339 30.2927 50.9754 30.7825 50.3722 30.9416L51.4114 32.3308H50.1269L49.3147 31.0273V32.3308H48.2754Z" fill="black"></path>
    <path fill-rule="evenodd" clip-rule="evenodd" d="M51.8848 32.3308V28.2832H54.1904V29.1771H52.9241V29.8317H54.1904V30.7311H52.9241V31.4372H54.1904V32.3308H51.8848Z" fill="black"></path>
    <path fill-rule="evenodd" clip-rule="evenodd" d="M53.4375 17.1676C53.3234 17.1061 53.1979 17.0647 53.0629 17.047C53.0313 17.0418 52.9998 17.0408 52.9676 17.0378C52.9504 17.037 52.9342 17.0328 52.9167 17.0328H52.8686C52.8258 17.0318 52.7831 17.0298 52.7407 17.0328H44.436C43.8483 17.0328 43.3719 17.487 43.3719 18.0467C43.3719 18.6068 43.8483 19.061 44.436 19.061H47.6627C47.7689 19.0618 47.8553 19.1442 47.8553 19.246C47.8553 19.3046 47.8226 19.353 47.7775 19.3867C46.0086 20.2873 43.7331 20.8331 41.2437 20.8331C40.6376 20.8331 40.0454 20.7996 39.4688 20.7378V23.0402C39.9711 23.0752 40.4809 23.0953 40.9987 23.0953C44.4636 23.0953 47.6156 22.288 49.9782 20.9687L49.9788 20.9718C50.0082 20.9572 50.041 20.949 50.0762 20.949C50.1919 20.949 50.2856 21.0382 50.2856 21.1485C50.2856 21.1683 50.2817 21.1877 50.2753 21.2065L49.7831 22.4803C49.524 23.1508 49.8836 23.8941 50.5873 24.1408C50.7418 24.1953 50.9003 24.221 51.0561 24.221C51.6085 24.221 52.1271 23.8975 52.3292 23.3747L54.1102 18.7675C54.3519 18.1416 54.0503 17.4572 53.4375 17.1676Z" fill="black"></path>
    <path fill-rule="evenodd" clip-rule="evenodd" d="M41.2437 8.46755C43.7529 8.46737 46.0496 9.01813 47.8247 9.93154C47.8247 9.93154 48.9519 10.7048 49.4883 9.9625C50.1038 9.11079 48.8748 8.58059 48.8748 8.58059C46.6721 7.59348 43.9477 7.00977 40.9987 7.00977C40.4809 7.00977 39.9711 7.02973 39.4688 7.06488V8.56322C40.0454 8.50152 40.6376 8.46755 41.2437 8.46755Z" fill="black"></path>
    <path fill-rule="evenodd" clip-rule="evenodd" d="M28.4918 3.16211C27.4556 3.16211 26.6152 3.9629 26.6152 4.95061V24.4655C26.6152 25.4534 27.4556 26.2537 28.4918 26.2537H39.4687V23.0387C32.864 22.5786 27.7341 19.1789 27.7341 15.0511C27.7341 10.9232 32.864 7.52371 39.4687 7.06361V3.16211H28.4918Z" fill="black"></path>
    <path fill-rule="evenodd" clip-rule="evenodd" d="M31.0547 14.6478C31.0547 17.6943 34.6866 20.2248 39.4651 20.735V8.56055C34.6866 9.07058 31.0547 11.6007 31.0547 14.6478Z" fill="black"></path>
  </g>
  <defs>
    <clipPath id="clip0_2186_1526">
      <rect width="41" height="30" fill="white" transform="translate(19.5 3.16211)"></rect>
    </clipPath>
  </defs>
</svg>
