<?xml version="1.0" encoding="UTF-8"?>
<svg xmlns="http://www.w3.org/2000/svg" width="80" height="36" viewBox="0 0 80 36" fill="none">
  <g clip-path="url(#clip0_2186_1539)">
    <path d="M16.7988 12.9473H24.2113V14.4969H18.7266V16.7589H22.3794V18.3085H18.7266V20.8357H24.3805V22.3853H16.7988V12.9473Z" fill="black"></path>
    <path d="M24.2109 15.6758H26.1839L27.9087 20.3506L29.5096 15.6758H31.4205L28.7712 22.3838H27.0012L24.2109 15.6758Z" fill="black"></path>
    <path d="M31.4844 19.0452C31.4844 16.9964 33.0232 15.5508 35.2273 15.5508C37.4144 15.5508 38.9589 17.0016 38.9589 19.0452C38.9589 21.0628 37.3862 22.5136 35.1822 22.5136C32.9951 22.5136 31.4844 21.0888 31.4844 19.0452ZM37.0198 19.0868V19.0296C37.0198 17.7504 36.3434 16.9808 35.2329 16.9808C34.1055 16.9808 33.4291 17.7504 33.4291 19.0296V19.0868C33.4291 20.34 34.0886 21.0784 35.1991 21.0784C36.3265 21.0784 37.0198 20.3348 37.0198 19.0868Z" fill="black"></path>
    <path d="M40.1914 12.8164H42.1192V22.3844H40.1914V12.8164Z" fill="black"></path>
    <path d="M43.5801 19.6954V15.6758H45.491V19.5966C45.491 20.491 45.9532 21.0162 46.8157 21.0162C47.819 21.0162 48.2362 20.2362 48.2362 19.0818V15.6758H50.1471V22.3838H48.2362V21.4322C47.8528 22.129 47.1877 22.5138 46.2463 22.5138C44.6004 22.5138 43.5801 21.4322 43.5801 19.6954Z" fill="black"></path>
    <path d="M52.2542 20.6051V17.0951H51.2227V15.6755H52.2542V14.4067L54.12 13.4395V15.6703H55.5518V17.0899H54.1031V20.4283C54.1031 20.7559 54.2722 20.8963 54.6273 20.9119H55.4729V22.3783H53.996C52.5924 22.3107 52.288 21.7179 52.2542 20.6051Z" fill="black"></path>
    <path d="M56.7871 12.9727H58.7769V14.6939H56.7871V12.9727ZM56.8153 15.6767H58.7431V22.3847H56.8153V15.6767Z" fill="black"></path>
    <path d="M59.9766 19.0452C59.9766 16.9964 61.5154 15.5508 63.7195 15.5508C65.9066 15.5508 67.4511 17.0016 67.4511 19.0452C67.4511 21.0628 65.8784 22.5136 63.6744 22.5136C61.4872 22.5136 59.9766 21.0888 59.9766 19.0452ZM65.5064 19.0868V19.0296C65.5064 17.7504 64.8299 16.9808 63.7195 16.9808C62.5921 16.9808 61.9157 17.7504 61.9157 19.0296V19.0868C61.9157 20.34 62.5752 21.0784 63.6856 21.0784C64.813 21.0784 65.5064 20.3348 65.5064 19.0868Z" fill="black"></path>
    <path d="M68.6697 15.6769H70.5806V16.7689C70.9639 15.9889 71.6742 15.5312 72.7057 15.5312C74.2953 15.5312 75.231 16.514 75.231 18.36V22.3849H73.3201V18.464C73.3201 17.528 72.9368 17.0444 72.0406 17.0444C71.133 17.0444 70.575 17.7257 70.575 18.9789V22.39H68.6641L68.6697 15.6769Z" fill="black"></path>
    <path d="M12.3004 13.8145C10.5586 11.6981 7.39632 11.1001 4.76953 12.3949C5.79545 14.5217 6.56206 17.0229 11.6184 17.1685C12.2102 17.1841 12.8641 17.1685 13.58 17.1165C13.4785 15.7801 13.005 14.6725 12.3004 13.8145Z" fill="black"></path>
    <path d="M11.3703 18.1677C8.32641 18.3081 6.90028 19.3273 6.00965 20.5909C5.48542 21.3345 5.1472 22.1561 4.76953 22.9309C8.45606 24.7457 13.2192 22.8321 13.58 18.2041C12.7627 18.1469 12.0242 18.1365 11.3703 18.1677Z" fill="black"></path>
  </g>
  <defs>
    <clipPath id="clip0_2186_1539">
      <rect width="77" height="13" fill="white" transform="translate(1.5 11.1621)"></rect>
    </clipPath>
  </defs>
</svg>
