<?xml version="1.0" encoding="UTF-8"?>
<svg xmlns="http://www.w3.org/2000/svg" width="80" height="36" viewBox="0 0 80 36" fill="none">
  <g clip-path="url(#clip0_2186_1562)">
    <path d="M38.4321 25.1631H2.30541C2.09388 25.1631 1.891 25.0775 1.74142 24.9253C1.59185 24.773 1.50781 24.5665 1.50781 24.3512V17.9789C1.50781 16.1694 2.21397 14.434 3.47094 13.1545C4.72791 11.8751 6.43272 11.1563 8.21034 11.1562H38.4321C38.6436 11.1562 38.8465 11.2418 38.996 11.394C39.1456 11.5463 39.2297 11.7528 39.2297 11.9681V24.3512C39.2297 24.5665 39.1456 24.773 38.996 24.9253C38.8465 25.0775 38.6436 25.1631 38.4321 25.1631ZM8.19694 11.4837C6.50341 11.4855 4.87975 12.1711 3.68224 13.3901C2.48474 14.6091 1.8112 16.2618 1.80943 17.9857V24.358C1.80943 24.4901 1.86098 24.6168 1.95273 24.7102C2.04449 24.8036 2.16894 24.8561 2.29871 24.8561H38.4321C38.4963 24.8561 38.5599 24.8432 38.6193 24.8181C38.6787 24.7931 38.7326 24.7564 38.778 24.7102C38.8235 24.6639 38.8595 24.609 38.8841 24.5486C38.9087 24.4882 38.9213 24.4234 38.9213 24.358V11.975C38.9213 11.9096 38.9087 11.8448 38.8841 11.7844C38.8595 11.7239 38.8235 11.669 38.778 11.6228C38.7326 11.5765 38.6787 11.5399 38.6193 11.5148C38.5599 11.4898 38.4963 11.4769 38.4321 11.4769L8.19694 11.4837Z" fill="black"></path>
    <path d="M14.2746 17.6703V22.7805C14.2746 22.8058 14.2647 22.8301 14.2471 22.848C14.2295 22.8659 14.2056 22.876 14.1807 22.876H12.2102C12.1853 22.876 12.1614 22.8659 12.1438 22.848C12.1262 22.8301 12.1163 22.8058 12.1163 22.7805C12.1163 22.765 12.1125 22.7498 12.1054 22.7362C12.0983 22.7225 12.088 22.7109 12.0755 22.7021C12.063 22.6934 12.0486 22.6879 12.0335 22.6861C12.0184 22.6843 12.0032 22.6862 11.989 22.6918C11.792 22.7556 11.5902 22.8035 11.3858 22.835C11.1397 22.8747 10.891 22.8952 10.6418 22.8964C10.0383 22.8863 9.44226 22.759 8.88573 22.5212C8.30454 22.2854 7.77744 21.9301 7.33744 21.4773C6.89907 21.0374 6.55454 20.5102 6.32536 19.9286C6.10387 19.3596 5.99016 18.7531 5.99023 18.1411C5.99044 17.5269 6.10413 16.9182 6.32536 16.3467C6.55289 15.7546 6.89997 15.2177 7.34415 14.7707C7.78415 14.318 8.31125 13.9626 8.89243 13.7269C10.0229 13.2603 11.2875 13.2603 12.418 13.7269C12.9674 13.9508 13.4684 14.2822 13.8925 14.7025C13.9014 14.7114 13.9085 14.722 13.9134 14.7337C13.9182 14.7454 13.9207 14.758 13.9207 14.7707C13.9207 14.7834 13.9182 14.796 13.9134 14.8077C13.9085 14.8194 13.9014 14.83 13.8925 14.8389L12.5051 16.2512C12.4964 16.2603 12.4859 16.2675 12.4744 16.2724C12.4629 16.2774 12.4506 16.2799 12.4381 16.2799C12.4256 16.2799 12.4132 16.2774 12.4017 16.2724C12.3902 16.2675 12.3798 16.2603 12.371 16.2512C12.1476 16.0368 11.886 15.8677 11.6003 15.7532C10.9895 15.5035 10.3075 15.5035 9.69673 15.7532C9.38226 15.8783 9.09691 16.0688 8.85892 16.3126C8.62364 16.551 8.43694 16.8343 8.30954 17.1463C8.18215 17.4584 8.11656 17.7929 8.11656 18.1308C8.11656 18.4687 8.18215 18.8033 8.30954 19.1153C8.43694 19.4274 8.62364 19.7107 8.85892 19.9491C9.07274 20.1697 9.32503 20.3478 9.6029 20.4744C9.87186 20.5975 10.16 20.6714 10.4541 20.6927C10.747 20.7152 11.0415 20.6875 11.3254 20.6109C11.5964 20.5386 11.8527 20.4186 12.0828 20.2561C12.0957 20.247 12.1062 20.2347 12.1132 20.2204C12.1202 20.2061 12.1236 20.1902 12.1231 20.1742V19.8467C12.1231 19.8214 12.1132 19.7971 12.0956 19.7792C12.078 19.7613 12.0541 19.7512 12.0292 19.7512H10.3469C10.322 19.7512 10.2981 19.7412 10.2805 19.7232C10.2629 19.7053 10.253 19.681 10.253 19.6557V17.6703C10.253 17.645 10.2629 17.6207 10.2805 17.6028C10.2981 17.5849 10.322 17.5748 10.3469 17.5748H14.174C14.1869 17.5739 14.1998 17.5756 14.212 17.58C14.2242 17.5844 14.2353 17.5913 14.2448 17.6002C14.2542 17.6092 14.2617 17.6201 14.2668 17.6321C14.272 17.6442 14.2746 17.6572 14.2746 17.6703Z" fill="black"></path>
    <path d="M21.607 22.8216L21.2852 21.8392C21.2793 21.8188 21.2668 21.801 21.2498 21.7886C21.2328 21.7763 21.2123 21.7701 21.1914 21.7709H18.3898C18.37 21.7715 18.351 21.7785 18.3353 21.7907C18.3197 21.8029 18.3082 21.8199 18.3026 21.8392L17.9675 22.8557C17.9619 22.875 17.9504 22.8919 17.9348 22.9042C17.9191 22.9164 17.9001 22.9234 17.8804 22.924H15.816C15.8008 22.9239 15.7859 22.92 15.7725 22.9128C15.7591 22.9056 15.7476 22.8951 15.739 22.8824C15.7305 22.8696 15.7251 22.855 15.7233 22.8396C15.7215 22.8243 15.7234 22.8087 15.7288 22.7943L18.8321 13.5156C18.8377 13.4963 18.8492 13.4794 18.8648 13.4671C18.8805 13.4549 18.8995 13.4479 18.9193 13.4473H20.8094C20.8302 13.4465 20.8508 13.4527 20.8678 13.4651C20.8848 13.4774 20.8973 13.4952 20.9032 13.5156L23.8456 22.7943C23.8513 22.8093 23.8531 22.8255 23.851 22.8414C23.8489 22.8573 23.8429 22.8724 23.8336 22.8853C23.8242 22.8982 23.8118 22.9085 23.7975 22.9153C23.7832 22.922 23.7675 22.925 23.7518 22.924H21.7008C21.6879 22.924 21.6751 22.9213 21.6633 22.9161C21.6514 22.9109 21.6408 22.9032 21.632 22.8936C21.6232 22.884 21.6164 22.8727 21.6121 22.8603C21.6078 22.8479 21.606 22.8347 21.607 22.8216ZM19.2008 19.5604H20.4474C20.4632 19.5615 20.4789 19.5585 20.4932 19.5517C20.5075 19.545 20.5199 19.5347 20.5292 19.5218C20.5386 19.5088 20.5446 19.4937 20.5467 19.4778C20.5488 19.4619 20.5469 19.4458 20.5413 19.4308L19.938 17.5341C19.9326 17.5139 19.9208 17.4961 19.9044 17.4834C19.8881 17.4707 19.8681 17.4639 19.8476 17.4639C19.827 17.4639 19.807 17.4707 19.7907 17.4834C19.7743 17.4961 19.7625 17.5139 19.7571 17.5341L19.0868 19.4308C19.0796 19.4476 19.0772 19.4661 19.08 19.4843C19.0829 19.5024 19.0907 19.5193 19.1028 19.533C19.1148 19.5466 19.1304 19.5565 19.1478 19.5614C19.1652 19.5662 19.1836 19.5659 19.2008 19.5604Z" fill="black"></path>
    <path d="M32.071 13.4004H34.1219C34.1457 13.4003 34.1686 13.4095 34.186 13.4259C34.2035 13.4424 34.2141 13.465 34.2158 13.4891L34.752 22.7815C34.7529 22.7946 34.7512 22.8077 34.7469 22.8201C34.7426 22.8325 34.7358 22.8439 34.727 22.8535C34.7182 22.8631 34.7075 22.8707 34.6957 22.876C34.6838 22.8812 34.6711 22.8839 34.6581 22.8838H32.701C32.6772 22.8839 32.6543 22.8748 32.6369 22.8583C32.6195 22.8418 32.6089 22.8193 32.6072 22.7951L32.4128 19.5066C32.4128 19.4813 32.4029 19.457 32.3853 19.4391C32.3677 19.4212 32.3439 19.4111 32.319 19.4111C32.2941 19.4111 32.2702 19.4212 32.2526 19.4391C32.235 19.457 32.2251 19.4813 32.2251 19.5066L31.1259 22.8224C31.1203 22.8417 31.1088 22.8586 31.0932 22.8709C31.0775 22.8831 31.0585 22.89 31.0388 22.8906H29.028C29.0083 22.89 28.9893 22.8831 28.9736 22.8709C28.958 22.8586 28.9465 22.8417 28.9409 22.8224L27.7344 19.3156C27.7344 19.2903 27.7245 19.266 27.707 19.2481C27.6894 19.2301 27.6655 19.2201 27.6406 19.2201C27.6157 19.2201 27.5918 19.2301 27.5742 19.2481C27.5566 19.266 27.5468 19.2903 27.5468 19.3156L27.3323 22.7678C27.3306 22.792 27.32 22.8145 27.3025 22.831C27.2851 22.8475 27.2622 22.8566 27.2384 22.8565H25.2679C25.255 22.8566 25.2422 22.8539 25.2304 22.8487C25.2185 22.8434 25.2079 22.8358 25.1991 22.8262C25.1903 22.8166 25.1835 22.8052 25.1792 22.7928C25.1749 22.7805 25.1731 22.7673 25.1741 22.7542L25.7639 13.4959C25.7656 13.4718 25.7762 13.4492 25.7936 13.4327C25.8111 13.4163 25.834 13.4072 25.8577 13.4072H27.9087C27.9284 13.4078 27.9475 13.4147 27.9631 13.427C27.9788 13.4392 27.9902 13.4562 27.9958 13.4754L29.9262 19.0836C29.9316 19.1038 29.9434 19.1216 29.9598 19.1343C29.9761 19.147 29.9961 19.1538 30.0166 19.1538C30.0372 19.1538 30.0572 19.147 30.0735 19.1343C30.0899 19.1216 30.1017 19.1038 30.1071 19.0836L31.9838 13.4754C31.9882 13.4549 31.9992 13.4364 32.0149 13.4229C32.0307 13.4093 32.0504 13.4014 32.071 13.4004Z" fill="black"></path>
    <path d="M40.5628 11.3184H76.7029C76.8806 11.3184 77.0511 11.3902 77.1768 11.5182C77.3025 11.6461 77.3731 11.8197 77.3731 12.0006V18.3729C77.3731 20.139 76.6839 21.8327 75.4571 23.0815C74.2303 24.3303 72.5664 25.0318 70.8315 25.0318H40.5628C40.3851 25.0318 40.2146 24.9599 40.0889 24.832C39.9632 24.704 39.8926 24.5305 39.8926 24.3495V11.9733C39.8995 11.7972 39.9732 11.6306 40.0981 11.5084C40.2231 11.3863 40.3896 11.3182 40.5628 11.3184Z" fill="#1D1D1B"></path>
    <path d="M70.805 25.1621H40.5632C40.3517 25.1621 40.1488 25.0766 39.9992 24.9243C39.8497 24.7721 39.7656 24.5655 39.7656 24.3502V11.974C39.7656 11.7587 39.8497 11.5522 39.9992 11.3999C40.1488 11.2476 40.3517 11.1621 40.5632 11.1621H76.7033C76.9148 11.1621 77.1177 11.2476 77.2673 11.3999C77.4168 11.5522 77.5009 11.7587 77.5009 11.974V18.3463C77.4991 20.1534 76.7931 21.886 75.5378 23.1638C74.2824 24.4416 72.5803 25.1603 70.805 25.1621ZM40.5632 11.4828C40.4335 11.4828 40.309 11.5352 40.2173 11.6286C40.1255 11.7221 40.0739 11.8487 40.0739 11.9808V24.3502C40.0739 24.4823 40.1255 24.609 40.2173 24.7024C40.309 24.7958 40.4335 24.8483 40.5632 24.8483H70.805C72.4986 24.8465 74.1222 24.1609 75.3197 22.9419C76.5172 21.7229 77.1908 20.0702 77.1926 18.3463V11.974C77.1926 11.8419 77.141 11.7152 77.0493 11.6218C76.9575 11.5284 76.833 11.4759 76.7033 11.4759L40.5632 11.4828Z" fill="black"></path>
    <path d="M45.87 22.8903C45.5733 22.8897 45.2779 22.8484 44.992 22.7675C44.6974 22.6842 44.417 22.5554 44.1609 22.3854C43.7139 22.0951 43.3471 21.6936 43.0952 21.2187C42.8551 20.7676 42.7241 20.2648 42.7131 19.7519C42.7122 19.7388 42.714 19.7256 42.7183 19.7132C42.7226 19.7008 42.7293 19.6895 42.7381 19.6799C42.7469 19.6703 42.7576 19.6626 42.7694 19.6574C42.7813 19.6522 42.7941 19.6495 42.807 19.6495H44.7976C44.8225 19.6495 44.8464 19.6596 44.864 19.6775C44.8816 19.6954 44.8915 19.7197 44.8915 19.7451C44.8928 19.9262 44.9489 20.1025 45.0523 20.2499C45.1331 20.3644 45.2329 20.4637 45.3472 20.5433C45.4938 20.6459 45.6655 20.705 45.8432 20.7139C46.023 20.723 46.2024 20.6879 46.366 20.6115C46.4739 20.5686 46.572 20.5036 46.6542 20.4205C46.7197 20.3534 46.7761 20.2777 46.8218 20.1953C46.8564 20.1295 46.8791 20.0579 46.8888 19.9838C46.9057 19.8731 46.9057 19.7603 46.8888 19.6495C46.8787 19.5734 46.856 19.4996 46.8218 19.4312C46.7782 19.3475 46.7216 19.2714 46.6542 19.2061C46.5691 19.1249 46.4718 19.0581 46.366 19.0082L46.0711 18.8922L45.736 18.7762L45.0657 18.5443C44.8312 18.4519 44.6066 18.3353 44.3955 18.1963C44.1052 18.0192 43.8505 17.7877 43.6448 17.5141C43.2417 16.9583 43.0533 16.2712 43.1153 15.5833C43.1456 15.2329 43.2436 14.8921 43.4035 14.5803C43.5494 14.2946 43.7421 14.0362 43.9732 13.8162C44.1959 13.6038 44.4519 13.4309 44.7306 13.3045C45.0154 13.1786 45.319 13.1025 45.6287 13.0794C45.9575 13.0534 46.2882 13.0834 46.6073 13.1681C46.9159 13.2406 47.2104 13.3651 47.4786 13.5365C47.7329 13.7005 47.9593 13.9056 48.1489 14.1437C48.3228 14.372 48.4587 14.6278 48.551 14.901C48.641 15.1646 48.6908 15.4407 48.6985 15.7197C48.6994 15.7328 48.6977 15.746 48.6934 15.7584C48.6891 15.7707 48.6823 15.7821 48.6735 15.7917C48.6647 15.8013 48.654 15.809 48.6422 15.8142C48.6303 15.8194 48.6176 15.8221 48.6047 15.8221H46.6609C46.6382 15.8223 46.6162 15.8141 46.5989 15.7991C46.5816 15.784 46.5703 15.7631 46.5671 15.7402C46.5648 15.6748 46.5472 15.611 46.5157 15.5541C46.4842 15.4971 46.4398 15.4486 46.3861 15.4127C46.288 15.3489 46.1821 15.2985 46.0711 15.2626H45.9639C45.8929 15.2498 45.8203 15.2498 45.7494 15.2626C45.6623 15.2774 45.5784 15.3074 45.5014 15.3513C45.4132 15.4035 45.343 15.4821 45.3003 15.5764C45.2331 15.7091 45.2186 15.8631 45.2601 16.0063C45.2991 16.1525 45.3898 16.2788 45.5148 16.361C45.6417 16.4328 45.7739 16.4944 45.9102 16.5452L46.366 16.709L46.8017 16.8523C46.9491 16.9023 47.0988 16.9614 47.2507 17.0297C47.7784 17.2656 48.2276 17.6522 48.544 18.1426C48.8604 18.6329 49.0305 19.2061 49.0336 19.7928C49.0377 20.384 48.8698 20.9633 48.551 21.4575C48.093 22.1584 47.383 22.6484 46.5738 22.8221C46.3421 22.8694 46.1063 22.8923 45.87 22.8903Z" fill="white"></path>
    <path d="M74.5177 17.4043C74.5218 17.9288 74.4215 18.4487 74.2228 18.9326C74.0291 19.4007 73.7493 19.8268 73.3984 20.188C73.0463 20.5505 72.6302 20.8421 72.1718 21.0476C71.7299 21.2474 71.2543 21.3586 70.771 21.3751C70.7587 21.3751 70.7465 21.3776 70.7351 21.3824C70.7237 21.3872 70.7134 21.3942 70.7047 21.4031C70.6959 21.4119 70.689 21.4225 70.6843 21.4341C70.6796 21.4456 70.6772 21.4581 70.6772 21.4706V22.7942C70.6772 22.8195 70.6673 22.8438 70.6497 22.8617C70.6321 22.8796 70.6082 22.8897 70.5833 22.8897H68.6329C68.608 22.8897 68.5841 22.8796 68.5665 22.8617C68.549 22.8438 68.5391 22.8195 68.5391 22.7942V13.5154C68.5391 13.4901 68.549 13.4658 68.5665 13.4479C68.5841 13.43 68.608 13.4199 68.6329 13.4199H70.6705C71.1861 13.4247 71.6951 13.5386 72.1651 13.7542C72.6229 13.9637 73.0387 14.2575 73.3917 14.6207C73.7426 14.9818 74.0224 15.4079 74.2161 15.8761C74.4171 16.3595 74.5197 16.8794 74.5177 17.4043ZM70.6705 19.11C70.6704 19.1231 70.6731 19.1361 70.6782 19.1482C70.6833 19.1602 70.6908 19.1711 70.7003 19.1801C70.7097 19.189 70.7209 19.1959 70.733 19.2003C70.7452 19.2047 70.7581 19.2064 70.771 19.2055C70.9663 19.1873 71.1569 19.1341 71.334 19.0486C71.5344 18.953 71.7161 18.8213 71.8702 18.6597C72.025 18.496 72.1478 18.3038 72.2322 18.0934C72.4072 17.656 72.4072 17.1663 72.2322 16.7289C72.1477 16.5186 72.0249 16.3264 71.8702 16.1626C71.7161 16.001 71.5344 15.8693 71.334 15.7737C71.1568 15.6883 70.9663 15.6352 70.771 15.6168C70.7472 15.6148 70.7235 15.6222 70.7048 15.6374C70.6861 15.6526 70.6738 15.6746 70.6705 15.6987V19.11Z" fill="white"></path>
    <path d="M61.8965 13.4141C62.5188 13.4106 63.1349 13.5384 63.7062 13.7894C64.2577 14.0285 64.7602 14.3711 65.1875 14.7991C65.6115 15.23 65.9505 15.7395 66.1862 16.3001C66.4286 16.8841 66.5535 17.5116 66.5535 18.1456C66.5535 18.7796 66.4286 19.4071 66.1862 19.9911C65.9505 20.5518 65.6115 21.0613 65.1875 21.4921C64.762 21.9276 64.2594 22.2772 63.7062 22.5223C63.1336 22.7689 62.5182 22.8959 61.8965 22.8959C61.2748 22.8959 60.6594 22.7689 60.0868 22.5223C58.9746 22.0412 58.09 21.1382 57.6203 20.0048C57.3798 19.4203 57.2559 18.793 57.2559 18.1593C57.2559 17.5256 57.3798 16.8982 57.6203 16.3137C58.09 15.1803 58.9746 14.2774 60.0868 13.7962C60.6576 13.5429 61.2738 13.4128 61.8965 13.4141ZM61.8965 20.7075C62.2326 20.7109 62.5658 20.6435 62.8751 20.5096C63.479 20.2491 63.9597 19.7598 64.2156 19.1451C64.3452 18.8308 64.4119 18.4933 64.4119 18.1524C64.4119 17.8115 64.3452 17.4741 64.2156 17.1597C63.9597 16.5451 63.479 16.0557 62.8751 15.7952C62.5663 15.6633 62.2348 15.5954 61.8999 15.5954C61.565 15.5954 61.2335 15.6633 60.9247 15.7952C60.3208 16.0557 59.8401 16.5451 59.5842 17.1597C59.4546 17.4741 59.3878 17.8115 59.3878 18.1524C59.3878 18.4933 59.4546 18.8308 59.5842 19.1451C59.8401 19.7598 60.3208 20.2491 60.9247 20.5096C61.234 20.6435 61.5671 20.7109 61.9032 20.7075H61.8965Z" fill="white"></path>
    <path d="M54.3827 15.4941H52.4122C52.3604 15.4941 52.3184 15.5369 52.3184 15.5897V22.7943C52.3184 22.8471 52.3604 22.8899 52.4122 22.8899H54.3827C54.4346 22.8899 54.4766 22.8471 54.4766 22.7943V15.5897C54.4766 15.5369 54.4346 15.4941 54.3827 15.4941Z" fill="white"></path>
    <path d="M56.153 13.4141H50.6368C50.585 13.4141 50.543 13.4568 50.543 13.5096V15.5154C50.543 15.5682 50.585 15.6109 50.6368 15.6109H56.153C56.2048 15.6109 56.2468 15.5682 56.2468 15.5154V13.5096C56.2468 13.4568 56.2048 13.4141 56.153 13.4141Z" fill="white"></path>
  </g>
  <defs>
    <clipPath id="clip0_2186_1562">
      <rect width="76" height="14" fill="white" transform="translate(1.5 11.1621)"></rect>
    </clipPath>
  </defs>
</svg>
