<?xml version="1.0" encoding="UTF-8"?>
<svg xmlns="http://www.w3.org/2000/svg" width="80" height="36" viewBox="0 0 80 36" fill="none">
  <path fill-rule="evenodd" clip-rule="evenodd" d="M51.1375 15.7871C51.2925 16.5546 51.375 17.3484 51.375 18.1621C51.375 24.7159 46.0537 30.0371 39.5 30.0371C32.9462 30.0371 27.625 24.7159 27.625 18.1621C27.625 11.6084 32.9462 6.28711 39.5 6.28711C40.3138 6.28711 41.1075 6.36961 41.875 6.52461C42.2137 6.59336 42.5437 6.37461 42.6125 6.03711C42.6812 5.69961 42.4625 5.36836 42.125 5.29961C41.2763 5.12711 40.3988 5.03711 39.5 5.03711C32.2562 5.03711 26.375 10.9184 26.375 18.1621C26.375 25.4059 32.2562 31.2871 39.5 31.2871C46.7437 31.2871 52.625 25.4059 52.625 18.1621C52.625 17.2634 52.535 16.3859 52.3625 15.5371C52.2938 15.1996 51.9625 14.9809 51.625 15.0496C51.2875 15.1184 51.0687 15.4484 51.1375 15.7871Z" fill="black"></path>
  <path fill-rule="evenodd" clip-rule="evenodd" d="M48.2525 5.66211L48.25 11.9121C48.25 12.2571 48.53 12.5371 48.875 12.5371C49.22 12.5371 49.5 12.2571 49.5 11.9121L49.5025 5.66211C49.5025 5.31711 49.2225 5.03711 48.8775 5.03711C48.5325 5.03711 48.2525 5.31711 48.2525 5.66211Z" fill="black"></path>
  <path fill-rule="evenodd" clip-rule="evenodd" d="M45.75 9.41016L52 9.41266C52.345 9.41266 52.625 9.13266 52.625 8.78766C52.625 8.44266 52.345 8.16266 52 8.16266L45.75 8.16016C45.405 8.16016 45.125 8.44016 45.125 8.78516C45.125 9.13016 45.405 9.41016 45.75 9.41016Z" fill="black"></path>
  <path fill-rule="evenodd" clip-rule="evenodd" d="M33.875 11.9121V24.4121C33.875 24.7571 34.155 25.0371 34.5 25.0371C34.845 25.0371 35.125 24.7571 35.125 24.4121V11.9121C35.125 11.5671 34.845 11.2871 34.5 11.2871C34.155 11.2871 33.875 11.5671 33.875 11.9121Z" fill="black"></path>
  <path fill-rule="evenodd" clip-rule="evenodd" d="M45.75 20.6621C45.75 19.8334 45.4212 19.0384 44.835 18.4521C44.2487 17.8659 43.4538 17.5371 42.625 17.5371C42.2137 17.5371 41.7863 17.5371 41.375 17.5371C40.5463 17.5371 39.7513 17.8659 39.165 18.4521C38.5788 19.0384 38.25 19.8334 38.25 20.6621V21.9121C38.25 22.7409 38.5788 23.5359 39.165 24.1221C39.7513 24.7084 40.5463 25.0371 41.375 25.0371H42.625C43.4538 25.0371 44.2487 24.7084 44.835 24.1221C45.4212 23.5359 45.75 22.7409 45.75 21.9121V20.6621ZM44.5 20.6621V21.9121C44.5 22.4096 44.3025 22.8859 43.9513 23.2384C43.5987 23.5896 43.1225 23.7871 42.625 23.7871H41.375C40.8775 23.7871 40.4013 23.5896 40.0488 23.2384C39.6975 22.8859 39.5 22.4096 39.5 21.9121V20.6621C39.5 20.1646 39.6975 19.6884 40.0488 19.3359C40.4013 18.9846 40.8775 18.7871 41.375 18.7871H42.625C43.1225 18.7871 43.5987 18.9846 43.9513 19.3359C44.3025 19.6884 44.5 20.1646 44.5 20.6621Z" fill="black"></path>
  <path fill-rule="evenodd" clip-rule="evenodd" d="M45.75 14.4121C45.75 13.5834 45.4212 12.7884 44.835 12.2021C44.2487 11.6159 43.4538 11.2871 42.625 11.2871C42.2137 11.2871 41.7863 11.2871 41.375 11.2871C40.5463 11.2871 39.7513 11.6159 39.165 12.2021C38.5788 12.7884 38.25 13.5834 38.25 14.4121V15.6621C38.25 16.4909 38.5788 17.2859 39.165 17.8721C39.7513 18.4584 40.5463 18.7871 41.375 18.7871H42.625C43.4538 18.7871 44.2487 18.4584 44.835 17.8721C45.4212 17.2859 45.75 16.4909 45.75 15.6621V14.4121ZM44.5 14.4121V15.6621C44.5 16.1596 44.3025 16.6359 43.9513 16.9884C43.5987 17.3396 43.1225 17.5371 42.625 17.5371H41.375C40.8775 17.5371 40.4013 17.3396 40.0488 16.9884C39.6975 16.6359 39.5 16.1596 39.5 15.6621V14.4121C39.5 13.9146 39.6975 13.4384 40.0488 13.0859C40.4013 12.7346 40.8775 12.5371 41.375 12.5371H42.625C43.1225 12.5371 43.5987 12.7346 43.9513 13.0859C44.3025 13.4384 44.5 13.9146 44.5 14.4121Z" fill="black"></path>
</svg>
