<?xml version="1.0" encoding="UTF-8"?>
<svg xmlns="http://www.w3.org/2000/svg" width="16" height="16" viewBox="0 0 16 16" fill="none">
  <path d="M8 15C11.866 15 15 11.866 15 8C15 4.13401 11.866 1 8 1C4.13401 1 1 4.13401 1 8C1 11.866 4.13401 15 8 15Z" fill="#FFB300"></path>
  <path d="M8 13.5C11.0376 13.5 13.5 11.0376 13.5 8C13.5 4.96243 11.0376 2.5 8 2.5C4.96243 2.5 2.5 4.96243 2.5 8C2.5 11.0376 4.96243 13.5 8 13.5Z" fill="url(#paint0_linear_2168_564)"></path>
  <path d="M8.21043 4.83256L9.08756 6.60984L11.0489 6.89484C11.2413 6.92281 11.3182 7.15929 11.1789 7.29504L9.75968 8.67844L10.0947 10.6318C10.1276 10.8235 9.92641 10.9697 9.75428 10.8792L8.00001 9.95689L6.24573 10.8792C6.07361 10.9697 5.87243 10.8235 5.90531 10.6318L6.24033 8.67844L4.82111 7.29504C4.68186 7.15931 4.75871 6.92281 4.95113 6.89484L6.91246 6.60984L7.78958 4.83256C7.87563 4.65819 8.12438 4.65819 8.21043 4.83256Z" fill="white"></path>
  <defs>
    <linearGradient id="paint0_linear_2168_564" x1="8" y1="2.5" x2="8" y2="13.5" gradientUnits="userSpaceOnUse">
      <stop stop-color="#FFA200"></stop>
      <stop offset="1" stop-color="#FF7A00"></stop>
    </linearGradient>
  </defs>
</svg>
