<?xml version="1.0" encoding="UTF-8"?>
<svg xmlns="http://www.w3.org/2000/svg" width="16" height="16" viewBox="0 0 16 16" fill="none">
  <g clip-path="url(#clip0_2168_553)">
    <path d="M10.5597 11.2132L11.2913 10.0259L12.6117 9.57563L12.758 8.18884L13.7514 7.21088L13.2791 5.89819L13.7514 4.58547L12.758 3.6075L12.6117 2.22075L11.2914 1.77044L10.5597 0.583156L9.1758 0.75025L8.00021 0L6.82462 0.750313L5.44074 0.583219L4.70909 1.77047L3.38871 2.22078L3.24243 3.60753L2.24902 4.5855L2.72134 5.89822L2.24902 7.21094L3.2424 8.18888L3.38868 9.57566L4.70905 10.026L5.44071 11.2132L6.82462 11.0462L8.00021 11.7964L9.1758 11.0462L10.5597 11.2132ZM3.95555 5.89822C3.95555 3.668 5.76999 1.85356 8.00021 1.85356C10.2304 1.85356 12.0449 3.668 12.0449 5.89822C12.0449 8.12844 10.2304 9.94287 8.00021 9.94287C5.76999 9.94287 3.95555 8.12844 3.95555 5.89822Z" fill="white"></path>
    <path d="M8.00012 2.79163C6.28715 2.79163 4.89355 4.18522 4.89355 5.89819C4.89355 7.61116 6.28715 9.00475 8.00012 9.00475C9.71309 9.00475 11.1067 7.61116 11.1067 5.89819C11.1067 4.18522 9.71309 2.79163 8.00012 2.79163Z" fill="white"></path>
    <path d="M6.60324 12.0178L4.95699 12.2165L4.08721 10.805L3.79152 10.7042L2.51611 14.6907L4.81221 14.5644L6.60861 16L7.66574 12.6959L6.60324 12.0178Z" fill="white"></path>
    <path d="M11.913 10.8051L11.0432 12.2165L9.39697 12.0178L8.33447 12.6959L9.3916 16L11.188 14.5644L13.4841 14.6907L12.2087 10.7042L11.913 10.8051Z" fill="white"></path>
  </g>
  <defs>
    <clipPath id="clip0_2168_553">
      <rect width="16" height="16" fill="white"></rect>
    </clipPath>
  </defs>
</svg>
