<?xml version="1.0" encoding="UTF-8"?>
<svg xmlns="http://www.w3.org/2000/svg" width="16" height="16" viewBox="0 0 16 16" fill="none">
  <path d="M7.1665 8.51333C7.1665 7.94 7.47984 7.42667 7.9865 7.17333L9.31984 6.49333C9.53317 6.38667 9.7665 6.33333 9.99984 6.33333H11.8332V3.33333C11.8332 2.32 11.0132 1.5 9.99984 1.5H3.99984C2.9865 1.5 2.1665 2.32 2.1665 3.33333V12C2.1665 13.0133 2.9865 13.8333 3.99984 13.8333H8.57317C7.6865 12.88 7.1665 11.6067 7.1665 10.2533V8.51333ZM3.99984 3.5H8.6665C8.9425 3.5 9.1665 3.724 9.1665 4C9.1665 4.276 8.9425 4.5 8.6665 4.5H3.99984C3.72384 4.5 3.49984 4.276 3.49984 4C3.49984 3.724 3.72384 3.5 3.99984 3.5ZM5.99984 8.5H3.99984C3.72384 8.5 3.49984 8.276 3.49984 8C3.49984 7.724 3.72384 7.5 3.99984 7.5H5.99984C6.27584 7.5 6.49984 7.724 6.49984 8C6.49984 8.276 6.27584 8.5 5.99984 8.5ZM6.6665 6.5H3.99984C3.72384 6.5 3.49984 6.276 3.49984 6C3.49984 5.724 3.72384 5.5 3.99984 5.5H6.6665C6.9425 5.5 7.1665 5.724 7.1665 6C7.1665 6.276 6.9425 6.5 6.6665 6.5ZM14.2265 8.064L12.8932 7.38733C12.8232 7.352 12.7452 7.33333 12.6665 7.33333H9.99984C9.92117 7.33333 9.84384 7.352 9.77317 7.38733L8.43984 8.064C8.27184 8.14933 8.1665 8.322 8.1665 8.51V10.2553C8.1665 12.0267 9.27317 13.6353 10.9225 14.2587C11.0545 14.3087 11.1932 14.3333 11.3325 14.3333C11.4718 14.3333 11.6118 14.308 11.7458 14.258C13.3932 13.6353 14.4998 12.0267 14.4998 10.2553V8.51C14.4998 8.322 14.3945 8.14933 14.2265 8.064ZM12.7065 10.1587L11.5065 11.502C11.4112 11.608 11.2758 11.6687 11.1332 11.6687C10.9905 11.6687 10.8552 11.608 10.7598 11.502L9.95984 10.606C9.7765 10.4 9.79384 10.084 9.99984 9.9C10.2065 9.71667 10.5212 9.73333 10.7065 9.94L11.1338 10.418L11.9605 9.492C12.1438 9.286 12.4598 9.26867 12.6672 9.452C12.8732 9.636 12.8905 9.952 12.7072 10.158L12.7065 10.1587Z" fill="white"></path>
</svg>
