<?xml version="1.0" encoding="UTF-8"?>
<svg xmlns="http://www.w3.org/2000/svg" width="16" height="16" viewBox="0 0 16 16" fill="none">
  <path d="M14.3808 4.38789H8.95047V7.12243H15.2923V5.2994C15.2923 4.80001 14.885 4.38789 14.3808 4.38789ZM1.62441 4.38789C1.12016 4.38789 0.712891 4.79516 0.712891 5.2994V7.12243H7.0935V4.38789H1.62441ZM1.62441 8.03395V14.4146C1.62441 14.9188 2.03168 15.3261 2.53592 15.3261H7.0935V8.03395H1.62441ZM13.4693 15.3261C13.9735 15.3261 14.3808 14.9188 14.3808 14.4146V8.03395H8.95047V15.3261H13.4693ZM8.00501 3.47153C8.00986 3.47153 8.00986 3.47637 8.00986 3.48122H11.6559C12.9165 3.48122 13.479 2.85092 13.479 2.08001C13.479 1.3091 12.9117 0.678799 11.6559 0.678799C10.4777 0.678799 9.55168 1.22183 8.92138 1.85213C8.35895 1.49819 7.64622 1.49334 7.07895 1.83274C6.44865 1.20728 5.52744 0.67395 4.35895 0.67395C3.09835 0.67395 2.53592 1.30425 2.53592 2.07516C2.53592 2.84607 3.09835 3.47637 4.35895 3.47637H8.00501V3.47153ZM12.5577 2.11395C12.5577 2.49213 12.0632 2.56971 11.6462 2.56971H9.57592C9.57107 2.55516 9.56138 2.54547 9.55653 2.53092C10.022 2.08001 10.7202 1.65819 11.6462 1.65819C12.0632 1.65819 12.5577 1.73577 12.5577 2.11395ZM3.44744 2.11395C3.44744 1.73577 3.94198 1.65819 4.35895 1.65819C5.26562 1.65819 5.9541 2.06547 6.41471 2.49698C6.40016 2.52122 6.39047 2.54547 6.37592 2.56971H4.35895C3.94198 2.56971 3.44744 2.48728 3.44744 2.11395Z" fill="white"></path>
</svg>
