<?xml version="1.0" encoding="UTF-8"?>
<svg xmlns="http://www.w3.org/2000/svg" width="16" height="16" viewBox="0 0 16 16" fill="none">
  <g clip-path="url(#clip0_2168_544)">
    <path d="M14.1726 5.75655C11.687 3.80657 9.40661 1.29582 8.46099 0.209935C8.21722 -0.0699785 7.78267 -0.0699785 7.5389 0.209935C6.59325 1.29579 4.31291 3.80654 1.8273 5.75655C0.699542 6.64129 0.0395508 7.97166 0.0395508 9.38124C0.0395508 11.883 2.12388 13.9111 4.69502 13.9111C5.56459 13.9111 6.35558 13.5841 6.94565 13.0499V13.9332C6.94565 15.0085 6.17498 15.1418 5.57701 15.644C5.43319 15.7647 5.5215 16 5.70929 16H10.2748C10.4619 16 10.5503 15.7664 10.4081 15.6448C9.81621 15.1389 9.05418 15.026 9.05418 13.9412V13.0498C9.64425 13.5841 10.4352 13.911 11.3048 13.911C13.8759 13.911 15.9603 11.8829 15.9603 9.38121C15.9603 7.97166 15.3003 6.64129 14.1726 5.75655Z" fill="white"></path>
  </g>
  <defs>
    <clipPath id="clip0_2168_544">
      <rect width="16" height="16" fill="white"></rect>
    </clipPath>
  </defs>
</svg>
