<?xml version="1.0" encoding="UTF-8"?>
<svg xmlns="http://www.w3.org/2000/svg" width="142" height="30" viewBox="0 0 142 30" fill="none">
  <path d="M0 0.234694C0 0.365128 1.37763 4.40861 3.09317 9.18252C4.78272 13.9564 6.47227 18.8347 6.86216 20.0347L7.58997 22.1738H10.6831H13.8023L14.2702 21.0521C14.5301 20.4521 16.9994 15.5738 19.7287 10.1999C22.458 4.826 24.6934 0.339041 24.6934 0.208607C24.6934 0.104258 23.4457 -8.96454e-05 21.9121 -8.96454e-05H19.1049L17.6753 3.07817C16.8955 4.74774 15.076 8.58252 13.6463 11.5564L11.021 17.0086L8.36976 8.8173C6.91415 4.30426 5.71847 0.469477 5.71847 0.312954C5.71847 0.0781708 4.88669 -8.96454e-05 2.85923 -8.96454e-05C1.24767 -8.96454e-05 0 0.104258 0 0.234694Z" fill="#DE0000"></path>
  <path d="M136.724 2.53028V5.0868H133.526C130.615 5.11289 130.225 5.16507 128.77 5.84333C126.066 7.06941 124.403 9.33898 123.727 12.652C123.077 15.7825 124.039 19.2259 126.014 20.8694C128.51 22.9303 132.695 22.9825 135.294 20.9738L136.204 20.2955V21.2346V22.1738H138.517H140.831L140.986 19.4868C141.064 18.0259 141.246 13.7738 141.402 10.0433C141.558 6.31289 141.766 2.53028 141.844 1.64333L142 -0.000154495H139.349H136.724V2.53028ZM135.918 8.79115C136.516 8.94767 136.516 8.97376 136.334 11.5564C136.1 14.8694 135.606 16.5651 134.54 17.6346C133.423 18.7564 132.175 18.9912 130.693 18.3129C129.238 17.6868 128.666 16.5651 128.666 14.4259C128.666 12.652 129.29 11.1651 130.433 10.0955C131.655 8.92159 134.202 8.32159 135.918 8.79115Z" fill="#DE0000"></path>
  <path d="M27.1367 5.34761C24.1735 5.86935 24.2515 5.81717 24.0695 7.59109C23.9655 8.47804 23.9395 9.23457 23.9915 9.28674C24.0435 9.365 25.0312 9.15631 26.1489 8.84326C28.8522 8.08674 31.7115 8.03457 32.4653 8.71283C33.8169 9.93891 32.7512 10.878 28.9302 11.8433C24.3294 13.0172 22.7439 13.9563 21.9381 16.0694C21.5482 17.0867 21.5482 17.452 21.8081 18.5737C22.4579 21.3911 24.0955 22.4346 27.9165 22.4346C30.9577 22.4346 31.0096 22.4085 31.4775 20.5824C31.7115 19.7215 31.7894 18.965 31.6855 18.8867C31.5815 18.8346 30.9577 18.9128 30.3078 19.0694C27.9685 19.6433 26.045 18.5998 26.7208 17.0867C27.0847 16.3041 27.8905 15.8867 30.3858 15.1302C31.4255 14.8172 32.4653 14.5041 32.6992 14.4259C33.0371 14.2954 33.0631 14.6607 32.9071 17.3737C32.8032 19.0694 32.6472 20.8694 32.5692 21.3128L32.4393 22.1737H35.0646H37.6899V20.3998C37.6899 19.4346 37.8198 16.3563 38.0018 13.565C38.2617 8.94761 38.2617 8.39978 37.8718 7.565C37.326 6.44326 36.1303 5.58239 34.5707 5.24326C33.0111 4.87804 29.3981 4.93022 27.1367 5.34761Z" fill="#DE0000"></path>
  <path d="M48.191 5.32193C47.5932 5.50454 46.6834 6.00019 46.1636 6.39149L45.2278 7.09584L45.3838 6.28715L45.5657 5.47845H42.9664H40.3671L40.1852 9.5741C40.0292 13.0698 39.6653 19.0437 39.4314 21.3915L39.3794 22.0437L42.0047 22.1219L44.63 22.2002L44.8119 18.2089C45.0719 12.0263 45.6697 10.3828 47.9831 9.49584C49.0748 9.07845 49.2827 9.07845 50.2445 9.41758C52.4019 10.1741 52.5319 10.7219 52.168 17.9219L51.96 22.1741H54.5333H57.1326L57.3146 15.7828C57.4186 12.2611 57.4446 9.02628 57.3406 8.5828C57.1066 7.40889 56.2489 6.31323 55.0272 5.68715C53.6496 4.9828 49.8286 4.7741 48.191 5.32193Z" fill="#DE0000"></path>
  <path d="M65.7628 5.24347C62.7996 5.81738 60.0443 8.13912 58.9786 10.9043C58.3028 12.6783 58.1728 15.9391 58.7187 17.7913C59.1606 19.3043 60.5382 20.9739 61.9678 21.7043C63.3194 22.4087 66.1007 22.6174 67.7123 22.1739C68.3621 21.9913 69.3758 21.4957 69.9737 21.0783L71.0394 20.2956L70.8314 21.8348C70.5715 23.9217 70.1036 24.9391 69.0899 25.5391C67.4783 26.5304 66.2307 26.5043 60.5122 25.3826L59.8104 25.2522L59.9663 27.1565C60.0443 28.2261 60.2263 29.1652 60.3822 29.2435C60.8241 29.5565 65.087 30 67.4523 30C70.3636 30 72.443 29.4261 73.7686 28.2783C75.4842 26.8174 75.6661 25.9826 75.9261 19.0435C76.056 15.6783 76.264 11.3478 76.4199 9.41739C76.5759 7.51304 76.6539 5.86956 76.5759 5.81738C76.5239 5.76521 75.4322 5.53043 74.1845 5.32173C71.6632 4.93043 67.6083 4.87825 65.7628 5.24347ZM70.5195 8.89565L71.5072 9.15652L71.3513 11.2956C71.0134 15.8087 70.3376 17.4522 68.518 18.287C67.1924 18.887 66.6725 18.887 65.3469 18.287C63.9953 17.6609 63.4234 16.513 63.4234 14.4261C63.4494 11.7913 64.827 9.70434 67.0884 8.99999C68.4921 8.55652 69.2458 8.53043 70.5195 8.89565Z" fill="#DE0000"></path>
  <path d="M100.697 5.34761C97.734 5.86935 97.812 5.81717 97.63 7.59109C97.5261 8.47804 97.5001 9.23457 97.5521 9.28674C97.6041 9.365 98.5918 9.15631 99.7095 8.84326C102.413 8.08674 105.272 8.03457 106.026 8.71283C107.377 9.93891 106.312 10.878 102.491 11.8433C97.89 13.0172 96.3044 13.9563 95.4986 16.0694C95.1087 17.0867 95.1087 17.452 95.3687 18.5737C96.0185 21.3911 97.656 22.4346 101.477 22.4346C104.518 22.4346 104.57 22.4085 105.038 20.5824C105.272 19.7215 105.35 18.965 105.246 18.8867C105.142 18.8346 104.518 18.9128 103.868 19.0694C101.529 19.6433 99.6055 18.5998 100.281 17.0867C100.645 16.3041 101.451 15.8867 103.946 15.1302C104.986 14.8172 106.026 14.5041 106.26 14.4259C106.598 14.2954 106.624 14.6607 106.468 17.3737C106.364 19.0694 106.208 20.8694 106.13 21.3128L106 22.1737H108.625H111.25V20.3998C111.25 19.4346 111.38 16.3563 111.562 13.565C111.822 8.94761 111.822 8.39978 111.432 7.565C110.886 6.44326 109.691 5.58239 108.131 5.24326C106.572 4.87804 102.959 4.93022 100.697 5.34761Z" fill="#DE0000"></path>
  <path d="M120.634 5.2173C120.296 5.37382 119.698 5.71295 119.282 6.026L118.528 6.54774V6.026C118.528 5.50426 118.372 5.47817 116.111 5.47817H113.668L113.512 11.6608C113.408 15.0782 113.252 18.8347 113.174 20.0086L112.992 22.1738H115.591H118.216L118.32 17.3999C118.45 12.3651 118.606 11.5825 119.75 10.3825C120.738 9.33904 121.985 8.99991 123.233 9.39122C123.805 9.57382 124.299 9.67817 124.377 9.626C124.429 9.54774 124.403 8.50426 124.299 7.30426L124.117 5.08687L122.687 5.03469C121.907 5.00861 120.972 5.08687 120.634 5.2173Z" fill="#DE0000"></path>
  <path d="M78.135 6.83468C78.057 7.5912 77.9271 10.6173 77.8231 13.5651C77.6671 18.2347 77.6931 19.0434 78.083 19.7477C79.0708 21.6782 81.3841 22.5912 84.7113 22.3564C86.7647 22.226 88.0124 21.7825 89.0781 20.7912L89.6499 20.2695L89.494 21.2347L89.338 22.1738H91.8333H94.3027L94.4586 19.7738C94.6666 16.0434 95.1345 6.73033 95.1345 6.05207C95.1345 5.50424 95.0565 5.47816 92.6651 5.47816C90.8716 5.47816 90.1958 5.55642 90.1958 5.7912C90.1698 5.97381 90.0658 8.06076 89.9359 10.4086C89.6759 15.0521 89.26 16.5129 87.8304 17.5564C86.8427 18.2608 85.3091 18.3912 84.2174 17.8173C82.6578 17.0086 82.5278 16.4347 82.8917 11.5042C83.0477 9.13033 83.1777 6.7825 83.1777 6.31294V5.47816H80.7343H78.291L78.135 6.83468Z" fill="#DE0000"></path>
</svg>
