<?xml version="1.0" encoding="UTF-8"?>
<svg xmlns="http://www.w3.org/2000/svg" width="142" height="30" viewBox="0 0 142 30" fill="none">
  <path d="M0 0.234816C0 0.36525 1.37763 4.40873 3.09317 9.18264C4.78272 13.9566 6.47227 18.8348 6.86216 20.0348L7.58997 22.174H10.6831H13.8023L14.2702 21.0522C14.5301 20.4522 16.9994 15.5739 19.7287 10.2C22.458 4.82612 24.6934 0.339163 24.6934 0.208729C24.6934 0.10438 23.4457 3.24249e-05 21.9121 3.24249e-05H19.1049L17.6753 3.07829C16.8955 4.74786 15.076 8.58264 13.6463 11.5566L11.021 17.0087L8.36976 8.81743C6.91415 4.30438 5.71847 0.469599 5.71847 0.313076C5.71847 0.0782928 4.88669 3.24249e-05 2.85923 3.24249e-05C1.24767 3.24249e-05 0 0.10438 0 0.234816Z" fill="white"></path>
  <path d="M136.724 2.5304V5.08693H133.526C130.615 5.11301 130.225 5.16519 128.77 5.84345C126.066 7.06954 124.403 9.3391 123.727 12.6521C123.077 15.7826 124.039 19.2261 126.014 20.8695C128.51 22.9304 132.695 22.9826 135.294 20.9739L136.204 20.2956V21.2348V22.1739H138.517H140.831L140.986 19.4869C141.064 18.0261 141.246 13.7739 141.402 10.0434C141.558 6.31301 141.766 2.5304 141.844 1.64345L142 -3.24249e-05H139.349H136.724V2.5304ZM135.918 8.79128C136.516 8.9478 136.516 8.97388 136.334 11.5565C136.1 14.8695 135.606 16.5652 134.54 17.6348C133.423 18.7565 132.175 18.9913 130.693 18.313C129.238 17.6869 128.666 16.5652 128.666 14.4261C128.666 12.6521 129.29 11.1652 130.433 10.0956C131.655 8.92171 134.202 8.32171 135.918 8.79128Z" fill="white"></path>
  <path d="M27.1367 5.34785C24.1735 5.86959 24.2515 5.81742 24.0695 7.59133C23.9655 8.47829 23.9395 9.23481 23.9915 9.28698C24.0435 9.36525 25.0312 9.15655 26.1489 8.84351C28.8522 8.08698 31.7115 8.03481 32.4653 8.71307C33.8169 9.93916 32.7512 10.8783 28.9302 11.8435C24.3294 13.0174 22.7439 13.9566 21.9381 16.0696C21.5482 17.087 21.5482 17.4522 21.8081 18.5739C22.4579 21.3913 24.0955 22.4348 27.9165 22.4348C30.9577 22.4348 31.0096 22.4087 31.4775 20.5826C31.7115 19.7218 31.7894 18.9652 31.6855 18.887C31.5815 18.8348 30.9577 18.9131 30.3078 19.0696C27.9685 19.6435 26.045 18.6 26.7208 17.087C27.0847 16.3044 27.8905 15.887 30.3858 15.1305C31.4255 14.8174 32.4653 14.5044 32.6992 14.4261C33.0371 14.2957 33.0631 14.6609 32.9071 17.3739C32.8032 19.0696 32.6472 20.8696 32.5692 21.3131L32.4393 22.1739H35.0646H37.6899V20.4C37.6899 19.4348 37.8198 16.3566 38.0018 13.5652C38.2617 8.94785 38.2617 8.40003 37.8718 7.56524C37.326 6.44351 36.1303 5.58264 34.5707 5.24351C33.0111 4.87829 29.3981 4.93046 27.1367 5.34785Z" fill="white"></path>
  <path d="M48.191 5.32168C47.5932 5.50429 46.6834 5.99994 46.1636 6.39125L45.2278 7.0956L45.3838 6.2869L45.5657 5.47821H42.9664H40.3671L40.1852 9.57386C40.0292 13.0695 39.6653 19.0434 39.4314 21.3913L39.3794 22.0434L42.0047 22.1217L44.63 22.2L44.8119 18.2086C45.0719 12.026 45.6697 10.3826 47.9831 9.4956C49.0748 9.07821 49.2827 9.07821 50.2445 9.41734C52.4019 10.1739 52.5319 10.7217 52.168 17.9217L51.96 22.1739H54.5333H57.1326L57.3146 15.7826C57.4186 12.2608 57.4446 9.02603 57.3406 8.58255C57.1066 7.40864 56.2489 6.31299 55.0272 5.6869C53.6496 4.98255 49.8286 4.77386 48.191 5.32168Z" fill="white"></path>
  <path d="M65.7628 5.24347C62.7996 5.81738 60.0443 8.13912 58.9786 10.9043C58.3028 12.6783 58.1728 15.9391 58.7187 17.7913C59.1606 19.3043 60.5382 20.9739 61.9678 21.7043C63.3194 22.4087 66.1007 22.6174 67.7123 22.1739C68.3621 21.9913 69.3758 21.4957 69.9737 21.0783L71.0394 20.2956L70.8314 21.8348C70.5715 23.9217 70.1036 24.9391 69.0899 25.5391C67.4783 26.5304 66.2307 26.5043 60.5122 25.3826L59.8104 25.2522L59.9663 27.1565C60.0443 28.2261 60.2263 29.1652 60.3822 29.2435C60.8241 29.5565 65.087 30 67.4523 30C70.3636 30 72.443 29.4261 73.7686 28.2783C75.4842 26.8174 75.6661 25.9826 75.9261 19.0435C76.056 15.6783 76.264 11.3478 76.4199 9.41739C76.5759 7.51304 76.6539 5.86956 76.5759 5.81738C76.5239 5.76521 75.4322 5.53043 74.1845 5.32173C71.6632 4.93043 67.6083 4.87825 65.7628 5.24347ZM70.5195 8.89565L71.5072 9.15652L71.3513 11.2956C71.0134 15.8087 70.3376 17.4522 68.518 18.287C67.1924 18.887 66.6725 18.887 65.3469 18.287C63.9953 17.6609 63.4234 16.513 63.4234 14.4261C63.4494 11.7913 64.827 9.70434 67.0884 8.99999C68.4921 8.55652 69.2458 8.53043 70.5195 8.89565Z" fill="white"></path>
  <path d="M100.697 5.34785C97.734 5.86959 97.812 5.81742 97.63 7.59133C97.5261 8.47829 97.5001 9.23481 97.5521 9.28698C97.6041 9.36525 98.5918 9.15655 99.7095 8.84351C102.413 8.08698 105.272 8.03481 106.026 8.71307C107.377 9.93916 106.312 10.8783 102.491 11.8435C97.89 13.0174 96.3044 13.9566 95.4986 16.0696C95.1087 17.087 95.1087 17.4522 95.3687 18.5739C96.0185 21.3913 97.656 22.4348 101.477 22.4348C104.518 22.4348 104.57 22.4087 105.038 20.5826C105.272 19.7218 105.35 18.9652 105.246 18.887C105.142 18.8348 104.518 18.9131 103.868 19.0696C101.529 19.6435 99.6055 18.6 100.281 17.087C100.645 16.3044 101.451 15.887 103.946 15.1305C104.986 14.8174 106.026 14.5044 106.26 14.4261C106.598 14.2957 106.624 14.6609 106.468 17.3739C106.364 19.0696 106.208 20.8696 106.13 21.3131L106 22.1739H108.625H111.25V20.4C111.25 19.4348 111.38 16.3566 111.562 13.5652C111.822 8.94785 111.822 8.40003 111.432 7.56524C110.886 6.44351 109.691 5.58264 108.131 5.24351C106.572 4.87829 102.959 4.93046 100.697 5.34785Z" fill="white"></path>
  <path d="M120.634 5.21742C120.296 5.37395 119.698 5.71308 119.282 6.02612L118.528 6.54786V6.02612C118.528 5.50438 118.372 5.47829 116.111 5.47829H113.668L113.512 11.6609C113.408 15.0783 113.252 18.8348 113.174 20.0087L112.992 22.174H115.591H118.216L118.32 17.4C118.45 12.3653 118.606 11.5826 119.75 10.3826C120.738 9.33916 121.985 9.00003 123.233 9.39134C123.805 9.57395 124.299 9.67829 124.377 9.62612C124.429 9.54786 124.403 8.50438 124.299 7.30438L124.117 5.08699L122.687 5.03481C121.907 5.00873 120.972 5.08699 120.634 5.21742Z" fill="white"></path>
  <path d="M78.135 6.8348C78.057 7.59132 77.9271 10.6174 77.8231 13.5652C77.6671 18.2348 77.6931 19.0435 78.083 19.7478C79.0708 21.6783 81.3841 22.5913 84.7113 22.3565C86.7647 22.2261 88.0124 21.7826 89.0781 20.7913L89.6499 20.2696L89.494 21.2348L89.338 22.1739H91.8333H94.3027L94.4586 19.7739C94.6666 16.0435 95.1345 6.73045 95.1345 6.05219C95.1345 5.50436 95.0565 5.47828 92.6651 5.47828C90.8716 5.47828 90.1958 5.55654 90.1958 5.79132C90.1698 5.97393 90.0658 8.06089 89.9359 10.4087C89.6759 15.0522 89.26 16.5131 87.8304 17.5565C86.8427 18.2609 85.3091 18.3913 84.2174 17.8174C82.6578 17.0087 82.5278 16.4348 82.8917 11.5044C83.0477 9.13045 83.1777 6.78263 83.1777 6.31306V5.47828H80.7343H78.291L78.135 6.8348Z" fill="white"></path>
</svg>
