<?xml version="1.0" encoding="UTF-8"?>
<svg xmlns="http://www.w3.org/2000/svg" width="58" height="28" viewBox="0 0 58 28" fill="none">
  <g clip-path="url(#clip0_5_2386)">
    <path d="M25.5198 20.323H22.0576L24.2231 8.06445H27.6851L25.5198 20.323Z" fill="#00579F"></path>
    <path d="M38.0709 8.36369C37.388 8.11566 36.3049 7.8418 34.9656 7.8418C31.5466 7.8418 29.1389 9.51096 29.1242 11.8974C29.0958 13.658 30.848 14.636 32.1585 15.223C33.4979 15.8229 33.9533 16.2145 33.9533 16.7492C33.9396 17.5704 32.8709 17.949 31.8741 17.949C30.4918 17.949 29.7512 17.7538 28.6257 17.2969L28.1698 17.1011L27.6853 19.8528C28.4973 20.1915 29.9934 20.4921 31.5466 20.5053C35.1793 20.5053 37.5444 18.8619 37.5724 16.3188C37.5862 14.9233 36.661 13.8541 34.6663 12.9803C33.4553 12.4194 32.7138 12.0412 32.7138 11.4673C32.728 10.9456 33.341 10.4112 34.7079 10.4112C35.8334 10.3851 36.6604 10.6327 37.2869 10.8806L37.6 11.0108L38.0709 8.36369Z" fill="#00579F"></path>
    <path d="M42.672 15.9802C42.9571 15.276 44.0542 12.5504 44.0542 12.5504C44.0398 12.5766 44.3388 11.8332 44.5097 11.3768L44.7517 12.4331C44.7517 12.4331 45.4073 15.3673 45.5497 15.9802C45.0086 15.9802 43.3558 15.9802 42.672 15.9802ZM46.9456 8.06445H44.2676C43.4418 8.06445 42.8143 8.28597 42.458 9.08155L37.3154 20.3228H40.9482C40.9482 20.3228 41.5463 18.8098 41.6748 18.484C42.0733 18.484 45.6073 18.484 46.1199 18.484C46.2193 18.9144 46.5331 20.3228 46.5331 20.3228H49.7387L46.9456 8.06445Z" fill="#00579F"></path>
    <path d="M19.166 8.06445L15.7754 16.4236L15.4048 14.7283C14.778 12.7721 12.8121 10.6467 10.6182 9.58993L13.7238 20.31H17.385L22.8269 8.06445H19.166Z" fill="#00579F"></path>
    <path d="M12.6273 8.06445H7.05699L7 8.31214C11.3452 9.32941 14.2229 11.7815 15.4052 14.7288L14.1943 9.0949C13.995 8.31197 13.3823 8.09028 12.6273 8.06445Z" fill="#FAA61A"></path>
  </g>
  <defs>
    <clipPath id="clip0_5_2386">
      <rect width="42.7392" height="12.6635" fill="white" transform="translate(7 7.8418)"></rect>
    </clipPath>
  </defs>
</svg>
