<?xml version="1.0" encoding="UTF-8"?>
<svg xmlns="http://www.w3.org/2000/svg" width="58" height="29" viewBox="0 0 58 29" fill="none">
  <g clip-path="url(#clip0_2186_2449)">
    <path d="M18.8675 26.0495V24.5098C18.8675 23.9208 18.4952 23.5351 17.8561 23.5351C17.5365 23.5351 17.1891 23.6368 16.9502 23.9716C16.764 23.6906 16.4972 23.5351 16.097 23.5351C15.8302 23.5351 15.5634 23.6129 15.3524 23.8939V23.586H14.7939V26.0495H15.3524V24.6892C15.3524 24.2527 15.5913 24.0464 15.9636 24.0464C16.3359 24.0464 16.522 24.2766 16.522 24.6892V26.0495H17.0805V24.6892C17.0805 24.2527 17.3473 24.0464 17.6917 24.0464C18.064 24.0464 18.2501 24.2766 18.2501 24.6892V26.0495H18.8675ZM27.1511 23.586H26.2452V22.8415H25.6868V23.586H25.1811V24.0733H25.6868V25.2034C25.6868 25.7684 25.9257 26.1003 26.5648 26.1003C26.8037 26.1003 27.0705 26.0226 27.2566 25.9209L27.0953 25.4575C26.934 25.5592 26.7478 25.5861 26.6144 25.5861C26.3476 25.5861 26.2421 25.4306 26.2421 25.1765V24.0733H27.148V23.586H27.1511ZM31.8917 23.5322C31.5722 23.5322 31.3581 23.6876 31.2247 23.8909V23.583H30.6662V26.0465H31.2247V24.6593C31.2247 24.2497 31.4108 24.0165 31.7583 24.0165C31.8638 24.0165 31.9972 24.0434 32.1058 24.0673L32.2671 23.5531C32.1554 23.5322 31.9972 23.5322 31.8917 23.5322ZM24.7281 23.7893C24.4613 23.6099 24.089 23.5322 23.6888 23.5322C23.0496 23.5322 22.6246 23.8401 22.6246 24.3274C22.6246 24.737 22.9442 24.9702 23.5026 25.0449L23.7694 25.0718C24.0611 25.1227 24.2224 25.2004 24.2224 25.329C24.2224 25.5083 24.0083 25.6369 23.636 25.6369C23.2637 25.6369 22.969 25.5083 22.7828 25.3798L22.516 25.7894C22.8077 25.9957 23.2079 26.0973 23.6081 26.0973C24.3527 26.0973 24.7808 25.7625 24.7808 25.302C24.7808 24.8656 24.4334 24.6353 23.9028 24.5576L23.636 24.5307C23.3971 24.5038 23.211 24.453 23.211 24.3005C23.211 24.1211 23.3971 24.0195 23.6919 24.0195C24.0114 24.0195 24.331 24.148 24.4923 24.2258L24.7281 23.7893ZM39.5859 23.5322C39.2663 23.5322 39.0523 23.6876 38.9188 23.8909V23.583H38.3604V26.0465H38.9188V24.6593C38.9188 24.2497 39.105 24.0165 39.4525 24.0165C39.558 24.0165 39.6914 24.0434 39.7999 24.0673L39.9613 23.5591C39.8527 23.5322 39.6945 23.5322 39.5859 23.5322ZM32.4502 24.8177C32.4502 25.5622 32.9838 26.1003 33.8091 26.1003C34.1814 26.1003 34.4482 26.0226 34.715 25.8193L34.4482 25.3828C34.2341 25.5382 34.0231 25.613 33.7811 25.613C33.3282 25.613 33.0086 25.305 33.0086 24.8177C33.0086 24.3543 33.3282 24.0464 33.7811 24.0225C34.02 24.0225 34.2341 24.1002 34.4482 24.2527L34.715 23.8162C34.4482 23.6099 34.1814 23.5351 33.8091 23.5351C32.9838 23.5322 32.4502 24.0733 32.4502 24.8177ZM37.6158 24.8177V23.586H37.0574V23.8939C36.8712 23.6637 36.6044 23.5351 36.2569 23.5351C35.5371 23.5351 34.9787 24.0733 34.9787 24.8177C34.9787 25.5622 35.5371 26.1003 36.2569 26.1003C36.6292 26.1003 36.896 25.9717 37.0574 25.7415V26.0495H37.6158V24.8177ZM35.5651 24.8177C35.5651 24.3812 35.8567 24.0225 36.3376 24.0225C36.7905 24.0225 37.1101 24.3573 37.1101 24.8177C37.1101 25.2542 36.7905 25.613 36.3376 25.613C35.8598 25.5861 35.5651 25.2512 35.5651 24.8177ZM28.8823 23.5322C28.1377 23.5322 27.6041 24.0464 27.6041 24.8147C27.6041 25.5861 28.1377 26.0973 28.9102 26.0973C29.2825 26.0973 29.6548 25.9957 29.9496 25.7625L29.6828 25.3768C29.4687 25.5323 29.2019 25.6339 28.9382 25.6339C28.5907 25.6339 28.2463 25.4784 28.1656 25.0449H30.0551C30.0551 24.9672 30.0551 24.9164 30.0551 24.8386C30.0799 24.0464 29.599 23.5322 28.8823 23.5322ZM28.8823 23.9956C29.2298 23.9956 29.4687 24.2018 29.5214 24.5845H28.1905C28.2432 24.2527 28.4821 23.9956 28.8823 23.9956ZM42.7566 24.8177V22.6113H42.1982V23.8939C42.012 23.6637 41.7452 23.5351 41.3977 23.5351C40.6779 23.5351 40.1195 24.0733 40.1195 24.8177C40.1195 25.5622 40.6779 26.1003 41.3977 26.1003C41.77 26.1003 42.0368 25.9717 42.1982 25.7415V26.0495H42.7566V24.8177ZM40.7059 24.8177C40.7059 24.3812 40.9975 24.0225 41.4784 24.0225C41.9314 24.0225 42.2509 24.3573 42.2509 24.8177C42.2509 25.2542 41.9314 25.613 41.4784 25.613C40.9975 25.5861 40.7059 25.2512 40.7059 24.8177ZM22.0103 24.8177V23.586H21.4519V23.8939C21.2657 23.6637 20.9989 23.5351 20.6514 23.5351C19.9317 23.5351 19.3732 24.0733 19.3732 24.8177C19.3732 25.5622 19.9317 26.1003 20.6514 26.1003C21.0237 26.1003 21.2905 25.9717 21.4519 25.7415V26.0495H22.0103V24.8177ZM19.9348 24.8177C19.9348 24.3812 20.2264 24.0225 20.7073 24.0225C21.1602 24.0225 21.4798 24.3573 21.4798 24.8177C21.4798 25.2542 21.1602 25.613 20.7073 25.613C20.2264 25.5861 19.9348 25.2512 19.9348 24.8177Z" fill="#151515"></path>
    <path d="M32.9311 4.87695H24.542V19.4009H32.9311V4.87695Z" fill="#FF5A00"></path>
    <path d="M25.1005 12.1385C25.1005 9.18771 26.5401 6.56874 28.749 4.87658C27.1233 3.64482 25.0726 2.90039 22.8357 2.90039C17.5367 2.90039 13.249 7.03214 13.249 12.1385C13.249 17.2449 17.5367 21.3767 22.8357 21.3767C25.0726 21.3767 27.1233 20.6322 28.749 19.4005C26.537 17.7322 25.1005 15.0894 25.1005 12.1385Z" fill="#EB001B"></path>
    <path d="M44.249 12.1385C44.249 17.2449 39.9614 21.3767 34.6624 21.3767C32.4255 21.3767 30.3747 20.6322 28.749 19.4005C30.9859 17.7053 32.3975 15.0894 32.3975 12.1385C32.3975 9.18771 30.958 6.56874 28.749 4.87658C30.3716 3.64482 32.4224 2.90039 34.6593 2.90039C39.9614 2.90039 44.249 7.05905 44.249 12.1385Z" fill="#F79E1B"></path>
  </g>
  <defs>
    <clipPath id="clip0_2186_2449">
      <rect width="31" height="29" fill="white" transform="translate(13.249)"></rect>
    </clipPath>
  </defs>
</svg>
