<?xml version="1.0" encoding="UTF-8"?>
<svg xmlns="http://www.w3.org/2000/svg" width="58" height="28" viewBox="0 0 58 28" fill="none">
  <g clip-path="url(#clip0_2186_2446)">
    <path fill-rule="evenodd" clip-rule="evenodd" d="M39.4773 8H41.6345V19.8992H39.4773V8ZM56.9473 13.0132V11.1667H54.7165V8.75917H52.5594V17.5362C52.5594 18.3427 52.7646 18.9572 53.1693 19.363C53.5737 19.769 54.2041 19.9748 55.0428 19.9748H56.9473V18.1283H55.5537C55.2506 18.1283 55.0333 18.0624 54.9073 17.9324C54.7917 17.8133 54.7165 17.5126 54.7165 17.1662V13.0132H56.9473ZM24.8237 17.5831L27.0542 11.1664H29.3206L26.1007 19.8993H23.5469L20.3269 11.1664H22.5933L24.8237 17.5831ZM49.0432 15.5412C49.0432 16.0941 48.9582 16.5751 48.7913 16.9708C48.6256 17.3643 48.3881 17.666 48.0854 17.8673C47.7828 18.0686 47.4107 18.1706 46.9794 18.1706C46.3626 18.1706 45.8972 17.9702 45.5964 17.5752C45.2922 17.176 45.1378 16.5709 45.1378 15.7769V11.1666H42.9807V16.0127C42.9807 16.7672 43.0759 17.4072 43.2644 17.9147C43.4529 18.4237 43.712 18.8377 44.034 19.1451C44.3561 19.4521 44.732 19.6738 45.1515 19.8044C45.5687 19.9342 46.0178 20 46.4859 20C47.1603 20 47.7187 19.8791 48.1446 19.6405C48.533 19.4223 48.8589 19.1672 49.1138 18.8811L49.3068 19.8992H51.2003V11.1666H49.0432V15.5412ZM36.1797 11.6272C35.4998 11.2545 34.6925 11.0657 33.7806 11.0657C32.8797 11.0657 32.0754 11.2545 31.39 11.627C30.7037 12.0005 30.1645 12.528 29.7873 13.1947C29.4106 13.8608 29.2196 14.6503 29.2196 15.5412C29.2196 16.4212 29.4106 17.2052 29.7873 17.8713C30.1643 18.5378 30.7036 19.0651 31.39 19.4385C32.0754 19.8111 32.8798 19.9999 33.7806 19.9999C34.6925 19.9999 35.4998 19.8111 36.1797 19.4384C36.8602 19.0652 37.3966 18.5379 37.7737 17.8713C38.1506 17.2048 38.3416 16.4208 38.3416 15.5412C38.3416 14.6507 38.1506 13.8611 37.7737 13.1946C37.3963 12.5279 36.8601 12.0004 36.1797 11.6272ZM35.0399 17.8668C34.6924 18.0905 34.2687 18.2041 33.7807 18.2041C33.3038 18.2041 32.8828 18.0906 32.5295 17.8667C32.1755 17.6426 31.8979 17.3264 31.7042 16.9265C31.5097 16.5263 31.4109 16.0603 31.4109 15.5412C31.4109 15.0114 31.5096 14.5427 31.7042 14.1479C31.8978 13.7535 32.1756 13.4371 32.5299 13.2074C32.8832 12.9779 33.304 12.8616 33.7806 12.8616C34.2685 12.8616 34.6919 12.9779 35.0396 13.2071C35.3882 13.437 35.6633 13.7535 35.8573 14.1481C36.0517 14.5438 36.1503 15.0125 36.1503 15.5413C36.1503 16.0592 36.0517 16.5253 35.8573 16.9265C35.6633 17.3264 35.3883 17.6427 35.0399 17.8668ZM4.24193 10.9367H2V19.8993H4.24193V10.9367ZM11.2725 11.4492C11.2725 9.54739 9.70607 8.00013 7.7805 8.00013H2V9.91416H7.50565C8.37708 9.91416 9.09891 10.591 9.11488 11.4228C9.12284 11.8394 8.96471 12.2325 8.66964 12.5297C8.37446 12.8271 7.98005 12.991 7.5591 12.991H5.41435C5.3382 12.991 5.27623 13.0521 5.27623 13.1274V14.8285C5.27623 14.8575 5.28527 14.8851 5.30227 14.9084L8.94115 19.8994H11.6049L7.95752 14.8947C9.79433 14.8036 11.2725 13.2778 11.2725 11.4492ZM18.1663 11.5763C17.5205 11.2375 16.7537 11.0657 15.8872 11.0657C15.0195 11.0657 14.2438 11.2546 13.5814 11.6274C12.918 12.0005 12.3961 12.5281 12.0302 13.1951C11.6647 13.8607 11.4794 14.6557 11.4794 15.5583C11.4794 16.4379 11.6675 17.2217 12.0388 17.8879C12.4108 18.5556 12.9474 19.0803 13.6334 19.4471C14.3181 19.814 15.1395 20 16.0744 20C16.8161 20 17.4822 19.8626 18.0541 19.5915C18.6262 19.3196 19.0932 18.9495 19.4422 18.4912C19.7738 18.0556 19.9976 17.563 20.107 17.0271L20.1188 16.9699H17.9734L17.9633 17.0043C17.8452 17.404 17.616 17.7198 17.2819 17.9432C16.9233 18.1834 16.4829 18.3052 15.9726 18.3052C15.5401 18.3052 15.1495 18.2136 14.8117 18.0329C14.4756 17.8533 14.2127 17.5964 14.0307 17.2692C13.8479 16.9408 13.7439 16.5456 13.7217 16.0971V16.027H20.2019L20.2092 15.9879C20.2318 15.865 20.2463 15.7383 20.2526 15.6109C20.258 15.4868 20.2611 15.3628 20.2611 15.2376C20.2495 14.3915 20.0582 13.6473 19.6926 13.0254C19.3255 12.4028 18.812 11.9152 18.1663 11.5763ZM17.3802 13.2209C17.7488 13.5276 17.9781 13.9634 18.0622 14.517H13.7962C13.845 14.1578 13.9656 13.8467 14.1552 13.5914C14.354 13.3237 14.6087 13.1134 14.9123 12.9662C15.2163 12.8186 15.5501 12.7437 15.9042 12.7437C16.5027 12.7437 16.9994 12.9043 17.3802 13.2209Z" fill="#151515"></path>
  </g>
  <defs>
    <clipPath id="clip0_2186_2446">
      <rect width="55" height="12" fill="white" transform="translate(2 8)"></rect>
    </clipPath>
  </defs>
</svg>
