<?xml version="1.0" encoding="UTF-8"?>
<svg xmlns="http://www.w3.org/2000/svg" width="28" height="28" viewBox="0 0 28 28" fill="none">
  <g clip-path="url(#clip0_2186_2456)">
    <path d="M25.6403 16.9031C24.0375 23.3317 17.5264 27.2441 11.097 25.641C4.67025 24.0382 0.757876 17.5267 2.36138 11.0985C3.96338 4.6691 10.4745 0.756348 16.902 2.3591C23.331 3.96185 27.243 10.4741 25.6403 16.9031Z" fill="#F7931A"></path>
    <path d="M19.292 12.2908C19.5309 10.694 18.3152 9.83564 16.6528 9.26302L17.192 7.10002L15.8754 6.77189L15.3504 8.87789C15.0043 8.79164 14.6488 8.71026 14.2955 8.62964L14.8243 6.50977L13.5084 6.18164L12.9688 8.34389C12.6823 8.27864 12.401 8.21414 12.128 8.14627L12.1295 8.13952L10.3138 7.68614L9.96355 9.09239C9.96355 9.09239 10.9404 9.31626 10.9198 9.33014C11.453 9.46326 11.5494 9.81614 11.5333 10.0959L10.919 12.56C10.9558 12.5694 11.0034 12.5829 11.0559 12.6039C11.012 12.593 10.9652 12.581 10.9168 12.5694L10.0558 16.0213C9.99055 16.1833 9.82517 16.4263 9.45242 16.334C9.46555 16.3531 8.49542 16.0951 8.49542 16.0951L7.8418 17.6023L9.55517 18.0294C9.87392 18.1093 10.1863 18.1929 10.4938 18.2716L9.94892 20.4594L11.264 20.7875L11.8037 18.623C12.1629 18.7205 12.5117 18.8105 12.8529 18.8953L12.3152 21.0496L13.6318 21.3778L14.1767 19.1941C16.4218 19.619 18.11 19.4476 18.8207 17.417C19.3933 15.782 18.7922 14.8389 17.6109 14.2239C18.4712 14.0255 19.1192 13.4596 19.292 12.2908ZM16.2838 16.5091C15.8769 18.1441 13.124 17.2603 12.2315 17.0386L12.9545 14.1403C13.847 14.363 16.709 14.804 16.2838 16.5091ZM16.691 12.2671C16.3198 13.7544 14.0285 12.9988 13.2853 12.8135L13.9408 10.1848C14.684 10.37 17.0777 10.7158 16.691 12.2671Z" fill="white"></path>
  </g>
  <defs>
    <clipPath id="clip0_2186_2456">
      <rect width="24" height="24" fill="white" transform="translate(2 2)"></rect>
    </clipPath>
  </defs>
</svg>
