<?xml version="1.0" encoding="UTF-8"?>
<svg xmlns="http://www.w3.org/2000/svg" width="58" height="28" viewBox="0 0 58 28" fill="none">
  <g clip-path="url(#clip0_2186_2461)">
    <path d="M16.0309 8.0628C15.5517 8.60324 14.785 9.0295 14.0184 8.9686C13.9225 8.23787 14.2979 7.46147 14.7371 6.98192C15.2163 6.42626 16.0548 6.03045 16.7336 6C16.8135 6.76118 16.502 7.50714 16.0309 8.0628ZM16.7257 9.11323C15.6156 9.05233 14.6652 9.71456 14.1382 9.71456C13.6031 9.71456 12.7965 9.14367 11.918 9.1589C10.776 9.17412 9.71385 9.79068 9.13086 10.7726C7.93295 12.7364 8.8194 15.6441 9.97739 17.2426C10.5444 18.0343 11.2232 18.902 12.1177 18.8716C12.9642 18.8411 13.2996 18.3463 14.3218 18.3463C15.352 18.3463 15.6475 18.8716 16.542 18.8563C17.4684 18.8411 18.0513 18.0647 18.6184 17.2731C19.2652 16.3749 19.5288 15.4995 19.5448 15.4539C19.5288 15.4386 17.7559 14.7916 17.7399 12.843C17.7239 11.2141 19.1375 10.4377 19.2013 10.392C18.4027 9.26546 17.1569 9.14367 16.7257 9.11323ZM23.1385 6.9058V18.7726H25.0711V14.7155H27.7465C30.1902 14.7155 31.9072 13.117 31.9072 10.803C31.9072 8.48906 30.2222 6.9058 27.8104 6.9058H23.1385ZM25.0711 8.45861H27.2993C28.9763 8.45861 29.9347 9.31113 29.9347 10.8107C29.9347 12.3102 28.9763 13.1703 27.2913 13.1703H25.0711V8.45861ZM35.4371 18.8639C36.651 18.8639 37.777 18.2778 38.2882 17.3492H38.3281V18.7726H40.117V12.8658C40.117 11.1532 38.6795 10.0495 36.4673 10.0495C34.4149 10.0495 32.8975 11.1684 32.8416 12.706H34.5826C34.7263 11.9753 35.4371 11.4957 36.4114 11.4957C37.5934 11.4957 38.2562 12.0209 38.2562 12.9876V13.6422L35.8444 13.7793C33.6003 13.9087 32.3864 14.784 32.3864 16.3064C32.3864 17.844 33.6402 18.8639 35.4371 18.8639ZM35.9562 17.4558C34.926 17.4558 34.2711 16.9838 34.2711 16.2607C34.2711 15.5147 34.902 15.0809 36.1079 15.0124L38.2562 14.883V15.5528C38.2562 16.6641 37.2659 17.4558 35.9562 17.4558ZM42.5048 22C44.3895 22 45.276 21.3149 46.0507 19.2369L49.4447 10.1637H47.4802L45.2041 17.1741H45.1642L42.8881 10.1637H40.8677L44.142 18.803L43.9663 19.3283C43.6708 20.2188 43.1916 20.5614 42.3371 20.5614C42.1854 20.5614 41.8899 20.5461 41.7701 20.5309V21.9543C41.8819 21.9848 42.3611 22 42.5048 22Z" fill="#151515"></path>
  </g>
  <defs>
    <clipPath id="clip0_2186_2461">
      <rect width="40.8889" height="16" fill="white" transform="translate(8.55566 6)"></rect>
    </clipPath>
  </defs>
</svg>
