<?xml version="1.0" encoding="UTF-8"?>
<svg xmlns="http://www.w3.org/2000/svg" width="100" height="30" viewBox="0 0 100 30" fill="none">
  <path d="M36.6535 6.06199L53.6905 21.2457V1.66284C54.9913 2.76088 56.0964 3.67008 57.1874 4.61425C57.3413 4.79234 57.4212 5.02249 57.4113 5.25768C57.4113 13.0722 57.4113 20.8844 57.4113 28.6942C57.3943 28.8712 57.3642 29.0466 57.3203 29.2188L40.4022 14.084C40.4022 14.4966 40.3532 14.7834 40.3532 15.0352C40.3532 19.4273 40.3532 23.8195 40.3532 28.2187C40.3532 28.918 40.1294 29.1698 39.4161 29.1279C38.5209 29.0719 37.6256 29.1279 36.6185 29.1279L36.6535 6.06199Z" fill="white"></path>
  <path d="M78.5183 28.6452V8.29293C78.5183 7.18095 78.5183 7.18095 79.6792 7.18095H82.5124V14.9232H93.4921C93.4921 14.6574 93.5274 14.3706 93.5274 14.0839C93.5274 12.0277 93.5274 9.96447 93.5274 7.90132C93.5274 7.3208 93.716 7.14598 94.2824 7.16693C95.3385 7.2019 96.3809 7.16693 97.549 7.16693C97.549 7.47467 97.5909 7.73343 97.5909 7.9922C97.5909 14.5595 97.5909 21.1198 97.5909 27.687C97.5909 28.3864 97.3879 28.6522 96.6677 28.6172C95.6672 28.5683 94.6602 28.6172 93.5693 28.6172C93.5693 28.2745 93.5274 27.9878 93.5274 27.701C93.5274 24.7986 93.5274 21.9031 93.5274 19.0006C93.5274 18.4971 93.4227 18.2593 92.8281 18.2663C89.534 18.2663 86.2399 18.2663 82.9458 18.2663C82.8142 18.2763 82.6833 18.2951 82.5543 18.3222C82.5543 18.6229 82.5124 18.9097 82.5124 19.1964C82.5124 22.071 82.5124 24.9454 82.5124 27.8199C82.5124 28.4354 82.3022 28.6312 81.7077 28.6103C80.7288 28.5892 79.6727 28.6452 78.5183 28.6452Z" fill="white"></path>
  <path d="M35.1358 7.18062C35.1358 7.45339 35.1848 7.64222 35.1848 7.82405C35.1848 12.2722 35.1848 16.7203 35.1848 21.1754C35.1848 25.6305 32.4362 28.4561 28.0161 28.9736C26.0733 29.2316 24.1018 29.1772 22.1762 28.8127C18.4205 28.0224 16.1545 25.4277 16.0707 21.651C15.9937 17.063 16.0706 12.475 16.0287 7.89398C16.0287 7.35544 16.2175 7.19463 16.728 7.19463C17.7841 7.22959 18.8262 7.19463 20.0011 7.19463V8.22968C20.0011 12.1113 20.0011 15.9929 20.0011 19.8746C20.0101 20.6279 20.0992 21.3781 20.2669 22.1126C20.4607 23.1376 21.0091 24.0618 21.8161 24.7229C22.623 25.384 23.6369 25.74 24.6801 25.7285C25.4955 25.801 26.3166 25.7822 27.1279 25.6725C28.2691 25.5438 29.3176 24.9827 30.0578 24.1046C30.798 23.2265 31.1737 22.0981 31.1074 20.9516C31.1563 16.6923 31.1493 12.4331 31.1074 8.17376C31.1074 7.40441 31.2822 7.09668 32.0935 7.15266C33.0866 7.22959 34.0657 7.18062 35.1358 7.18062Z" fill="white"></path>
  <path d="M77.6161 12.6781C77.1827 12.3913 76.9168 12.1885 76.6163 11.9786C73.1192 9.77556 69.4408 9.18111 65.685 11.2793C64.3356 12.1012 63.2768 13.3246 62.6574 14.7781C62.038 16.2316 61.8887 17.8425 62.2299 19.3852C62.4885 20.9349 63.2245 22.3653 64.3356 23.4762C65.4467 24.5872 66.8767 25.3233 68.4265 25.5818C69.8906 25.8293 71.39 25.7759 72.8331 25.4248C74.2762 25.0736 75.6322 24.4322 76.8193 23.5396C77.0498 23.3787 77.2874 23.2318 77.6652 22.987C77.6652 24.3858 77.6652 25.5958 77.6652 26.7987C77.6652 27.0295 77.3018 27.3023 77.0432 27.4562C74.563 28.8552 71.701 29.4261 68.8744 29.0857C65.8284 28.9452 62.9514 27.6468 60.8313 25.4559C55.369 19.7069 57.7611 10.2302 65.3845 7.53752C67.3154 6.80838 69.3845 6.51917 71.4411 6.69098C73.4977 6.86279 75.4908 7.4913 77.2737 8.53067C77.4727 8.60826 77.6384 8.75243 77.7431 8.93865C77.8479 9.1248 77.8846 9.34152 77.8472 9.55177C77.7425 10.517 77.7006 11.4891 77.6161 12.6781Z" fill="white"></path>
  <path d="M5.25826 19.1334V26.547C5.25826 28.6451 5.25826 28.6451 3.16014 28.6451H1.48159C1.48159 28.2675 1.43262 27.9457 1.43262 27.687C1.43262 21.2106 1.43262 14.7273 1.43262 8.24394C1.43262 7.43963 1.62145 7.15291 2.47474 7.18788C4.9995 7.28577 7.53127 7.26481 10.056 7.3627C11.4469 7.34915 12.788 7.8799 13.7929 8.84168C14.7979 9.80346 15.3869 11.12 15.4343 12.5102C15.5812 16.189 13.8677 18.483 10.5386 18.8817C8.81113 19.0565 7.09068 19.0425 5.25826 19.1334ZM5.47505 16.126C6.8109 16.0141 8.10477 15.9722 9.37763 15.7903C10.6505 15.6085 11.1261 14.9651 11.2939 13.6922C11.3981 13.1507 11.3308 12.5902 11.1014 12.0887C10.872 11.5873 10.4919 11.1699 10.0141 10.8946C8.56186 10.3696 7.00045 10.2204 5.47505 10.461V16.126Z" fill="white"></path>
  <path d="M36.6605 0.80957H11.8883V4.63525H36.6605V0.80957Z" fill="#FCC90F"></path>
  <path d="M43.1436 0.80957H36.6533V4.63525H43.1436V0.80957Z" fill="#EBE80A"></path>
  <path d="M52.5224 0.80957H43.1506V4.63525H52.5224V0.80957Z" fill="#FFFF00"></path>
  <path d="M62.3209 0.80957H58.4951V4.63525H62.3209V0.80957Z" fill="#FFCF00"></path>
  <path d="M66.1466 0.80957H62.3208V4.63525H66.1466V0.80957Z" fill="#FFFF00"></path>
  <path d="M97.6191 0.80957H92.8347V4.63525H97.6191V0.80957Z" fill="#94CF00"></path>
  <path d="M92.8346 0.80957H66.1465V4.63525H92.8346V0.80957Z" fill="#E0FF19"></path>
  <path d="M11.8886 0.80957H1.40479V4.63525H11.8886V0.80957Z" fill="#FF602E"></path>
</svg>
