<?xml version="1.0" encoding="UTF-8"?>
<svg xmlns="http://www.w3.org/2000/svg" width="24" height="24" viewBox="0 0 24 24" fill="none">
  <rect width="24" height="24" rx="12" fill="#3F5BEB"></rect>
  <path d="M17.6255 5.3999H6.37432C6.11589 5.3999 5.86804 5.50256 5.6853 5.6853C5.50256 5.86804 5.3999 6.11589 5.3999 6.37432V17.6255C5.3999 17.8839 5.50256 18.1318 5.6853 18.3145C5.86804 18.4972 6.11589 18.5999 6.37432 18.5999H17.6255C17.8839 18.5999 18.1318 18.4972 18.3145 18.3145C18.4972 18.1318 18.5999 17.8839 18.5999 17.6255V6.37432C18.5999 6.11589 18.4972 5.86804 18.3145 5.6853C18.1318 5.50256 17.8839 5.3999 17.6255 5.3999ZM9.33424 16.6447H7.34965V10.3407H9.33424V16.6447ZM8.34057 9.46715C8.11545 9.46588 7.89576 9.39796 7.70921 9.27195C7.52266 9.14594 7.37761 8.96749 7.29238 8.75913C7.20716 8.55077 7.18556 8.32183 7.23032 8.1012C7.27508 7.88058 7.38419 7.67815 7.54389 7.51948C7.70358 7.36081 7.9067 7.253 8.12761 7.20966C8.34852 7.16631 8.57731 7.18938 8.78513 7.27594C8.99294 7.36251 9.17045 7.50869 9.29526 7.69605C9.42007 7.8834 9.48658 8.10353 9.4864 8.32865C9.48853 8.47937 9.46028 8.62897 9.40336 8.76854C9.34643 8.90812 9.26199 9.0348 9.15507 9.14104C9.04814 9.24728 8.92092 9.33091 8.78099 9.38694C8.64105 9.44296 8.49127 9.47024 8.34057 9.46715ZM16.6492 16.6502H14.6656V13.2062C14.6656 12.1906 14.2338 11.8771 13.6765 11.8771C13.088 11.8771 12.5105 12.3207 12.5105 13.2319V16.6502H10.5259V10.3453H12.4344V11.2189H12.4601C12.6517 10.8312 13.3227 10.1684 14.3466 10.1684C15.4539 10.1684 16.6502 10.8257 16.6502 12.7507L16.6492 16.6502Z" fill="white"></path>
</svg>
