<?xml version="1.0" encoding="UTF-8"?>
<svg xmlns="http://www.w3.org/2000/svg" width="24" height="24" viewBox="0 0 24 24" fill="none">
  <rect width="24" height="24" rx="12" fill="#3F5BEB"></rect>
  <path d="M12.0017 6.09788C13.9256 6.09788 14.1514 6.10645 14.9119 6.14076C15.6151 6.1722 15.9953 6.28941 16.2497 6.38946C16.587 6.52096 16.8272 6.67533 17.0787 6.92689C17.3303 7.17845 17.4875 7.41858 17.6161 7.7559C17.7133 8.01032 17.8334 8.39052 17.8648 9.09375C17.8991 9.85415 17.9077 10.08 17.9077 12.0039C17.9077 13.9277 17.8991 14.1536 17.8648 14.914C17.8334 15.6172 17.7162 15.9974 17.6161 16.2518C17.4846 16.5891 17.3303 16.8293 17.0787 17.0808C16.8272 17.3324 16.587 17.4896 16.2497 17.6183C15.9953 17.7155 15.6151 17.8355 14.9119 17.867C14.1514 17.9013 13.9256 17.9098 12.0017 17.9098C10.0779 17.9098 9.85203 17.9013 9.09163 17.867C8.3884 17.8355 8.00819 17.7183 7.75377 17.6183C7.41645 17.4868 7.17633 17.3324 6.92476 17.0808C6.6732 16.8293 6.51598 16.5891 6.38734 16.2518C6.29014 15.9974 6.17008 15.6172 6.13863 14.914C6.10433 14.1536 6.09575 13.9277 6.09575 12.0039C6.09575 10.08 6.10433 9.85415 6.13863 9.09375C6.17008 8.39052 6.28728 8.01032 6.38734 7.7559C6.51883 7.41858 6.6732 7.17845 6.92476 6.92689C7.17633 6.67533 7.41645 6.5181 7.75377 6.38946C8.00819 6.29227 8.3884 6.1722 9.09163 6.14076C9.85203 6.1036 10.0807 6.09788 12.0017 6.09788ZM12.0017 4.80005C10.0464 4.80005 9.80057 4.80862 9.03159 4.84293C8.26547 4.87723 7.74234 5.00015 7.28495 5.17739C6.81042 5.36035 6.41021 5.60905 6.00999 6.00926C5.60978 6.40947 5.36394 6.81254 5.17812 7.28422C5.00089 7.74161 4.87796 8.26474 4.84366 9.03372C4.80936 9.79984 4.80078 10.0457 4.80078 12.001C4.80078 13.9563 4.80936 14.2022 4.84366 14.9711C4.87796 15.7373 5.00089 16.2604 5.17812 16.7206C5.36108 17.1952 5.60978 17.5954 6.00999 17.9956C6.41021 18.3958 6.81328 18.6417 7.28495 18.8275C7.74234 19.0047 8.26547 19.1276 9.03445 19.1619C9.80343 19.1962 10.0464 19.2048 12.0046 19.2048C13.9628 19.2048 14.2058 19.1962 14.9747 19.1619C15.7409 19.1276 16.264 19.0047 16.7242 18.8275C17.1988 18.6445 17.599 18.3958 17.9992 17.9956C18.3994 17.5954 18.6453 17.1923 18.8311 16.7206C19.0083 16.2633 19.1312 15.7401 19.1655 14.9711C19.1998 14.2022 19.2084 13.9592 19.2084 12.001C19.2084 10.0428 19.1998 9.79984 19.1655 9.03086C19.1312 8.26474 19.0083 7.74161 18.8311 7.28136C18.6481 6.80682 18.3994 6.40661 17.9992 6.0064C17.599 5.60619 17.1959 5.36035 16.7242 5.17453C16.2669 4.9973 15.7437 4.87437 14.9747 4.84007C14.2029 4.80862 13.9571 4.80005 12.0017 4.80005Z" fill="white"></path>
  <path d="M12.0017 6.09788C13.9256 6.09788 14.1514 6.10645 14.9119 6.14076C15.6151 6.1722 15.9953 6.28941 16.2497 6.38946C16.587 6.52096 16.8272 6.67533 17.0787 6.92689C17.3303 7.17845 17.4875 7.41858 17.6161 7.7559C17.7133 8.01032 17.8334 8.39052 17.8648 9.09375C17.8991 9.85415 17.9077 10.08 17.9077 12.0039C17.9077 13.9277 17.8991 14.1536 17.8648 14.914C17.8334 15.6172 17.7162 15.9974 17.6161 16.2518C17.4846 16.5891 17.3303 16.8293 17.0787 17.0808C16.8272 17.3324 16.587 17.4896 16.2497 17.6183C15.9953 17.7155 15.6151 17.8355 14.9119 17.867C14.1514 17.9013 13.9256 17.9098 12.0017 17.9098C10.0779 17.9098 9.85203 17.9013 9.09163 17.867C8.3884 17.8355 8.00819 17.7183 7.75377 17.6183C7.41645 17.4868 7.17633 17.3324 6.92476 17.0808C6.6732 16.8293 6.51598 16.5891 6.38734 16.2518C6.29014 15.9974 6.17008 15.6172 6.13863 14.914C6.10433 14.1536 6.09575 13.9277 6.09575 12.0039C6.09575 10.08 6.10433 9.85415 6.13863 9.09375C6.17008 8.39052 6.28728 8.01032 6.38734 7.7559C6.51883 7.41858 6.6732 7.17845 6.92476 6.92689C7.17633 6.67533 7.41645 6.5181 7.75377 6.38946C8.00819 6.29227 8.3884 6.1722 9.09163 6.14076C9.85203 6.1036 10.0807 6.09788 12.0017 6.09788Z" fill="white"></path>
  <path d="M12.0018 8.30469C9.96075 8.30469 8.30273 9.95985 8.30273 12.0038C8.30273 14.0477 9.9579 15.7029 12.0018 15.7029C14.0458 15.7029 15.7009 14.0477 15.7009 12.0038C15.7009 9.95985 14.0458 8.30469 12.0018 8.30469ZM12.0018 14.4022C10.6754 14.4022 9.60056 13.3273 9.60056 12.0009C9.60056 10.6745 10.6754 9.59966 12.0018 9.59966C13.3283 9.59966 14.4031 10.6745 14.4031 12.0009C14.4031 13.3273 13.3283 14.4022 12.0018 14.4022Z" fill="#3F5BEB"></path>
  <path d="M15.8467 9.01935C16.3235 9.01935 16.71 8.63283 16.71 8.15604C16.71 7.67924 16.3235 7.29272 15.8467 7.29272C15.3699 7.29272 14.9834 7.67924 14.9834 8.15604C14.9834 8.63283 15.3699 9.01935 15.8467 9.01935Z" fill="#3F5BEB"></path>
</svg>
