<?xml version="1.0" encoding="UTF-8"?>
<svg xmlns="http://www.w3.org/2000/svg" width="112" height="25" viewBox="0 0 112 25" fill="none">
  <path d="M80.06 12.2044C79.92 14.2444 79.52 16.0244 78.86 17.5444C78.2 19.0444 77.4 20.3044 76.46 21.3244C75.54 22.3444 74.54 23.1044 73.46 23.6044C72.4 24.1044 71.39 24.3544 70.43 24.3544C69.69 24.3544 68.98 24.1944 68.3 23.8744C67.64 23.5544 67.06 23.0744 66.56 22.4344C66.08 21.7744 65.7 20.9544 65.42 19.9744C65.14 18.9944 65 17.8444 65 16.5244C65 13.9444 65.37 11.6944 66.11 9.77438C66.85 7.85438 67.78 6.25438 68.9 4.97438C70.04 3.69438 71.25 2.74438 72.53 2.12438C73.83 1.50438 75.04 1.19438 76.16 1.19438C76.96 1.19438 77.65 1.33438 78.23 1.61438C78.83 1.89438 79.32 2.27438 79.7 2.75438C80.08 3.21438 80.35 3.76438 80.51 4.40438C80.69 5.02438 80.78 5.68438 80.78 6.38438L76.67 7.16438C76.49 6.36438 76.25 5.79438 75.95 5.45438C75.65 5.11438 75.31 4.94438 74.93 4.94438C74.43 4.94438 73.88 5.30438 73.28 6.02438C72.68 6.72438 72.12 7.63438 71.6 8.75438C71.08 9.87438 70.64 11.1044 70.28 12.4444C69.92 13.7844 69.72 15.1044 69.68 16.4044C69.68 17.6444 69.86 18.5344 70.22 19.0744C70.6 19.5944 71.08 19.8544 71.66 19.8544C72.06 19.8544 72.47 19.7544 72.89 19.5544C73.33 19.3544 73.72 19.0744 74.06 18.7144C74.4 18.3344 74.68 17.9044 74.9 17.4244C75.14 16.9244 75.27 16.3844 75.29 15.8044L72.08 16.2844L72.65 13.3144C73.59 13.1944 74.51 13.0744 75.41 12.9544C76.17 12.8544 76.97 12.7344 77.81 12.5944C78.67 12.4544 79.42 12.3244 80.06 12.2044Z" fill="#FED402"></path>
  <path d="M79.5507 23.6644L83.4807 2.33438L92.9607 1.52438C92.8207 1.96438 92.7007 2.41438 92.6007 2.87438C92.5007 3.25438 92.4007 3.65438 92.3007 4.07438C92.2207 4.47438 92.1507 4.83438 92.0907 5.15438C91.8907 5.17438 91.6007 5.19438 91.2207 5.21438C90.8607 5.21438 90.4707 5.22438 90.0507 5.24438C89.6307 5.24438 89.2007 5.24438 88.7607 5.24438C88.3407 5.24438 87.9707 5.24438 87.6507 5.24438L86.6007 10.6144C87.2207 10.5744 87.8007 10.5444 88.3407 10.5244C88.7807 10.5044 89.2307 10.4944 89.6907 10.4944C90.1507 10.4944 90.4907 10.4844 90.7107 10.4644C90.6307 11.0244 90.5507 11.5744 90.4707 12.1144C90.4107 12.6544 90.3307 13.2044 90.2307 13.7644C90.0307 13.7844 89.7007 13.8044 89.2407 13.8244C88.8007 13.8244 88.3507 13.8344 87.8907 13.8544C87.3707 13.8744 86.8007 13.8944 86.1807 13.9144L85.1607 19.4344L89.5407 18.7444L89.2407 22.1644L79.5507 23.6644Z" fill="#FED402"></path>
  <path d="M89.2353 23.4544C90.1153 20.7944 90.9553 18.1844 91.7553 15.6244C92.0953 14.5444 92.4453 13.4144 92.8053 12.2344C93.1653 11.0544 93.5253 9.88438 93.8853 8.72438C94.2453 7.56438 94.5753 6.44438 94.8753 5.36438C95.1953 4.28438 95.4753 3.28438 95.7153 2.36438C96.8153 2.36438 97.8553 2.30438 98.8353 2.18438C99.8153 2.06438 100.875 1.95438 102.015 1.85438C101.955 2.29438 101.885 2.79437 101.805 3.35437C101.745 3.89438 101.665 4.46438 101.565 5.06438C101.485 5.66438 101.395 6.28438 101.295 6.92438C101.195 7.56438 101.075 8.38438 100.935 9.38438C100.795 10.3844 100.605 11.6344 100.365 13.1344H100.755C101.335 11.6144 101.815 10.3544 102.195 9.35438C102.575 8.33438 102.885 7.50438 103.125 6.86438C103.365 6.22438 103.605 5.60438 103.845 5.00437C104.105 4.38438 104.345 3.80438 104.565 3.26438C104.805 2.70438 105.025 2.21438 105.225 1.79438C105.725 1.75438 106.195 1.70438 106.635 1.64438C107.075 1.58438 107.515 1.52438 107.955 1.46438C108.395 1.38438 108.835 1.31438 109.275 1.25438C109.735 1.17437 110.235 1.08437 110.775 0.984375C110.575 2.14438 110.385 3.33438 110.205 4.55438C110.025 5.77438 109.865 6.99438 109.725 8.21438C109.585 9.41438 109.445 10.6044 109.305 11.7844C109.185 12.9644 109.075 14.0844 108.975 15.1444C108.735 17.6244 108.525 20.0444 108.345 22.4044L103.125 23.3344C103.125 23.2344 103.135 22.9644 103.155 22.5244C103.195 22.0844 103.235 21.5444 103.275 20.9044C103.335 20.2644 103.405 19.5544 103.485 18.7744C103.585 17.9944 103.675 17.2144 103.755 16.4344C103.855 15.6544 103.955 14.9044 104.055 14.1844C104.155 13.4444 104.255 12.8144 104.355 12.2944H104.085C103.805 13.1344 103.495 14.0244 103.155 14.9644C102.815 15.8844 102.465 16.8244 102.105 17.7844C101.765 18.7444 101.425 19.6844 101.085 20.6044C100.745 21.5244 100.445 22.4044 100.185 23.2444C99.4853 23.2644 98.8853 23.2944 98.3853 23.3344C97.8853 23.3544 97.3053 23.3844 96.6453 23.4244L97.6053 12.2944H97.1553C97.1153 12.5544 97.0153 12.9944 96.8553 13.6144C96.6953 14.2144 96.5053 14.9144 96.2853 15.7144C96.0853 16.4944 95.8653 17.3144 95.6253 18.1744C95.3853 19.0144 95.1553 19.8044 94.9353 20.5444C94.7353 21.2644 94.5653 21.8644 94.4253 22.3444C94.2853 22.8044 94.2053 23.0644 94.1853 23.1244L89.2353 23.4544Z" fill="#FED402"></path>
  <path d="M12.87 16.5739C12.87 17.6939 12.65 18.7139 12.21 19.6339C11.79 20.5339 11.21 21.3139 10.47 21.9739C9.75 22.6339 8.89 23.1439 7.89 23.5039C6.91 23.8639 5.85 24.0439 4.71 24.0439C3.91 24.0439 3.11 23.8339 2.31 23.4139C1.51 22.9739 0.74 22.2839 0 21.3439L2.22 16.9939C2.36 17.2539 2.57 17.5239 2.85 17.8039C3.13 18.0639 3.44 18.2939 3.78 18.4939C4.14 18.6939 4.49 18.8639 4.83 19.0039C5.19 19.1239 5.51 19.1839 5.79 19.1839C6.03 19.1839 6.28 19.1439 6.54 19.0639C6.8 18.9839 7.04 18.8639 7.26 18.7039C7.48 18.5439 7.65 18.3639 7.77 18.1639C7.91 17.9439 7.98 17.6939 7.98 17.4139C7.98 16.9339 7.82 16.4939 7.5 16.0939C7.2 15.6739 6.82 15.2839 6.36 14.9239C5.9 14.5439 5.4 14.1639 4.86 13.7839C4.32 13.4039 3.82 13.0039 3.36 12.5839C2.92 12.1639 2.54 11.6939 2.22 11.1739C1.9 10.6539 1.74 10.0739 1.74 9.43395C1.74 8.39395 2.05 7.42395 2.67 6.52395C3.29 5.62395 4.06 4.85395 4.98 4.21394C5.92 3.55395 6.94 3.03395 8.04 2.65395C9.14 2.27395 10.18 2.08395 11.16 2.08395C11.7 2.08395 12.21 2.15395 12.69 2.29394C13.17 2.41395 13.58 2.62395 13.92 2.92395C14.28 3.20395 14.56 3.56395 14.76 4.00395C14.98 4.44394 15.09 4.99395 15.09 5.65395C15.09 5.93395 15.06 6.21395 15 6.49395C14.96 6.77395 14.92 7.07395 14.88 7.39394L10.53 8.65394C10.57 8.49394 10.6 8.33394 10.62 8.17395C10.66 8.01395 10.68 7.85395 10.68 7.69394C10.68 7.09395 10.57 6.66395 10.35 6.40394C10.15 6.12395 9.88 5.98395 9.54 5.98395C9.38 5.98395 9.18 6.04395 8.94 6.16394C8.72 6.28395 8.49 6.44395 8.25 6.64395C8.03 6.82395 7.84 7.04395 7.68 7.30394C7.52 7.56394 7.44 7.84395 7.44 8.14395C7.44 8.62395 7.57 9.02394 7.83 9.34394C8.11 9.66394 8.45 9.96395 8.85 10.2439C9.25 10.5239 9.68 10.8139 10.14 11.1139C10.62 11.3939 11.06 11.7639 11.46 12.2239C11.86 12.6839 12.19 13.2639 12.45 13.9639C12.73 14.6439 12.87 15.5139 12.87 16.5739Z" fill="white"></path>
  <path d="M21.3506 23.0239C20.7306 23.0239 20.0706 23.0439 19.3706 23.0839C18.6906 23.1239 18.0006 23.1839 17.3006 23.2639C16.6006 23.3439 15.9106 23.4539 15.2306 23.5939C14.5706 23.7139 13.9706 23.8639 13.4306 24.0439C13.5506 23.1439 13.6906 22.1439 13.8506 21.0439C14.0106 19.9439 14.1906 18.8039 14.3906 17.6239C14.6106 16.4439 14.8206 15.2539 15.0206 14.0539C15.2406 12.8539 15.4606 11.7039 15.6806 10.6039C16.1806 7.98395 16.7106 5.31394 17.2706 2.59394L22.5206 1.90394C21.9806 4.22395 21.4606 6.48395 20.9606 8.68394C20.7406 9.62395 20.5206 10.6039 20.3006 11.6239C20.0806 12.6239 19.8706 13.6039 19.6706 14.5639C19.4706 15.5239 19.2906 16.4539 19.1306 17.3539C18.9706 18.2539 18.8406 19.0539 18.7406 19.7539C19.2406 19.7139 19.7706 19.6939 20.3306 19.6939C20.9106 19.6739 21.4206 19.6639 21.8606 19.6639C21.8806 20.0439 21.9106 20.4239 21.9506 20.8039C21.9906 21.1639 22.0306 21.4939 22.0706 21.7939C22.1306 22.0939 22.1706 22.3639 22.1906 22.6039C22.2306 22.8239 22.2606 22.9739 22.2806 23.0539C22.1206 23.0539 21.9606 23.0539 21.8006 23.0539C21.6606 23.0339 21.5106 23.0239 21.3506 23.0239Z" fill="white"></path>
  <path d="M39.5234 7.75395C39.5234 9.39395 39.3434 10.9439 38.9834 12.4039C38.6434 13.8439 38.1834 15.1739 37.6034 16.3939C37.0234 17.5939 36.3434 18.6739 35.5634 19.6339C34.8034 20.5739 34.0034 21.3839 33.1634 22.0639C32.3234 22.7239 31.4734 23.2339 30.6134 23.5939C29.7534 23.9339 28.9334 24.1039 28.1534 24.1039C27.4934 24.1039 26.8934 23.9839 26.3534 23.7439C25.8134 23.4839 25.3434 23.1139 24.9434 22.6339C24.5434 22.1339 24.2234 21.5039 23.9834 20.7439C23.7634 19.9639 23.6534 19.0339 23.6534 17.9539C23.6534 16.8339 23.7934 15.6539 24.0734 14.4139C24.3534 13.1739 24.7334 11.9439 25.2134 10.7239C25.6934 9.50394 26.2834 8.34395 26.9834 7.24395C27.6834 6.14394 28.4534 5.17395 29.2934 4.33395C30.1334 3.47395 31.0334 2.79395 31.9934 2.29394C32.9534 1.79395 33.9534 1.54395 34.9934 1.54395C35.8934 1.54395 36.6334 1.73395 37.2134 2.11395C37.8134 2.47395 38.2734 2.95395 38.5934 3.55394C38.9334 4.13395 39.1734 4.79395 39.3134 5.53395C39.4534 6.27395 39.5234 7.01395 39.5234 7.75395ZM28.1234 17.1739C28.1234 17.3939 28.1634 17.6239 28.2434 17.8639C28.3234 18.1039 28.4334 18.3139 28.5734 18.4939C28.7134 18.6739 28.8834 18.8339 29.0834 18.9739C29.3034 19.0939 29.5334 19.1539 29.7734 19.1539C30.6734 19.1539 31.4734 18.8439 32.1734 18.2239C32.8734 17.6039 33.4534 16.8439 33.9134 15.9439C34.3734 15.0439 34.7234 14.0839 34.9634 13.0639C35.2234 12.0439 35.3534 11.1139 35.3534 10.2739C35.3534 10.0339 35.3334 9.77395 35.2934 9.49395C35.2734 9.21395 35.2134 8.95395 35.1134 8.71395C35.0334 8.47395 34.8934 8.27394 34.6934 8.11394C34.5134 7.93394 34.2634 7.84394 33.9434 7.84394C33.3034 7.84394 32.7134 8.00394 32.1734 8.32395C31.6334 8.64394 31.1434 9.07395 30.7034 9.61395C30.2834 10.1339 29.9134 10.7339 29.5934 11.4139C29.2734 12.0739 28.9934 12.7539 28.7534 13.4539C28.5334 14.1339 28.3734 14.8039 28.2734 15.4639C28.1734 16.1239 28.1234 16.6939 28.1234 17.1739Z" fill="white"></path>
  <path d="M40.8183 24.0139C41.2783 21.8139 41.7183 19.6439 42.1383 17.5039C42.3183 16.6039 42.4983 15.6639 42.6783 14.6839C42.8583 13.7039 43.0283 12.7439 43.1883 11.8039C43.3683 10.8439 43.5183 9.92395 43.6383 9.04395C43.7783 8.14394 43.8983 7.32395 43.9983 6.58394C43.5383 6.52395 43.0683 6.50395 42.5883 6.52395C42.1283 6.54395 41.6683 6.48395 41.2083 6.34395C41.2283 6.02395 41.2383 5.65394 41.2383 5.23395C41.2383 4.81395 41.2483 4.39394 41.2683 3.97394C41.2883 3.51394 41.3083 3.02394 41.3283 2.50395C41.8483 2.54394 42.3683 2.57394 42.8883 2.59394C43.4083 2.61395 43.9283 2.62395 44.4483 2.62395C45.4683 2.62395 46.4483 2.60395 47.3883 2.56394C48.3483 2.50395 49.2283 2.44395 50.0283 2.38395C50.8483 2.30395 51.6483 2.21395 52.4283 2.11395L52.0983 3.73395C51.9983 4.19395 51.8983 4.66395 51.7983 5.14395C51.7183 5.62395 51.6383 6.03395 51.5583 6.37395C51.1183 6.49395 50.6683 6.58395 50.2083 6.64395C49.7683 6.68395 49.3283 6.74395 48.8883 6.82395C48.7483 7.50394 48.5983 8.26394 48.4383 9.10394C48.2783 9.92394 48.1183 10.7839 47.9583 11.6839C47.8183 12.5639 47.6783 13.4639 47.5383 14.3839C47.3983 15.3039 47.2583 16.1839 47.1183 17.0239C46.7983 19.0039 46.4983 21.0539 46.2183 23.1739L40.8183 24.0139Z" fill="white"></path>
  <path d="M62.8774 16.5739C62.8774 17.6939 62.6574 18.7139 62.2174 19.6339C61.7974 20.5339 61.2174 21.3139 60.4774 21.9739C59.7574 22.6339 58.8974 23.1439 57.8974 23.5039C56.9174 23.8639 55.8574 24.0439 54.7174 24.0439C53.9174 24.0439 53.1174 23.8339 52.3174 23.4139C51.5174 22.9739 50.7474 22.2839 50.0074 21.3439L52.2274 16.9939C52.3674 17.2539 52.5774 17.5239 52.8574 17.8039C53.1374 18.0639 53.4474 18.2939 53.7874 18.4939C54.1474 18.6939 54.4974 18.8639 54.8374 19.0039C55.1974 19.1239 55.5174 19.1839 55.7974 19.1839C56.0374 19.1839 56.2874 19.1439 56.5474 19.0639C56.8074 18.9839 57.0474 18.8639 57.2674 18.7039C57.4874 18.5439 57.6574 18.3639 57.7774 18.1639C57.9174 17.9439 57.9874 17.6939 57.9874 17.4139C57.9874 16.9339 57.8274 16.4939 57.5074 16.0939C57.2074 15.6739 56.8274 15.2839 56.3674 14.9239C55.9074 14.5439 55.4074 14.1639 54.8674 13.7839C54.3274 13.4039 53.8274 13.0039 53.3674 12.5839C52.9274 12.1639 52.5474 11.6939 52.2274 11.1739C51.9074 10.6539 51.7474 10.0739 51.7474 9.43395C51.7474 8.39395 52.0574 7.42395 52.6774 6.52395C53.2974 5.62395 54.0674 4.85395 54.9874 4.21394C55.9274 3.55395 56.9474 3.03395 58.0474 2.65395C59.1474 2.27395 60.1874 2.08395 61.1674 2.08395C61.7074 2.08395 62.2174 2.15395 62.6974 2.29394C63.1774 2.41395 63.5874 2.62395 63.9274 2.92395C64.2874 3.20395 64.5674 3.56395 64.7674 4.00395C64.9874 4.44394 65.0974 4.99395 65.0974 5.65395C65.0974 5.93395 65.0674 6.21395 65.0074 6.49395C64.9674 6.77395 64.9274 7.07395 64.8874 7.39394L60.5374 8.65394C60.5774 8.49394 60.6074 8.33394 60.6274 8.17395C60.6674 8.01395 60.6874 7.85395 60.6874 7.69394C60.6874 7.09395 60.5774 6.66395 60.3574 6.40394C60.1574 6.12395 59.8874 5.98395 59.5474 5.98395C59.3874 5.98395 59.1874 6.04395 58.9474 6.16394C58.7274 6.28395 58.4974 6.44395 58.2574 6.64395C58.0374 6.82395 57.8474 7.04395 57.6874 7.30394C57.5274 7.56394 57.4474 7.84395 57.4474 8.14395C57.4474 8.62395 57.5774 9.02394 57.8374 9.34394C58.1174 9.66394 58.4574 9.96395 58.8574 10.2439C59.2574 10.5239 59.6874 10.8139 60.1474 11.1139C60.6274 11.3939 61.0674 11.7639 61.4674 12.2239C61.8674 12.6839 62.1974 13.2639 62.4574 13.9639C62.7374 14.6439 62.8774 15.5139 62.8774 16.5739Z" fill="white"></path>
</svg>
