<svg width="24" height="24" viewBox="0 0 24 24" fill="none" xmlns="http://www.w3.org/2000/svg">
    <g clip-path="url(#clip0_2011_15100)">
        <path d="M18.641 16.3581L7.6692 5.38623C7.19069 4.90772 6.4149 4.90772 5.93714 5.38623L5.35888 5.96358C4.88037 6.44224 4.88037 7.21803 5.35888 7.69579L16.3307 18.6676C16.8094 19.1461 17.5852 19.1461 18.0629 18.6676L18.6403 18.0903C19.1197 17.6125 19.1197 16.8366 18.641 16.3581Z" fill="#DE0000"/>
        <path d="M16.3307 5.38612L5.35888 16.3579C4.88037 16.8364 4.88037 17.6124 5.35888 18.0902L5.93624 18.6675C6.4149 19.146 7.19069 19.146 7.66845 18.6675L18.641 7.69643C19.1197 7.21792 19.1197 6.44213 18.641 5.96437L18.0637 5.38701C17.5852 4.9076 16.8094 4.9076 16.3307 5.38612Z" fill="#DE0000"/>
    </g>
    <defs>
        <clipPath id="clip0_2011_15100">
            <rect width="14" height="14" fill="white" transform="translate(5 5)"/>
        </clipPath>
    </defs>
</svg>
