<svg width="20" height="20" viewBox="0 0 20 20" fill="none" xmlns="http://www.w3.org/2000/svg">
  <g clip-path="url(#a)">
    <path d="m14.154 17.842-.28 1.142a54 54 0 0 1-2.006.756q-.75.26-1.74.26-1.523-.001-2.368-.742-.844-.743-.844-1.887 0-.443.062-.907.064-.465.205-1.048l1.047-3.709q.141-.532.236-1.01.097-.474.096-.868 0-.712-.294-.991-.292-.28-1.12-.28-.407 0-.833.127-.427.127-.733.241l.28-1.143q1.028-.42 1.97-.717.94-.3 1.781-.3 1.513 0 2.332.732.819.73.819 1.898 0 .242-.056.85a5.7 5.7 0 0 1-.21 1.12l-1.044 3.693a10 10 0 0 0-.229 1.017q-.103.571-.102.863 0 .735.329 1.003.33.267 1.141.267.381 0 .863-.133a5 5 0 0 0 .698-.234m.264-15.506q.001.966-.73 1.645a2.48 2.48 0 0 1-1.757.68 2.5 2.5 0 0 1-1.766-.68q-.736-.68-.737-1.645 0-.965.737-1.65A2.5 2.5 0 0 1 11.93 0q1.028 0 1.757.685.731.688.73 1.65" fill="#6245d9"/>
  </g>
  <defs>
    <clipPath id="a">
      <path fill="#fff" d="M0 0h20v20H0z"/>
    </clipPath>
  </defs>
</svg>
