<svg width="20px" height="20px" viewBox="0 0 0.6 0.6" fill="none" xmlns="http://www.w3.org/2000/svg"><path fill-rule="evenodd" clip-rule="evenodd" d="M0.525 0.207C0.555 0.228 0.575 0.261 0.575 0.3s-0.02 0.072 -0.05 0.093c0.006 0.036 -0.003 0.074 -0.031 0.101 -0.027 0.027 -0.065 0.036 -0.101 0.031C0.372 0.555 0.339 0.575 0.3 0.575c-0.039 0 -0.072 -0.02 -0.093 -0.05 -0.036 0.006 -0.074 -0.003 -0.101 -0.031 -0.027 -0.027 -0.036 -0.065 -0.03 -0.101C0.045 0.372 0.025 0.339 0.025 0.3s0.02 -0.072 0.05 -0.093c-0.006 -0.036 0.003 -0.074 0.03 -0.101 0.027 -0.027 0.065 -0.037 0.101 -0.031C0.228 0.045 0.261 0.025 0.3 0.025c0.039 0 0.072 0.02 0.093 0.05 0.036 -0.006 0.074 0.003 0.101 0.031s0.037 0.065 0.031 0.101m-0.111 -0.002a0.025 0.025 0 0 1 0.006 0.035l-0.125 0.175a0.025 0.025 0 0 1 -0.038 0.003l-0.075 -0.075a0.025 0.025 0 0 1 0.035 -0.035l0.054 0.054 0.108 -0.151a0.025 0.025 0 0 1 0.035 -0.006" fill="#009b42"/></svg>