<svg width="20" height="20" viewBox="0 0 20 20" fill="none" xmlns="http://www.w3.org/2000/svg">
<g transform="translate(0 6.66667)">
<path d="M1.45833 12.5H3.54167C4.34583 12.5 5 11.8458 5 11.0417V1.45833C5 0.654167 4.34583 0 3.54167 0H1.45833C0.654167 0 0 0.654167 0 1.45833V11.0417C0 11.8458 0.654167 12.5 1.45833 12.5Z" fill="#E10000"/>
</g>
<g transform="translate(6.25 0.624)">
<path d="M4.40083 0C3.5675 0 3.15083 0.416667 3.15083 2.5C3.15083 4.48 1.23333 6.07333 0 6.89417V17.2175C1.33417 17.835 4.005 18.75 8.15083 18.75H9.48417C11.1092 18.75 12.4925 17.5833 12.7675 15.9833L13.7008 10.5667C14.0508 8.525 12.4842 6.66667 10.4175 6.66667H6.48417C6.48417 6.66667 7.10917 5.41667 7.10917 3.33333C7.10917 0.833333 5.23417 0 4.40083 0Z" fill="#E10000"/>
</g>
</svg>
