<?xml version="1.0" encoding="UTF-8"?>
<svg xmlns="http://www.w3.org/2000/svg" width="58" height="28" viewBox="0 0 58 28" fill="none">
  <g clip-path="url(#clip0_331_6670)">
    <path d="M16.0307 8.0628C15.5516 8.60324 14.7849 9.0295 14.0182 8.9686C13.9224 8.23787 14.2978 7.46147 14.737 6.98192C15.2162 6.42626 16.0547 6.03045 16.7335 6C16.8134 6.76118 16.5019 7.50714 16.0307 8.0628ZM16.7255 9.11323C15.6155 9.05233 14.6651 9.71456 14.138 9.71456C13.603 9.71456 12.7964 9.14367 11.9179 9.1589C10.7759 9.17412 9.71373 9.79068 9.13074 10.7726C7.93282 12.7364 8.81928 15.6441 9.97727 17.2426C10.5443 18.0343 11.2231 18.902 12.1175 18.8716C12.9641 18.8411 13.2995 18.3463 14.3217 18.3463C15.3519 18.3463 15.6474 18.8716 16.5419 18.8563C17.4682 18.8411 18.0512 18.0647 18.6182 17.2731C19.2651 16.3749 19.5287 15.4995 19.5446 15.4539C19.5287 15.4386 17.7557 14.7916 17.7398 12.843C17.7238 11.2141 19.1373 10.4377 19.2012 10.392C18.4026 9.26546 17.1568 9.14367 16.7255 9.11323ZM23.1384 6.9058V18.7726H25.071V14.7155H27.7464C30.1901 14.7155 31.9071 13.117 31.9071 10.803C31.9071 8.48906 30.2221 6.9058 27.8103 6.9058H23.1384ZM25.071 8.45861H27.2991C28.9762 8.45861 29.9346 9.31113 29.9346 10.8107C29.9346 12.3102 28.9762 13.1703 27.2912 13.1703H25.071V8.45861ZM35.437 18.8639C36.6509 18.8639 37.7769 18.2778 38.288 17.3492H38.328V18.7726H40.1168V12.8658C40.1168 11.1532 38.6793 10.0495 36.4672 10.0495C34.4148 10.0495 32.8974 11.1684 32.8415 12.706H34.5825C34.7262 11.9753 35.437 11.4957 36.4113 11.4957C37.5932 11.4957 38.2561 12.0209 38.2561 12.9876V13.6422L35.8443 13.7793C33.6002 13.9087 32.3863 14.784 32.3863 16.3064C32.3863 17.844 33.6401 18.8639 35.437 18.8639ZM35.9561 17.4558C34.9259 17.4558 34.271 16.9838 34.271 16.2607C34.271 15.5147 34.9019 15.0809 36.1078 15.0124L38.2561 14.883V15.5528C38.2561 16.6641 37.2658 17.4558 35.9561 17.4558ZM42.5047 22C44.3894 22 45.2759 21.3149 46.0505 19.2369L49.4446 10.1637H47.48L45.204 17.1741H45.1641L42.888 10.1637H40.8675L44.1418 18.803L43.9662 19.3283C43.6707 20.2188 43.1915 20.5614 42.337 20.5614C42.1853 20.5614 41.8898 20.5461 41.77 20.5309V21.9543C41.8818 21.9848 42.3609 22 42.5047 22Z" fill="black"></path>
  </g>
  <defs>
    <clipPath id="clip0_331_6670">
      <rect width="40.8889" height="16" fill="white" transform="translate(8.55554 6)"></rect>
    </clipPath>
  </defs>
</svg>
