<?xml version="1.0" encoding="UTF-8"?>
<svg xmlns="http://www.w3.org/2000/svg" width="157" height="75" viewBox="0 0 157 75" fill="none">
  <rect width="157" height="75" fill="black"></rect>
  <g clip-path="url(#clip0_1_2)">
    <path d="M135.847 28.9432C135.657 29.5607 135.492 30.1036 135.294 30.7211C135.149 31.1689 134.862 31.4404 134.405 31.4675C133.636 31.4675 130.746 31.5014 129.901 31.5014C129.132 31.5489 128.687 31.9357 128.547 32.7432C128.331 33.9579 128.134 35.1793 127.931 36.4007C127.626 38.2261 127.327 40.0582 127.003 41.8836C126.812 42.9625 127.143 43.4171 128.159 43.4239C128.534 43.4239 128.909 43.4307 129.278 43.4171C130.11 43.3764 130.663 42.9082 130.847 42.0329C131.025 41.0693 131.127 40.4246 131.266 39.6239C131.298 39.4611 131.241 39.4 131.089 39.4068C130.828 39.4068 130.447 39.4136 130.192 39.4068C129.589 39.3796 129.519 39.1557 129.532 38.5246C129.538 37.9614 129.557 37.3982 129.551 36.835C129.551 36.6179 129.634 36.55 129.818 36.55C130.549 36.55 133.903 36.5771 134.291 36.5771C134.678 36.5771 134.901 36.8689 134.85 37.3236C134.786 37.8393 134.697 38.3482 134.615 38.8639L133.947 42.9489C133.789 43.9261 133.617 44.9032 133.465 45.8871C133.433 46.0907 133.369 46.1654 133.172 46.1586C132.709 46.145 132.239 46.1586 131.775 46.1518C131.19 46.1382 131.025 45.9618 130.974 45.3443C130.961 45.1814 130.942 44.9846 130.923 44.7811C130.911 44.6589 130.752 44.6386 130.676 44.7675C130.154 45.67 129.106 46.2739 128.363 46.3418C127.619 46.4096 126.908 46.3825 126.19 46.3418C125.364 46.2875 124.595 46.0432 124.042 45.3171C123.636 44.7879 123.496 44.1568 123.452 43.4986C123.394 42.6504 123.528 41.8225 123.661 40.9946C124.036 38.7214 124.411 36.4482 124.779 34.1682C124.938 33.1979 125.104 32.2343 125.497 31.3318C126.132 29.8864 127.194 29.045 128.649 28.7668C129.24 28.6582 129.843 28.6243 130.441 28.6039C131.152 28.5768 131.87 28.6039 132.588 28.6039H135.555C135.847 28.6039 135.942 28.6854 135.854 28.9907M33.745 30.9789C33.9231 32.3836 33.6375 33.7611 33.1037 35.0571C32.7662 35.8782 32.0994 36.5364 31.2862 36.7061C31.1087 36.74 30.9812 36.74 30.9944 36.9096C31.0006 37.0318 31.0637 37.0318 31.2544 37.0929C31.9025 37.3032 32.3856 37.7307 32.6394 38.4161C32.83 38.9318 32.8875 39.4746 32.83 40.0175C32.7094 41.1575 32.57 42.3043 32.2012 43.39C31.6675 44.9779 30.575 45.8464 29.0369 46.1111C27.8431 46.3146 26.6419 46.2129 25.4412 46.2332H21.4894C21.2794 46.2332 21.2287 46.1789 21.2669 45.955C21.5144 44.4961 21.7494 43.0371 21.985 41.5782C22.3912 39.0879 22.7975 36.5907 23.2044 34.1004L24.0437 28.9771C24.0756 28.7939 24.095 28.6514 24.3362 28.6582C26.5537 28.6786 28.7712 28.7193 30.9881 28.7193C32.5637 28.7193 33.5806 29.6082 33.7456 30.9721M28.2875 38.4432C27.5631 38.4432 26.9212 38.4432 26.235 38.4296C26.0444 38.4296 25.9556 38.4839 25.9237 38.6943C25.6825 40.1668 25.435 41.6325 25.1869 43.0982C25.1494 43.3086 25.2181 43.3696 25.4094 43.3696C26.07 43.3696 27.1881 43.3561 27.8619 43.3289C28.4144 43.3086 28.7956 42.9557 28.9231 42.3721C29.0756 41.6529 29.2662 40.4111 29.3869 39.685C29.5394 38.7486 29.0119 38.4364 28.2875 38.4364M29.3612 31.5286C28.7006 31.515 28.0331 31.5286 27.3725 31.515C27.1756 31.515 27.0994 31.5964 27.0675 31.7864C26.8644 33.0011 26.6612 34.2225 26.4512 35.4371C26.42 35.6136 26.47 35.6746 26.6356 35.6746C27.0869 35.6746 28.0525 35.6679 28.4975 35.6679C29.2787 35.6679 29.7425 35.2675 29.9331 34.46C30.0731 33.8629 30.1619 33.2454 30.2444 32.6346C30.3394 31.895 30.0537 31.5421 29.3612 31.5286ZM74.7956 28.6514C73.6969 28.6718 72.5975 28.6514 71.5044 28.7057C70.5962 28.7532 69.9231 29.2486 69.5225 30.1375C69.3381 30.5446 69.1662 30.9586 69.0075 31.3793C68.62 32.3971 68.1181 33.6254 67.7944 34.4396C67.6225 34.8807 67.4956 35.22 67.4319 35.4643C67.2856 35.9868 67.1587 36.4889 67.0444 36.9775C67.0131 37.0996 66.8281 37.0725 66.8281 36.9436C66.8281 36.8214 66.9106 35.6407 66.9106 35.4914C66.9231 35.1386 66.9362 34.8061 66.9106 34.2768C66.8412 32.9536 66.7331 31.6304 66.6062 30.3071C66.5231 29.425 66.1806 28.8821 65.31 28.7464C65.145 28.7193 64.9856 28.6854 64.8206 28.6854C63.8231 28.6718 62.8319 28.6718 61.8344 28.6582C61.6631 28.6582 61.6056 28.7329 61.5806 28.9093C61.4662 29.615 59.2231 43.1593 58.785 45.8193C58.7337 46.1246 58.8037 46.2264 59.1025 46.2332C59.9919 46.2332 61.4787 46.24 61.6881 46.24C61.8981 46.24 62.0381 46.1518 62.0819 45.8871C62.4062 43.8718 62.7175 41.8564 63.08 39.8479C63.3975 38.0768 63.6069 36.2921 63.715 34.4871C63.7594 33.8018 63.8169 33.1232 63.8869 32.4379C63.8931 32.3564 63.9819 32.2818 64.0262 32.2004C64.1025 32.275 64.1919 32.3361 64.255 32.4175C64.28 32.4514 64.2675 32.5261 64.2737 32.5804C64.3062 32.9536 64.3375 33.3268 64.3694 33.7068C64.5031 35.2946 64.6362 36.8757 64.7756 38.4636C64.8525 39.3593 64.935 40.2482 65.0175 41.1371C65.0556 41.5511 65.2081 41.7004 65.6019 41.7207C65.8819 41.7411 66.3706 41.7343 66.6631 41.7343C67.1012 41.7343 67.305 41.6461 67.4894 41.1846C67.8519 40.2686 71.0787 32.4921 71.1169 32.3836C71.1931 32.1936 71.5556 32.2546 71.4981 32.4786C71.2887 33.2996 71.0856 34.1207 70.8756 34.9418C70.6594 35.7968 70.4056 36.645 70.2469 37.5068C69.9094 39.3864 69.6237 41.2729 69.3125 43.1525C69.1475 44.1636 68.9125 45.5614 68.8744 45.8329C68.83 46.0975 68.9181 46.2129 69.135 46.2129C69.3506 46.2129 70.9075 46.2129 71.905 46.2196C72.1144 46.2196 72.14 46.05 72.1656 45.8871C72.4512 44.1568 74.7194 30.3479 74.9612 28.8889C74.9925 28.7125 74.9675 28.6446 74.7894 28.6446M59.1212 32.6618C58.8925 34.1682 57.8825 40.35 57.6087 41.9379C57.49 42.6366 57.2737 43.3116 56.9675 43.9396C56.3194 45.2629 55.2837 46.0296 53.93 46.2604C53.0987 46.4029 49.985 46.4096 49.2862 46.3418C48.9237 46.3079 48.5487 46.1925 48.2125 46.05C47.1894 45.6157 46.7125 44.7471 46.6175 43.6139C46.5475 42.7454 46.6619 41.8904 46.8019 41.0421C47.0494 39.5629 47.9519 34.1004 48.1806 32.8518C48.3587 31.9018 48.6762 30.9993 49.2419 30.2257C50.0044 29.1875 51.0525 28.6718 52.2469 28.5632C53.3081 28.4682 55.7281 28.5157 56.7387 28.6379C57.8381 28.7668 58.7781 29.4793 59.0575 30.6871C59.2106 31.3386 59.2231 32.0036 59.1275 32.6618M55.6462 32.4786C55.7156 31.7932 55.3981 31.4336 54.75 31.3996C54.1594 31.3725 53.5687 31.3725 52.9775 31.3996C52.3994 31.4268 51.9862 31.7457 51.79 32.3496C51.7244 32.5481 51.6752 32.7524 51.6431 32.9604L50.7281 38.4771C50.525 39.7257 50.3156 40.9811 50.1119 42.2296C49.985 43.01 50.3344 43.4714 51.0844 43.4986C51.3444 43.5054 52.3169 43.4986 52.5456 43.4986C53.4287 43.485 53.8987 43.0914 54.0644 42.1686C54.2675 41.0082 54.4519 39.8411 54.6425 38.6807C54.8644 37.3507 55.0869 36.0275 55.3031 34.6975C55.4237 33.9579 55.5631 33.2182 55.6394 32.4718M46.3444 30.6736C46.4969 31.325 46.5094 31.99 46.4144 32.6482C46.1856 34.1546 45.1756 40.3364 44.9019 41.9243C44.7831 42.6231 44.5669 43.2981 44.2606 43.9261C43.6125 45.2493 42.5769 46.0161 41.2231 46.2468C40.3912 46.3893 37.2775 46.3961 36.5794 46.3282C36.2169 46.2943 35.8419 46.1789 35.505 46.0364C34.4825 45.6021 34.0056 44.7336 33.9106 43.6004C33.8406 42.7318 33.9544 41.8768 34.0944 41.0286C34.3425 39.5493 35.2444 34.0868 35.4731 32.8382C35.6512 31.8882 35.9687 30.9857 36.5344 30.2121C37.2969 29.1739 38.345 28.6582 39.5394 28.5496C40.6006 28.4546 43.0212 28.5021 44.0319 28.6243C45.1306 28.7532 46.0712 29.4657 46.3506 30.6736M42.9325 32.4718C43.0025 31.7864 42.685 31.4268 42.0369 31.3929C41.4461 31.3657 40.8545 31.3657 40.2637 31.3929C39.6856 31.42 39.2731 31.7389 39.0762 32.3429C39.0125 32.5396 38.9612 32.7432 38.93 32.9536L38.015 38.4704C37.8112 39.7189 37.6019 40.9743 37.3987 42.2229C37.2712 43.0032 37.6206 43.4646 38.3706 43.4918C38.6312 43.4986 39.6031 43.4918 39.8319 43.4918C40.715 43.4782 41.185 43.0846 41.3506 42.1618C41.5537 41.0014 41.7381 39.8343 41.9287 38.6739C42.1512 37.3439 42.3731 36.0207 42.5894 34.6907C42.71 33.9511 42.85 33.2114 42.9262 32.465M107.326 29.3843C107.441 30.9179 108.019 39.0404 108.514 45.9007C108.533 46.1382 108.482 46.2061 108.26 46.1993C107.472 46.1857 106.684 46.1993 105.897 46.1993C105.211 46.1993 104.95 45.9075 104.918 45.1679C104.886 44.3739 104.848 43.5732 104.81 42.7793C104.791 42.4264 104.759 42.3857 104.416 42.3857H101.335C101.068 42.3857 100.916 42.4943 100.82 42.7589C100.509 43.6139 100.178 44.4621 99.8606 45.3104C99.6319 45.9211 99.2062 46.1993 98.6025 46.1993H93.6281C93.5069 46.1993 93.38 46.1789 93.2594 46.1654C92.6494 46.1246 92.37 45.7514 92.2237 45.1339C92.0712 44.4893 91.8612 43.7293 91.7537 43.2271C91.6644 42.7996 91.6775 42.6504 91.9887 42.3586C92.3062 42.0668 93.9644 40.5536 94.1931 40.35C94.4219 40.1464 94.6381 40.2482 94.74 40.635C94.9369 41.395 95.28 42.6911 95.5275 43.6275C95.7181 44.3264 95.9025 45.0254 96.0931 45.7243H96.1694C96.3919 45.1679 96.6206 44.6114 96.8425 44.055C98.7744 39.2304 102.618 29.6489 102.783 29.2418C102.949 28.8346 103.298 28.6175 103.736 28.6175C104.683 28.6175 105.623 28.6107 106.564 28.6175C107.078 28.6175 107.301 28.8482 107.339 29.3979M104.562 34.46C104.581 33.7746 104.677 32.56 104.677 32.4175C104.677 32.2818 104.461 32.2343 104.435 32.3768C104.41 32.5193 103.692 34.8468 103.298 36.0207C102.949 37.0725 102.554 38.1039 102.18 39.1489C102.046 39.5221 102.078 39.5764 102.434 39.5764H104.238C104.664 39.5764 104.689 39.5425 104.677 39.0743C104.639 37.9886 104.607 36.9096 104.562 35.695C104.562 35.3693 104.556 34.9146 104.562 34.46ZM123.553 28.6379H120.942C120.605 28.6379 120.472 28.8143 120.414 29.1671C120.147 30.8025 119.9 32.2682 119.633 33.8968C119.436 35.1046 119.194 36.3057 119.061 37.5271C118.89 39.0743 118.814 40.6825 118.737 42.2432C118.724 42.4604 118.432 42.4807 118.413 42.2296C117.987 36.7536 117.752 33.4421 117.479 29.8796C117.409 28.9907 117.034 28.6379 116.367 28.6379C115.459 28.6379 113.241 28.6514 112.707 28.6379C112.485 28.6311 112.409 28.7125 112.377 28.9432C112.288 29.6082 112.167 30.2732 112.059 30.9382C111.742 32.8654 109.842 44.4621 109.62 45.8329C109.556 46.2061 109.569 46.2061 109.912 46.2061H112.244C112.924 46.2061 112.911 46.2061 113.026 45.4936C113.235 44.15 114.15 38.8911 114.309 37.5882C114.467 36.2582 114.531 34.9214 114.632 33.5846C114.664 33.1979 114.677 32.8111 114.716 32.4243C114.734 32.2275 115.065 32.2479 115.071 32.4446C115.128 33.3811 115.217 34.5075 115.281 35.4439C115.402 37.2557 115.802 43.3696 115.897 44.6114C115.973 45.5614 116.399 46.0229 117.289 46.1314C117.606 46.1721 117.931 46.1993 118.248 46.1993C119.036 46.2061 119.824 46.1993 120.611 46.1993C120.967 46.1993 120.974 46.1993 121.037 45.8193C121.215 44.7404 123.426 31.1757 123.801 28.9364C123.846 28.6786 123.776 28.6311 123.559 28.6311M83.8244 35.8375H79.3131C79.0144 35.8375 79.0081 35.8375 79.0587 35.5254C79.2562 34.3175 79.4719 33.1096 79.6562 31.9018C79.7006 31.6168 79.815 31.5625 80.0625 31.5625C81.27 31.5693 82.7825 31.5625 83.6719 31.5625C84.5612 31.5625 83.7544 28.6311 83.3856 28.6311H77.1087C76.7019 28.6311 76.7087 28.6311 76.6319 29.0789C76.4606 30.1443 74.885 39.7393 74.6756 41.0693C74.5162 42.0396 74.3506 43.01 74.5731 44.0007C74.745 44.7404 75.12 45.3036 75.7487 45.6632C76.4925 46.0839 77.3112 46.1789 78.1312 46.1925C79.9425 46.2196 81.7594 46.1993 83.57 46.2061C83.7862 46.2061 83.8306 46.1179 83.8306 45.9211C83.8306 45.4121 83.8431 44.9032 83.8562 44.3943C83.875 43.4579 83.71 43.2746 82.8456 43.2746H79.3325C79.1048 43.2771 78.8774 43.2589 78.6525 43.2204C78.2269 43.1525 77.9981 42.8675 77.985 42.4061C77.985 42.1957 77.985 41.9854 78.0231 41.775C78.1694 40.825 78.3412 39.8818 78.4744 38.9318C78.5125 38.6468 78.6144 38.5721 78.8744 38.5789C80.095 38.5925 81.3206 38.5857 82.5406 38.5789C83.0806 38.5789 83.3919 38.3414 83.57 37.7918C83.7419 37.2625 84.0087 36.3804 84.0656 36.17C84.1162 35.9529 84.0275 35.8443 83.8181 35.8443M90.095 32.6143C89.4087 32.4311 88.5256 32.2954 87.9031 32.2275C87.56 32.1936 87.4012 32.2886 87.3569 32.5736C87.1087 34.175 86.5819 37.5204 86.315 39.1964C86.2325 39.7121 86.5756 39.6239 86.7787 39.4068C88.075 38.0225 89.6187 36.3668 89.86 36.0207C90.1019 35.6746 90.1781 35.5118 90.2606 35.0979C90.3431 34.6839 90.4381 33.8696 90.5206 33.3675C90.6037 32.8654 90.4637 32.7093 90.1019 32.6143" fill="white"></path>
    <path d="M85.4887 28.6582C85.0825 28.6854 84.9169 29.0043 85.025 29.615C85.1206 30.1511 85.4506 30.7279 86.0862 30.8296C88.005 31.1282 91.0037 31.6168 93.0881 32.0511C93.9456 32.2275 93.9775 32.5396 93.45 33.2318C91.8237 35.3829 89.0406 38.9861 86.01 42.5893C84.9869 43.8107 85.1012 44.8489 85.5019 45.6429C85.7431 46.1179 86.2325 46.2061 86.5056 45.9618C90.6037 42.2364 96.2075 36.7671 98.9587 32.9739C100.42 30.9654 100.064 28.9704 97.5287 28.7193C95.6294 28.5293 93.5519 28.4614 91.5437 28.4614C89.3075 28.4614 87.1662 28.5496 85.4762 28.6514" fill="url(#paint0_linear_1_2)"></path>
  </g>
  <defs>
    <linearGradient id="paint0_linear_1_2" x1="85.235" y1="46.2868" x2="101.593" y2="30.9962" gradientUnits="userSpaceOnUse">
      <stop stop-color="#00DDFF"></stop>
      <stop offset="0.486" stop-color="#BB33FF"></stop>
      <stop offset="0.84" stop-color="#FF0080"></stop>
    </linearGradient>
    <clipPath id="clip0_1_2">
      <rect width="115" height="19" fill="white" transform="translate(21 28)"></rect>
    </clipPath>
  </defs>
</svg>
