<?xml version="1.0" encoding="UTF-8" standalone="no"?>
<svg xmlns="http://www.w3.org/2000/svg" version="1.0" width="560.000000pt" height="560.000000pt" viewBox="0 0 560.000000 560.000000" preserveAspectRatio="xMidYMid meet">
  <metadata>
Created by potrace 1.16, written by Peter Selinger 2001-2019
</metadata>
  <g transform="translate(0.000000,560.000000) scale(0.100000,-0.100000)" fill="#000000" stroke="none">
    <path d="M0 2800 l0 -2800 2800 0 2800 0 0 2800 0 2800 -2800 0 -2800 0 0 -2800z m969 289 c36 -6 68 -12 73 -15 4 -3 7 -22 7 -42 -1 -35 -2 -36 -8 -8 -5 26 -7 27 -20 13 -11 -14 -11 -24 3 -64 21 -61 20 -70 -4 -48 -12 11 -18 25 -15 34 3 8 3 12 -1 8 -9 -9 -34 12 -34 29 0 8 6 11 15 8 11 -5 13 -2 9 10 -3 8 -31 28 -61 43 -108 52 -258 29 -354 -55 -78 -68 -117 -199 -90 -297 18 -66 22 -69 72 -52 l43 15 22 -55 c13 -31 32 -66 44 -78 29 -30 99 -49 152 -41 62 10 106 43 172 130 33 42 62 76 66 76 5 0 0 -23 -11 -50 -21 -55 -24 -85 -9 -75 6 4 10 -10 10 -36 0 -41 0 -42 -20 -24 -19 17 -21 17 -72 -3 -99 -38 -130 -45 -189 -39 -117 13 -204 65 -270 163 -31 46 -50 64 -66 64 -37 0 -53 -11 -53 -39 l-1 -26 -16 29 c-23 43 -20 158 6 227 66 174 284 246 600 198z m664 11 c34 0 34 -10 -3 -61 -29 -41 -29 -41 -13 -82 29 -73 101 -194 80 -135 -4 12 -2 15 8 12 14 -6 28 22 34 69 1 6 44 -71 96 -173 89 -178 106 -204 150 -235 19 -14 19 -14 -7 -15 -16 0 -60 21 -107 50 l-79 51 -51 -51 c-45 -45 -54 -50 -93 -49 l-43 1 34 12 c54 19 57 34 26 104 -28 63 -28 106 0 82 12 -10 16 -9 21 4 3 9 4 23 1 30 -4 11 -1 13 11 9 14 -5 15 -4 6 8 -6 8 -17 30 -24 49 -7 19 -31 72 -53 118 -43 89 -51 93 -111 68 -23 -10 -39 -27 -56 -62 -31 -66 -90 -195 -90 -197 0 -1 54 -1 120 1 66 2 120 7 120 11 0 10 59 1 65 -10 7 -11 -57 -18 -200 -23 l-119 -4 -17 -38 c-9 -22 -19 -56 -23 -77 -7 -35 -12 -41 -63 -63 -69 -31 -104 -28 -52 4 20 12 48 40 63 62 28 42 178 349 223 455 34 82 40 88 83 81 19 -3 47 -6 63 -6z m3492 -12 l69 -11 -27 -21 -26 -21 17 -48 c9 -26 23 -47 30 -47 7 0 10 -5 6 -11 -10 -17 -47 25 -50 58 -4 41 -44 69 -122 87 -71 16 -128 13 -172 -10 -77 -38 -116 -138 -70 -179 24 -22 47 -14 65 22 10 18 14 19 35 8 14 -7 61 -20 105 -28 89 -18 199 -70 227 -108 10 -13 19 -37 22 -54 2 -16 1 -22 -1 -12 -3 11 -11 16 -21 13 -9 -3 -29 -8 -43 -11 -24 -6 -27 -12 -31 -61 -6 -68 -43 -117 -119 -157 -47 -25 -63 -28 -119 -25 -43 3 -86 13 -126 32 -58 26 -63 27 -86 12 l-25 -16 -11 87 c-5 49 -8 90 -6 92 2 2 42 -33 89 -78 115 -110 172 -132 250 -96 39 19 57 49 58 99 1 27 3 32 10 21 7 -12 12 -13 22 -5 8 7 18 9 24 6 11 -7 21 16 21 48 0 34 -26 52 -136 95 -192 74 -202 76 -243 55 -20 -10 -39 -23 -42 -27 -13 -17 -48 36 -54 82 -11 82 34 150 126 190 91 40 187 46 354 19z m-2615 2 l315 -1 -110 -57 -110 -57 -102 -149 c-106 -153 -122 -194 -86 -215 13 -7 23 -5 38 7 19 17 19 17 1 -13 -10 -16 -29 -44 -42 -62 -13 -17 -24 -34 -24 -37 0 -10 144 -7 201 4 84 16 148 70 209 180 19 34 19 -1 0 -49 -22 -56 -28 -99 -10 -71 7 11 10 0 10 -37 0 -29 -3 -53 -7 -53 -4 0 -16 9 -28 20 -21 20 -24 20 -81 5 -32 -9 -114 -19 -181 -22 -121 -6 -123 -6 -158 21 -19 15 -35 36 -35 47 0 10 -3 19 -7 19 -3 0 -46 -21 -96 -46 -49 -25 -91 -43 -94 -41 -3 3 35 59 84 124 49 65 109 147 135 183 25 36 82 110 127 165 44 55 81 103 81 108 0 11 -250 7 -300 -6 -54 -14 -70 -40 -79 -128 -1 -4 -8 -9 -16 -13 -13 -5 -15 6 -9 77 7 106 9 111 37 103 12 -3 164 -6 337 -6z m874 0 l209 0 -22 -24 c-23 -24 -23 -25 -6 -70 26 -67 13 -75 -28 -17 -20 28 -43 51 -49 51 -10 0 -9 3 1 9 27 17 -13 25 -140 29 -113 4 -130 2 -167 -17 -49 -25 -59 -55 -60 -170 l-1 -74 99 6 c113 6 150 21 188 78 13 18 27 35 32 37 8 3 -31 -112 -42 -123 -3 -4 -66 -7 -140 -8 l-133 -2 2 -105 2 -105 35 -32 c39 -36 56 -41 56 -18 0 9 8 6 26 -12 24 -24 30 -25 100 -20 99 7 148 36 210 123 25 36 49 63 51 60 3 -2 -4 -30 -16 -61 -25 -67 -25 -69 -5 -61 14 5 16 1 10 -25 -3 -17 -6 -38 -6 -47 0 -12 -5 -11 -23 6 l-23 22 -79 -20 c-141 -36 -240 -23 -307 41 l-38 36 -36 -34 c-40 -38 -93 -63 -133 -63 -25 0 -24 1 9 18 31 15 36 23 42 67 3 28 7 133 8 235 1 102 4 178 7 170 8 -23 34 -40 60 -40 20 0 23 5 23 38 0 59 -36 89 -135 109 -36 7 -31 8 50 14 50 3 106 5 125 3 19 -2 129 -4 244 -4z m626 1 c47 -5 72 -9 55 -10 -41 -2 -112 -36 -135 -63 -17 -21 -19 -41 -19 -198 0 -135 3 -179 14 -194 8 -10 19 -15 26 -10 9 5 10 2 6 -9 -3 -9 -2 -19 3 -22 6 -4 10 0 10 8 0 8 9 22 19 31 11 10 18 25 15 34 -2 10 2 4 10 -13 8 -16 15 -35 16 -41 0 -7 16 -26 35 -42 74 -66 230 -47 294 34 35 45 43 92 40 237 -2 75 -1 137 4 137 4 0 7 11 7 24 0 31 -40 63 -89 72 -20 4 -42 10 -50 14 -21 11 155 20 229 12 62 -7 64 -8 40 -21 -14 -7 -40 -27 -57 -44 -26 -24 -33 -27 -33 -14 0 9 -4 17 -10 17 -6 0 -10 -59 -10 -158 0 -190 -12 -243 -71 -307 -53 -57 -115 -78 -212 -73 -98 5 -176 42 -224 109 -31 44 -37 47 -56 37 -55 -28 -56 -28 -67 -9 -11 22 -14 313 -2 294 4 -6 25 -12 47 -14 l40 -3 -2 38 c-5 69 -54 117 -137 133 l-41 8 60 6 c85 8 148 8 245 0z"></path>
  </g>
</svg>
