<?xml version="1.0" encoding="UTF-8"?>
<svg xmlns="http://www.w3.org/2000/svg" width="58" height="28" viewBox="0 0 58 28" fill="none">
  <g clip-path="url(#clip0_331_6603)">
    <path fill-rule="evenodd" clip-rule="evenodd" d="M30.3461 12.619H29.1667V10.2631C29.8726 10.2631 30.8068 10.1633 31.3055 10.5197C31.955 10.9839 31.9914 12.619 30.3461 12.619L30.3461 12.619ZM26.8447 9.63737V16.3001C26.8447 16.6314 26.9708 17.05 27.1297 17.2302C27.7618 17.9471 29.1667 17.7541 29.1667 16.2633V14.57H30.7883C32.8911 14.57 34.2528 13.4432 34.2528 11.3307C34.2528 10.8061 34.0989 10.2826 33.9191 9.93389C33.8258 9.75287 33.5262 9.34431 33.3528 9.21108C32.5108 8.56378 31.8293 8.27539 30.3829 8.27539H28.5033C27.441 8.27539 26.8448 8.5686 26.8448 9.63739L26.8447 9.63737Z" fill="#8CC23B"></path>
    <path fill-rule="evenodd" clip-rule="evenodd" d="M36.6854 14.0545C36.6854 13.4423 36.9536 12.8692 37.4232 12.5827C37.8469 12.3243 38.6211 12.3206 39.091 12.793C39.8939 13.6002 39.5932 15.6742 38.2334 15.6742C37.7164 15.6742 37.39 15.5875 37.0613 15.1884C36.8602 14.9441 36.6854 14.4894 36.6854 14.0545ZM37.6437 17.662C39.1907 17.662 39.3854 17.0019 39.6708 16.9258C39.865 17.7586 41.8453 18.1893 41.8453 16.1895V11.9931C41.8453 10.2459 40.4936 10.3913 40.0487 10.7141C39.9075 10.8165 39.718 10.9698 39.6708 11.1465C39.2961 10.8959 39.0664 10.5533 38.2979 10.4562C35.1258 10.0558 33.2918 13.6913 34.9745 16.1682L35.4409 16.7331C35.5982 16.8903 35.8284 17.0712 36.0194 17.186C36.4342 17.4351 36.9778 17.662 37.6437 17.662H37.6437Z" fill="#8CC23B"></path>
    <path fill-rule="evenodd" clip-rule="evenodd" d="M7.97456 12.104H8.23255C8.8565 12.104 9.52251 12.651 9.52251 13.2819H6.61088C6.75786 12.6518 7.26697 12.104 7.97456 12.104ZM4.28894 14.055C4.28894 14.6244 4.43736 15.1995 4.63248 15.5892C5.67624 17.6739 8.19781 18.1575 10.3287 17.2896C12.083 16.5752 11.7876 15.1593 10.7756 15.1593C10.4465 15.1593 9.87993 15.4188 9.62826 15.5226C9.09296 15.7432 8.78071 15.8219 8.15885 15.8219C7.43059 15.8219 6.66331 15.3414 6.64776 14.6439H10.5177C11.1475 14.6439 11.7708 14.3097 11.7708 13.5764C11.7708 13.0815 11.6057 12.6341 11.4271 12.3C11.0372 11.5705 10.4106 11.0793 9.68271 10.7292C8.53246 10.1759 6.84411 10.3443 5.83657 11.073C4.9908 11.6846 4.28894 12.7656 4.28894 14.055ZM20.7636 14.2022V13.9078C20.7636 13.1191 21.3107 12.3617 22.0905 12.3617H22.3484C23.08 12.3617 23.6753 13.1312 23.6753 13.8709V14.2391C23.6753 15.0003 23.1022 15.7483 22.3484 15.7483C21.811 15.7483 21.4815 15.6676 21.1632 15.2756C20.9557 15.02 20.7636 14.6527 20.7636 14.2022ZM18.4048 13.9446C18.4048 15.5282 19.0996 16.6632 20.4806 17.3562C21.5935 17.9146 23.483 17.8219 24.5499 17.0267L25.0308 16.6236C26.8649 14.7515 26.1555 11.0524 23.1323 10.4745C23.0271 10.4544 22.8486 10.4173 22.7165 10.4113C22.5172 10.4023 22.4321 10.3808 22.2737 10.3725C21.9359 10.3548 21.0448 10.5087 20.7051 10.6467C20.251 10.8312 19.872 11.059 19.5565 11.377C19.2284 11.7076 18.9744 11.9741 18.7605 12.4224C18.5811 12.7984 18.4048 13.4075 18.4048 13.9446Z" fill="#033564"></path>
    <path fill-rule="evenodd" clip-rule="evenodd" d="M42.1397 11.4417C42.1397 11.9714 42.2552 12.1556 42.5329 12.7055C42.619 12.8761 42.6678 13.0143 42.7537 13.1844L43.8724 15.5641C44.5226 17.0246 44.6411 16.6416 44.2282 17.4665C43.8015 18.3187 42.9909 19.4247 43.6583 20.0847C43.9115 20.3351 44.1231 20.3801 44.3868 20.3868H44.6827C45.3405 20.3868 45.8965 18.7573 46.181 18.1654C46.2321 18.0591 46.2661 18.0026 46.3171 17.8964C47.1168 16.2327 47.8983 14.4375 48.7128 12.7429C48.9814 12.1841 49.4311 11.3077 48.8767 10.7868C48.6357 10.5603 48.3515 10.5215 47.9998 10.5215C47.1923 10.5215 46.9089 11.5571 46.6045 12.2936C46.4898 12.5711 45.7307 14.3072 45.6778 14.5339L44.965 12.8899C44.7188 12.3414 44.5021 11.7058 44.2528 11.2086C43.9976 10.6996 43.7938 10.5215 43.1716 10.5215C42.6594 10.5215 42.1396 10.9452 42.1396 11.4418L42.1397 11.4417ZM49.4003 11.5154C49.4003 12.1918 49.9243 12.4766 50.6157 12.4733C51.3161 12.47 52.017 12.4725 52.7174 12.4725C52.5948 12.6553 52.4389 12.8311 52.2844 12.9971C52.2071 13.0801 52.1423 13.1655 52.0654 13.2569L50.7271 14.8283C50.6561 14.92 50.5901 14.9942 50.5114 15.0915C50.4343 15.1868 50.3735 15.246 50.2903 15.3491C50.2135 15.4443 50.1522 15.5038 50.0691 15.6068C49.8008 15.9395 49.3266 16.3332 49.3266 16.853C49.3266 17.3934 49.9198 17.5156 50.4691 17.5156H54.6707C55.3206 17.5156 56.0344 17.2915 56.0344 16.6689C56.0344 16.3001 56.0021 15.993 55.5994 15.7783C55.3503 15.6455 55.0477 15.5999 54.6709 15.6013C53.9339 15.6041 53.1964 15.6014 52.4594 15.6014L55.4193 12.1158C55.8095 11.6536 56.199 10.8726 55.3626 10.6772C54.7467 10.5333 51.6345 10.5951 50.8377 10.5951C50.1162 10.5951 49.4003 10.7997 49.4003 11.5154L49.4003 11.5154Z" fill="#8CC23B"></path>
    <path fill-rule="evenodd" clip-rule="evenodd" d="M11.9922 13.8719C11.9922 15.0286 12.196 15.8228 13.015 16.6419C13.6123 17.2393 14.4942 17.6634 15.383 17.6634C16.3024 17.6634 17.3463 17.6578 18.0653 16.9558C18.6837 16.352 18.3012 15.4179 17.4469 15.4179C16.8923 15.4179 16.9183 15.7124 15.8252 15.7124C13.7395 15.7124 13.9259 12.3258 15.6778 12.3258C16.9352 12.3258 16.695 12.6203 17.4838 12.6203C17.9306 12.6203 18.3683 12.2769 18.3683 11.8473C18.3683 11.2515 18.1536 10.9525 17.5 10.6899C16.5173 10.295 15.2755 10.3446 14.2815 10.6735C14.0771 10.7412 13.8329 10.8604 13.6519 10.965C12.6816 11.5256 11.9922 12.6955 11.9922 13.8719L11.9922 13.8719Z" fill="#033564"></path>
    <path fill-rule="evenodd" clip-rule="evenodd" d="M3.91992 16.4479C3.83179 16.1182 1.79942 14.1633 4.01439 11.3151C4.79307 10.3138 6.01495 9.663 7.16384 9.15991C8.30443 8.66047 10.2645 8.27508 11.6228 8.27588L13.3554 8.31235C14.5504 8.34253 16.6568 8.94669 17.569 9.4047C18.1186 9.68066 18.7517 10.0149 19.2238 10.4024C19.4025 10.549 19.5435 10.6903 19.7312 10.8158C19.6765 10.6112 18.9537 9.96464 18.7468 9.81127C18.5412 9.65898 18.3863 9.53997 18.1687 9.39468C17.5635 8.99066 16.5006 8.49122 15.8094 8.29093C15.6487 8.24439 15.5465 8.21203 15.4147 8.16973C15.1618 8.08855 14.8967 8.03551 14.6231 7.9665C13.804 7.75987 12.8489 7.64477 11.869 7.61328H10.7439C9.5613 7.65073 8.40399 7.80501 7.46564 8.06255C6.43003 8.34677 5.4762 8.70497 4.63165 9.20762C3.83033 9.68453 3.04438 10.3225 2.54095 11.0951C2.18385 11.6431 1.97642 12.2396 1.92969 12.8428V13.3657C1.98783 14.1119 2.29682 14.8499 2.87844 15.5003C2.97039 15.6031 2.99791 15.6574 3.09933 15.7582L3.75961 16.3503C3.85581 16.4271 3.79005 16.4132 3.91992 16.4478V16.4479ZM3.91992 16.4479V16.4847L3.96291 16.454L3.91992 16.4479ZM19.7681 10.8526V10.8894L19.8111 10.8587L19.7681 10.8526Z" fill="#8CC23B"></path>
  </g>
  <defs>
    <clipPath id="clip0_331_6603">
      <rect width="54.3996" height="15.9999" fill="white" transform="translate(1.7998 6)"></rect>
    </clipPath>
  </defs>
</svg>
