<?xml version="1.0" encoding="UTF-8"?>
<svg xmlns="http://www.w3.org/2000/svg" width="58" height="28" viewBox="0 0 58 28" fill="none">
  <g clip-path="url(#clip0_331_6673)">
    <path d="M28.4686 14.513V19.3756H26.8838V7.34985H31.0042C32.0079 7.34985 32.9588 7.71586 33.6984 8.39557C34.4379 9.023 34.8077 9.96415 34.8077 10.9576C34.8077 11.951 34.4379 12.8399 33.6984 13.5196C32.9588 14.1993 32.0607 14.5653 31.0042 14.5653L28.4686 14.513ZM28.4686 8.81386V12.9967H31.1099C31.691 12.9967 32.272 12.7876 32.6418 12.3693C33.487 11.585 33.487 10.2779 32.6947 9.49358L32.6418 9.44129C32.2192 9.023 31.691 8.76157 31.1099 8.81386H28.4686Z" fill="#5F6368"></path>
    <path d="M38.4526 10.9065C39.6148 10.9065 40.5128 11.2202 41.1996 11.8476C41.8863 12.4751 42.2033 13.3116 42.2033 14.3574V19.3768H40.7241V18.2265H40.6713C40.0374 19.1677 39.1394 19.6382 38.0828 19.6382C37.1848 19.6382 36.3924 19.3768 35.7585 18.854C35.1774 18.3311 34.8076 17.5991 34.8076 16.8148C34.8076 15.9782 35.1246 15.2985 35.7585 14.7757C36.3924 14.2528 37.2904 14.0436 38.347 14.0436C39.2978 14.0436 40.0374 14.2005 40.6185 14.5665V14.2005C40.6185 13.6776 40.4072 13.1548 39.9846 12.8411C39.562 12.4751 39.0337 12.2659 38.4526 12.2659C37.5546 12.2659 36.8678 12.6319 36.3924 13.3639L35.0189 12.5274C35.8641 11.4294 36.9735 10.9065 38.4526 10.9065ZM36.4452 16.8671C36.4452 17.2854 36.6565 17.6514 36.9735 17.8605C37.3433 18.122 37.7659 18.2788 38.1885 18.2788C38.8224 18.2788 39.4563 18.0174 39.9317 17.5468C40.46 17.0762 40.7241 16.5011 40.7241 15.8737C40.2487 15.5077 39.562 15.2985 38.6639 15.2985C38.03 15.2985 37.5017 15.4554 37.0791 15.7691C36.6565 16.0305 36.4452 16.3965 36.4452 16.8671Z" fill="#5F6368"></path>
    <path d="M50.7605 11.1682L45.5307 23.0371H43.9459L45.9005 18.9065L42.4668 11.2205H44.1572L46.6401 17.1288H46.6929L49.1229 11.2205H50.7605V11.1682Z" fill="#5F6368"></path>
    <path d="M22.1816 13.4686C22.1816 12.998 22.1287 12.5275 22.0759 12.0569H15.4727V14.7235H19.2233C19.0648 15.56 18.5894 16.3443 17.8498 16.8149V18.5403H20.1214C21.442 17.3378 22.1816 15.56 22.1816 13.4686Z" fill="#4285F4"></path>
    <path d="M15.4727 20.212C17.3745 20.212 18.9593 19.5846 20.1214 18.5389L17.8499 16.8134C17.216 17.2317 16.4236 17.4932 15.4727 17.4932C13.6766 17.4932 12.0919 16.2906 11.5636 14.6174H9.23926V16.3952C10.4543 18.748 12.8314 20.212 15.4727 20.212Z" fill="#34A853"></path>
    <path d="M11.5634 14.6184C11.2465 13.7818 11.2465 12.8407 11.5634 11.9518V10.1741H9.2391C8.2354 12.1087 8.2354 14.4092 9.2391 16.3961L11.5634 14.6184Z" fill="#FBBC04"></path>
    <path d="M15.4726 9.12818C16.4763 9.12818 17.4272 9.49418 18.1668 10.1739L20.1742 8.18703C18.9063 7.03674 17.2159 6.35702 15.5255 6.40931C12.8842 6.40931 10.4542 7.87331 9.29199 10.2262L11.6163 12.0039C12.0918 10.3308 13.6766 9.12818 15.4726 9.12818Z" fill="#EA4335"></path>
  </g>
  <defs>
    <clipPath id="clip0_331_6673">
      <rect width="42.2609" height="15.6522" fill="white" transform="translate(8.5 6.3479)"></rect>
    </clipPath>
  </defs>
</svg>
