<?xml version="1.0" encoding="UTF-8"?>
<svg xmlns="http://www.w3.org/2000/svg" width="28" height="28" viewBox="0 0 28 28" fill="none">
  <g clip-path="url(#clip0_2413_3078)">
    <path d="M14.0046 0C8.15817 0 6.44832 0.00603121 6.11596 0.0336025C4.91618 0.133333 4.1696 0.322239 3.35625 0.727192C2.72943 1.03844 2.23509 1.39924 1.74721 1.905C0.858681 2.82734 0.32018 3.96207 0.125243 5.31091C0.0304669 5.96573 0.00289564 6.09928 -0.00270477 9.44401C-0.00485878 10.5589 -0.00270477 12.0262 -0.00270477 13.9943C-0.00270477 19.836 0.00375724 21.5441 0.0317593 21.8758C0.128689 23.0433 0.31178 23.7778 0.6995 24.5813C1.44048 26.1192 2.85566 27.2738 4.52286 27.7046C5.10013 27.8532 5.73772 27.9351 6.55624 27.9738C6.90303 27.9889 10.4377 27.9997 13.9746 27.9997C17.5115 27.9997 21.0484 27.9954 21.3866 27.9781C22.3343 27.9335 22.8847 27.8597 23.4932 27.7024C24.3198 27.4904 25.0903 27.1005 25.7506 26.56C26.411 26.0194 26.9454 25.3412 27.3165 24.5727C27.6967 23.7886 27.8895 23.0261 27.9767 21.9196C27.9957 21.6783 28.0037 17.8319 28.0037 13.9907C28.0037 10.1488 27.995 6.30951 27.9761 6.06826C27.8878 4.94387 27.695 4.18781 27.3025 3.38868C26.9805 2.73451 26.6229 2.24598 26.1038 1.74647C25.1776 0.861601 24.0446 0.323101 22.6942 0.128379C22.0401 0.0338179 21.9098 0.00581581 18.5624 0H14.0046Z" fill="url(#paint0_radial_2413_3078)"></path>
    <path d="M14.0046 0C8.15817 0 6.44832 0.00603121 6.11596 0.0336025C4.91618 0.133333 4.1696 0.322239 3.35625 0.727192C2.72943 1.03844 2.23509 1.39924 1.74721 1.905C0.858681 2.82734 0.32018 3.96207 0.125243 5.31091C0.0304669 5.96573 0.00289564 6.09928 -0.00270477 9.44401C-0.00485878 10.5589 -0.00270477 12.0262 -0.00270477 13.9943C-0.00270477 19.836 0.00375724 21.5441 0.0317593 21.8758C0.128689 23.0433 0.31178 23.7778 0.6995 24.5813C1.44048 26.1192 2.85566 27.2738 4.52286 27.7046C5.10013 27.8532 5.73772 27.9351 6.55624 27.9738C6.90303 27.9889 10.4377 27.9997 13.9746 27.9997C17.5115 27.9997 21.0484 27.9954 21.3866 27.9781C22.3343 27.9335 22.8847 27.8597 23.4932 27.7024C24.3198 27.4904 25.0903 27.1005 25.7506 26.56C26.411 26.0194 26.9454 25.3412 27.3165 24.5727C27.6967 23.7886 27.8895 23.0261 27.9767 21.9196C27.9957 21.6783 28.0037 17.8319 28.0037 13.9907C28.0037 10.1488 27.995 6.30951 27.9761 6.06826C27.8878 4.94387 27.695 4.18781 27.3025 3.38868C26.9805 2.73451 26.6229 2.24598 26.1038 1.74647C25.1776 0.861601 24.0446 0.323101 22.6942 0.128379C22.0401 0.0338179 21.9098 0.00581581 18.5624 0H14.0046Z" fill="url(#paint1_radial_2413_3078)"></path>
    <path d="M13.9981 3.66187C11.1901 3.66187 10.8377 3.67414 9.73486 3.72433C8.63417 3.77474 7.88285 3.94899 7.22545 4.20467C6.54543 4.46876 5.96859 4.82201 5.3939 5.39692C4.81878 5.9716 4.46552 6.54845 4.20058 7.22825C3.94425 7.88587 3.76978 8.6374 3.72024 9.73766C3.67113 10.8405 3.6582 11.1931 3.6582 14.0011C3.6582 16.809 3.6707 17.1604 3.72067 18.2632C3.77129 19.3639 3.94555 20.1152 4.20101 20.7726C4.46531 21.4526 4.81856 22.0295 5.39347 22.6042C5.96794 23.1793 6.54478 23.5334 7.22437 23.7975C7.8822 24.0532 8.63374 24.2274 9.73422 24.2778C10.8371 24.328 11.1892 24.3403 13.997 24.3403C16.8052 24.3403 17.1565 24.328 18.2593 24.2778C19.36 24.2274 20.1122 24.0532 20.77 23.7975C21.4498 23.5334 22.0258 23.1793 22.6003 22.6042C23.1754 22.0295 23.5287 21.4526 23.7936 20.7728C24.0478 20.1152 24.2223 19.3637 24.274 18.2634C24.3235 17.1606 24.3364 16.809 24.3364 14.0011C24.3364 11.1931 24.3235 10.8407 24.274 9.73788C24.2223 8.63718 24.0478 7.88587 23.7936 7.22846C23.5287 6.54844 23.1754 5.9716 22.6003 5.39692C22.0252 4.8218 21.4501 4.46854 20.7694 4.20467C20.1103 3.94899 19.3585 3.77474 18.2578 3.72433C17.155 3.67414 16.8039 3.66187 13.995 3.66187H13.9981ZM13.0706 5.52508C13.3458 5.52465 13.653 5.52508 13.9981 5.52508C16.7586 5.52508 17.0858 5.53499 18.176 5.58453C19.184 5.63062 19.7312 5.79907 20.0956 5.94059C20.5781 6.12798 20.9221 6.352 21.2838 6.71387C21.6456 7.07575 21.8697 7.42039 22.0575 7.90288C22.199 8.26691 22.3677 8.81403 22.4135 9.8221C22.4631 10.912 22.4739 11.2394 22.4739 13.9987C22.4739 16.758 22.4631 17.0854 22.4135 18.1753C22.3674 19.1834 22.199 19.7305 22.0575 20.0945C21.8701 20.577 21.6456 20.9206 21.2838 21.2823C20.9219 21.6441 20.5783 21.8681 20.0956 22.0555C19.7316 22.1977 19.184 22.3657 18.176 22.4118C17.086 22.4614 16.7586 22.4721 13.9981 22.4721C11.2373 22.4721 10.9101 22.4614 9.82016 22.4118C8.81209 22.3653 8.26497 22.1968 7.9003 22.0553C7.4178 21.8679 7.07316 21.6439 6.71129 21.282C6.34941 20.9202 6.1254 20.5764 5.93757 20.0937C5.79605 19.7297 5.62739 19.1825 5.58151 18.1745C5.53197 17.0845 5.52206 16.7571 5.52206 13.9961C5.52206 11.2351 5.53197 10.9094 5.58151 9.81952C5.62761 8.81144 5.79605 8.26432 5.93757 7.89987C6.12497 7.41737 6.34941 7.07273 6.71129 6.71086C7.07316 6.34898 7.4178 6.12497 7.9003 5.93714C8.26475 5.79497 8.81209 5.62696 9.82016 5.58065C10.774 5.53757 11.1436 5.52465 13.0706 5.52249V5.52508ZM19.5171 7.24182C19.2716 7.24182 19.0318 7.3146 18.8277 7.45095C18.6237 7.5873 18.4646 7.78109 18.3707 8.00783C18.2769 8.23456 18.2523 8.48405 18.3002 8.72473C18.3481 8.96542 18.4663 9.18649 18.6399 9.35999C18.8135 9.53349 19.0346 9.65162 19.2753 9.69944C19.516 9.74727 19.7654 9.72264 19.9921 9.62866C20.2189 9.53469 20.4126 9.3756 20.5489 9.17151C20.6852 8.96742 20.7578 8.7275 20.7578 8.48209C20.7578 7.79712 20.202 7.24139 19.5171 7.24139V7.24182ZM13.9981 8.69146C11.0658 8.69146 8.68845 11.0688 8.68845 14.0011C8.68845 16.9333 11.0658 19.3096 13.9981 19.3096C16.9303 19.3096 19.307 16.9333 19.307 14.0011C19.307 11.0688 16.9303 8.69146 13.9981 8.69146ZM13.9981 10.5547C15.9013 10.5547 17.4445 12.0976 17.4445 14.0011C17.4445 15.9044 15.9013 17.4475 13.9981 17.4475C12.0946 17.4475 10.5517 15.9044 10.5517 14.0011C10.5517 12.0976 12.0946 10.5547 13.9981 10.5547Z" fill="white"></path>
  </g>
  <defs>
    <radialGradient id="paint0_radial_2413_3078" cx="0" cy="0" r="1" gradientUnits="userSpaceOnUse" gradientTransform="translate(7.43582 30.1562) rotate(-90) scale(27.7497 25.8165)">
      <stop stop-color="#FFDD55"></stop>
      <stop offset="0.1" stop-color="#FFDD55"></stop>
      <stop offset="0.5" stop-color="#FF543E"></stop>
      <stop offset="1" stop-color="#C837AB"></stop>
    </radialGradient>
    <radialGradient id="paint1_radial_2413_3078" cx="0" cy="0" r="1" gradientTransform="matrix(2.43534 12.163 -50.1489 10.0413 -4.69504 2.01705)" gradientUnits="userSpaceOnUse">
      <stop stop-color="#3771C8"></stop>
      <stop offset="0.128" stop-color="#3771C8"></stop>
      <stop offset="1" stop-color="#6600FF" stop-opacity="0"></stop>
    </radialGradient>
    <clipPath id="clip0_2413_3078">
      <rect width="28" height="28" fill="white"></rect>
    </clipPath>
  </defs>
</svg>
