<?xml version="1.0" encoding="UTF-8"?>
<svg xmlns="http://www.w3.org/2000/svg" width="28" height="28" viewBox="0 0 28 28" fill="none">
  <g clip-path="url(#clip0_2413_3092)">
    <path d="M28 24.1111C28 26.2593 26.2593 28 24.1111 28H3.88889C1.74144 28 0 26.2593 0 24.1111V3.88889C0 1.74067 1.74144 0 3.88889 0H24.1111C26.2593 0 28 1.74067 28 3.88889V24.1111Z" fill="#0078D4"></path>
    <path opacity="0.05" d="M18.6664 24.1109V16.2561C18.6664 14.9424 18.0295 14.1577 16.9616 14.1577C16.3277 14.1577 15.8618 14.5147 15.5779 15.2186C15.5647 15.2683 15.546 15.4713 15.5538 16.085L15.5553 24.1109H10.1109V9.33312H15.5553V10.1583C16.3502 9.61001 17.3248 9.33312 18.4627 9.33312C21.9992 9.33312 24.1101 11.7388 24.1101 15.7684L24.1109 24.1109H18.6664ZM3.88867 24.1109V9.33312H6.57745C5.01956 9.33312 3.88867 8.18823 3.88867 6.61012C3.88867 5.03356 5.03823 3.88867 6.62178 3.88867C8.18667 3.88867 9.30123 5.00167 9.33312 6.59456C9.33312 8.18434 8.18278 9.33312 6.59923 9.33312H9.33312V24.1109H3.88867Z" fill="black"></path>
    <path opacity="0.07" d="M19.0556 23.7224V16.2565C19.0556 14.722 18.2537 13.7692 16.9618 13.7692C15.9546 13.7692 15.4568 14.4785 15.2173 15.0735C15.1535 15.2283 15.1621 15.8427 15.1652 16.1048L15.1667 23.7224H10.5001V9.7224H15.1667V10.9964C15.7851 10.3563 16.7806 9.7224 18.4629 9.7224C21.7553 9.7224 23.7215 11.9826 23.7215 15.7688L23.7223 23.7224H19.0556ZM4.27783 23.7224V9.7224H8.9445V23.7224H4.27783ZM6.57772 8.94462C5.24539 8.94462 4.27783 7.96306 4.27783 6.61051C4.27783 5.25873 5.26405 4.27795 6.62205 4.27795C7.96294 4.27795 8.91728 5.23384 8.9445 6.60273C8.9445 7.96307 7.95828 8.94462 6.5995 8.94462H6.57772Z" fill="black"></path>
    <path d="M4.6665 10.1111H8.55539V23.3333H4.6665V10.1111ZM6.59928 8.55551H6.5775C5.41706 8.55551 4.6665 7.69063 4.6665 6.61029C4.6665 5.50663 5.44039 4.66663 6.62184 4.66663C7.80484 4.66663 8.53361 5.50663 8.55539 6.61029C8.55539 7.68985 7.80484 8.55551 6.59928 8.55551ZM23.3332 23.3333H19.4443V16.2563C19.4443 14.5467 18.4915 13.3801 16.9616 13.3801C15.7942 13.3801 15.1626 14.1672 14.8562 14.9278C14.7442 15.2001 14.7776 15.953 14.7776 16.3333V23.3333H10.8887V10.1111H14.7776V12.1457C15.3384 11.2777 16.2165 10.1111 18.4627 10.1111C21.2456 10.1111 23.3324 11.8611 23.3324 15.7686L23.3332 23.3333Z" fill="white"></path>
  </g>
  <defs>
    <clipPath id="clip0_2413_3092">
      <rect width="28" height="28" fill="white"></rect>
    </clipPath>
  </defs>
</svg>
