<?xml version="1.0" encoding="UTF-8"?>
<svg xmlns="http://www.w3.org/2000/svg" width="58" height="28" viewBox="0 0 58 28" fill="none">
  <path fill-rule="evenodd" clip-rule="evenodd" d="M49.6141 13.678C49.3422 13.9019 48.9474 14.0125 48.4073 14.0125H48.1728H47.8717L48.2824 11.3928H48.4905H48.6762C49.1245 11.3928 49.4521 11.4781 49.6777 11.6509C49.854 11.7866 50.063 12.0552 50.063 12.5647C50.063 13.1786 49.8199 13.5088 49.6141 13.678ZM17.6611 16.9658H13.5159L13.7838 15.2535H16.3838L16.6793 13.3248H14.1042L14.3532 11.63H18.4911L17.6611 16.9658ZM51.8472 10.1602C51.2377 9.6668 50.3154 9.41821 49.1062 9.41821H45.9393L44.7622 16.9662H40.6137L40.8797 15.2537H43.379L43.6762 13.3303L41.1784 13.3356L41.4459 11.6306H44.0197L44.3621 9.41843H39.1338L38.0164 16.5789H36.0994L37.2248 9.41843H34.4915L33.3741 16.5789H31.5049L32.6315 9.41843H29.9009L28.7208 16.9664H24.5428L24.8061 15.254H27.3167L27.6123 13.3417L25.1056 13.3389L25.3719 11.6306H27.9742L28.315 9.41843H12.0266L11.0994 15.4L9.25228 9.41821H6.4174L4.8916 19.1795H7.59883L8.52216 13.0336L10.3148 19.1795H20.0182L21.1978 11.6303H22.7161L21.5359 19.1795H47.0685L47.808 14.4137L49.0067 19.1795H51.7155L50.4745 15.2855L50.7578 15.2132C51.382 15.0553 51.8706 14.7152 52.2097 14.2057C52.5494 13.6914 52.7218 13.0311 52.7218 12.2379C52.722 11.3142 52.4364 10.6349 51.8472 10.1602Z" fill="#8DC640"></path>
</svg>
