<?xml version="1.0" encoding="UTF-8"?>
<svg xmlns="http://www.w3.org/2000/svg" width="58" height="28" viewBox="0 0 58 28" fill="none">
  <g clip-path="url(#clip0_331_6611)">
    <path d="M11.9053 13.4958C11.899 13.3027 11.8084 13.203 11.6325 13.1964H10.6928C10.4704 13.2101 10.3554 13.3327 10.3501 13.5633V15.2615C10.3554 15.4995 10.4825 15.6209 10.7295 15.6278H11.5907C11.6802 15.6278 11.7545 15.5944 11.8137 15.5263C11.8756 15.4751 11.9053 15.4094 11.9053 15.3278V13.4958ZM9.14355 13.2548C9.14977 12.8299 9.24395 12.507 9.42668 12.2862C9.52234 12.1937 9.64199 12.1163 9.7877 12.0523C9.93904 11.9842 10.0856 11.9512 10.2278 11.9512H11.9526C12.7135 11.9577 13.1003 12.3758 13.1124 13.2063V15.7623C13.1068 16.0571 12.9919 16.313 12.7697 16.527C12.5497 16.7519 12.287 16.8665 11.9811 16.8733H10.3501V18.7161H9.14355V13.2548Z" fill="#008AC9"></path>
    <path d="M15.2908 15.3811C15.2908 15.4522 15.3234 15.5084 15.3871 15.5507C15.444 15.6013 15.5156 15.6278 15.6063 15.6278H16.5329C16.7423 15.6278 16.851 15.5462 16.8572 15.3811V15.0336C16.8572 14.8437 16.7468 14.7479 16.5241 14.7479H15.6063C15.4854 14.7479 15.4019 14.7681 15.3554 14.8062C15.3125 14.8511 15.2908 14.9401 15.2908 15.0719V15.3811ZM16.8572 13.4657C16.8635 13.2795 16.7554 13.1905 16.5326 13.1964H14.1026V11.9512H16.8386C17.6355 11.9643 18.0401 12.3511 18.0537 13.1149V15.72C18.0469 16.0494 17.9465 16.3211 17.7516 16.5371C17.5479 16.7609 17.2852 16.8733 16.9633 16.8733H15.3095C14.5045 16.8665 14.0964 16.4972 14.084 15.7632V14.758C14.0902 13.9909 14.4802 13.6011 15.2523 13.5877H16.8572V13.4657Z" fill="#008AC9"></path>
    <path d="M21.4423 17.4705C21.5379 17.4646 21.6208 17.4301 21.6881 17.3682C21.7526 17.3104 21.7852 17.2441 21.7852 17.1688V16.8733H20.2404C20.0391 16.8733 19.8779 16.8475 19.7577 16.796C19.6306 16.7493 19.5042 16.6621 19.3768 16.5383C19.2563 16.4071 19.1695 16.2699 19.1168 16.1265C19.062 15.9953 19.0342 15.8283 19.0342 15.6278V11.9512H20.2404V15.2332C20.2404 15.4962 20.3474 15.6278 20.5639 15.6278H21.4156C21.5169 15.6278 21.6049 15.5944 21.6786 15.5263C21.7497 15.4686 21.7852 15.4001 21.7852 15.3198V11.9512H22.9817V17.375C22.9749 17.7764 22.8724 18.0978 22.6749 18.3415C22.4744 18.5852 22.2001 18.7099 21.8504 18.7161H19.0342V17.4705H21.4423Z" fill="#008AC9"></path>
    <path d="M23.9287 15.6278H26.0785C26.2752 15.6209 26.3774 15.5418 26.3836 15.39V15.2781C26.3836 15.2457 26.3738 15.2097 26.3549 15.171C26.3069 15.077 26.2479 15.0303 26.1778 15.0303H25.1119C24.7956 15.024 24.5258 14.9145 24.2989 14.7033C24.0694 14.5081 23.9518 14.2679 23.945 13.9862V13.0575C23.9574 12.3329 24.3493 11.9643 25.1211 11.9512H27.6144V13.1964H25.5019C25.254 13.1964 25.1291 13.2729 25.1291 13.4253V13.5458C25.1291 13.7038 25.2567 13.7829 25.5111 13.7829H26.5737C26.8569 13.7895 27.0982 13.8984 27.2993 14.1108C27.5025 14.3248 27.6079 14.5792 27.6144 14.8747V15.7831C27.6079 16.0384 27.4903 16.2931 27.2644 16.5472C27.1542 16.6719 27.0414 16.7576 26.9285 16.8061C26.8118 16.8507 26.6534 16.8733 26.4511 16.8733H23.9287V15.6278Z" fill="#008AC9"></path>
    <path d="M29.6793 15.3811C29.6793 15.4522 29.7119 15.5084 29.777 15.5507C29.8333 15.6013 29.9053 15.6278 29.9947 15.6278H30.9232C31.1326 15.6278 31.2407 15.5462 31.2469 15.3811V15.0336C31.2469 14.8437 31.1349 14.7479 30.9131 14.7479H29.9947C29.8742 14.7479 29.791 14.7681 29.7448 14.8062C29.7018 14.8511 29.6793 14.9401 29.6793 15.0719V15.3811ZM31.2469 13.4657C31.2522 13.2795 31.1441 13.1905 30.9211 13.1964H28.4917V11.9512H31.2285C32.0246 11.9643 32.4295 12.3511 32.4419 13.1149V15.72C32.4354 16.0494 32.3341 16.3211 32.1404 16.5371C31.9381 16.7609 31.6751 16.8733 31.3529 16.8733H29.6977C28.8933 16.8665 28.4849 16.4972 28.4736 15.7632V14.758C28.479 13.9909 28.8687 13.6011 29.6414 13.5877H31.2469V13.4657Z" fill="#008AC9"></path>
    <path d="M33.4229 11.2467C33.4303 10.9105 33.5535 10.6406 33.7951 10.4383C34.0297 10.2327 34.3377 10.127 34.7186 10.1211H35.4847V11.3241H35.0206C34.7656 11.3301 34.6356 11.4527 34.63 11.6895V11.9531H35.4847V13.1996H34.63V16.8756H33.4229V11.2467Z" fill="#008AC9"></path>
    <path d="M38.9162 13.4425V13.4137C38.9162 13.3497 38.8904 13.2952 38.8386 13.2548C38.7823 13.2155 38.7136 13.1964 38.631 13.1964H37.7911C37.6833 13.1964 37.5965 13.2268 37.5293 13.289C37.4458 13.3464 37.4034 13.422 37.4034 13.5151V14.015L38.9162 13.4425ZM37.4227 15.2029V15.2805C37.4227 15.3802 37.4484 15.4594 37.5008 15.5168C37.5388 15.5903 37.5897 15.6278 37.6575 15.6278H40.1361V16.8733H37.5008C37.2604 16.8733 37.0729 16.8507 36.9405 16.8055C36.7957 16.7576 36.6657 16.6793 36.5522 16.5704C36.4196 16.4386 36.3292 16.3044 36.2839 16.1663C36.2342 16.0223 36.2096 15.8313 36.2096 15.5933L36.1992 13.1006C36.2125 12.3475 36.6041 11.9643 37.3735 11.9512H39C39.7514 11.9643 40.1319 12.3609 40.1441 13.1432V14.1278L37.4227 15.2029Z" fill="#008AC9"></path>
    <path d="M42.6975 16.8742C42.5148 16.8742 42.348 16.8573 42.1967 16.8263C42.0383 16.8004 41.8804 16.7266 41.719 16.602C41.5534 16.4571 41.4388 16.2946 41.376 16.1152C41.3097 15.9387 41.2777 15.7388 41.2777 15.5138V13.1896C41.2709 13 41.2899 12.8337 41.334 12.6894C41.3746 12.5454 41.4599 12.4043 41.5887 12.2663C41.7356 12.1214 41.8854 12.025 42.0436 11.9776C42.1958 11.9393 42.3673 11.9199 42.5595 11.9199H44.4087V12.2112H42.6024C42.2835 12.2112 42.0329 12.277 41.8496 12.4088C41.6621 12.5525 41.5665 12.8004 41.5665 13.1497V15.4754C41.5665 15.6391 41.5914 15.7983 41.6408 15.9518C41.6915 16.1027 41.7759 16.2351 41.897 16.3508C42.0285 16.4511 42.1594 16.5136 42.287 16.5392C42.42 16.5686 42.5628 16.5826 42.7141 16.5826H44.4378V16.8742H42.6975Z" fill="#008AC9"></path>
    <path d="M49.1651 13.8588H46.7407C46.4505 13.8653 46.223 13.9555 46.0593 14.1293C45.8899 14.3057 45.806 14.5476 45.806 14.855V15.5968C45.806 15.7405 45.8208 15.8721 45.8516 15.9905C45.8822 16.1152 45.9583 16.2264 46.0785 16.322C46.2879 16.4963 46.5198 16.5826 46.7733 16.5826H48.2423C48.8562 16.5761 49.1651 16.2511 49.1651 15.606V13.8588ZM49.4533 15.5334C49.4533 15.7206 49.439 15.8849 49.4151 16.0295C49.376 16.1866 49.2957 16.338 49.174 16.482C48.9208 16.7501 48.6068 16.8808 48.2322 16.8742H46.7908C46.4161 16.8742 46.1126 16.7617 45.8774 16.538C45.6372 16.3169 45.5155 16.0095 45.5155 15.6153V14.866C45.5276 14.0207 45.9467 13.5877 46.7724 13.5681H49.174V13.2402C49.174 12.97 49.0961 12.7334 48.9412 12.5299C48.8429 12.3978 48.7265 12.3094 48.5944 12.2639C48.4608 12.2288 48.311 12.2112 48.1439 12.2112H45.5241V11.9199H48.0077C48.2349 11.9199 48.4401 11.936 48.6261 11.9675C48.7217 11.9866 48.8085 12.0241 48.8888 12.0782C48.9738 12.1297 49.0531 12.205 49.1266 12.3038C49.3493 12.5924 49.458 12.9254 49.4533 13.3003V15.5334Z" fill="#008AC9"></path>
    <path d="M52.1642 12.2112C51.4919 12.2237 51.1605 12.5924 51.173 13.3178V16.8742H50.8842V13.319C50.8706 12.3859 51.3128 11.9199 52.2107 11.9199H52.5318V12.2112H52.1642Z" fill="#008AC9"></path>
    <path d="M57.0481 12.2123H54.7629C54.5982 12.2123 54.4507 12.2307 54.3178 12.2658C54.1786 12.2974 54.0441 12.3822 53.9182 12.5202C53.7977 12.6461 53.7219 12.7708 53.6902 12.8955C53.6479 13.0213 53.6286 13.1722 53.6354 13.348V15.6154C53.6354 15.9924 53.7441 16.2489 53.9644 16.3867C54.0731 16.4506 54.1925 16.4986 54.3264 16.5307C54.4596 16.5664 54.6083 16.584 54.7721 16.584H55.7713C56.1445 16.584 56.4498 16.4977 56.6844 16.3236C56.9201 16.1602 57.0401 15.8784 57.0481 15.4767V12.2123ZM57.3365 15.4967C57.3111 16.4352 56.8168 16.8952 55.854 16.8759H54.7827C54.5565 16.8759 54.3542 16.8559 54.1753 16.8181C53.9911 16.7702 53.8149 16.6574 53.6452 16.4816C53.5175 16.3236 53.4355 16.1638 53.4026 16.0001C53.3585 15.8368 53.3393 15.655 53.3461 15.4565V13.3406C53.3585 12.3875 53.8362 11.9138 54.7804 11.921H57.0481V10.3145H57.3365V15.4967Z" fill="#008AC9"></path>
    <path d="M2.44154 11.7649C2.53631 11.7229 2.63108 11.6902 2.72585 11.6697C2.9 10.8341 3.63655 10.2075 4.5194 10.2075C5.40285 10.2075 6.1397 10.835 6.31355 11.6702C6.58453 11.722 6.80873 11.8321 6.98346 11.9961C6.99057 11.8357 6.98405 11.6813 6.9651 11.5358C6.85345 10.2735 5.8 9.28296 4.51555 9.28296C3.1932 9.28296 2.11665 10.336 2.06068 11.6524C2.05298 11.7661 2.05061 11.8845 2.05475 12.0083C2.16581 11.9142 2.29257 11.8297 2.44154 11.7649Z" fill="#E3001B"></path>
    <path d="M5.95517 11.9512H3.00837C2.86651 11.9512 2.71961 11.9842 2.56827 12.0523C2.42227 12.1163 2.30262 12.1937 2.20666 12.2862C2.02393 12.507 1.93034 12.8299 1.92383 13.2548V15.5692C1.93034 15.995 2.02393 16.3175 2.20666 16.5371C2.30262 16.6311 2.42227 16.7085 2.56827 16.7731C2.71961 16.8397 2.86651 16.8733 3.00837 16.8733H5.95517C6.7163 16.8665 7.10339 16.4469 7.11553 15.6177V13.2063C7.10339 12.3758 6.7163 11.9577 5.95517 11.9512Z" fill="#E3001B"></path>
  </g>
  <defs>
    <clipPath id="clip0_331_6611">
      <rect width="56.0002" height="16.0001" fill="white" transform="translate(1.62988 6)"></rect>
    </clipPath>
  </defs>
</svg>
