<?xml version="1.0" encoding="UTF-8"?>
<svg xmlns="http://www.w3.org/2000/svg" width="253" height="115" viewBox="0 0 253 115" fill="none">
  <rect width="253" height="115" fill="#070606"></rect>
  <g clip-path="url(#clip0_1_2)">
    <path d="M104.394 48.5741C103.365 48.0154 102.069 47.7361 100.508 47.7361H93.1775V67.9687H97.0353V60.4251H100.508C102.106 60.4251 103.42 60.1268 104.45 59.5291C105.478 58.9313 106.236 58.156 106.723 57.2019C107.209 56.2479 107.453 55.2122 107.453 54.0948C107.453 52.8804 107.2 51.7973 106.694 50.8432C106.189 49.8892 105.424 49.1328 104.394 48.5741ZM102.754 56.3201C102.249 56.88 101.418 57.1582 100.261 57.1582H97.0364V51.0302H100.261C101.418 51.0302 102.25 51.3001 102.754 51.8399C103.26 52.3796 103.513 53.1313 103.513 54.0948C103.513 55.0193 103.26 55.7614 102.754 56.3201Z" fill="#F7F7FF"></path>
    <path d="M113.269 53.4H109.41V67.9675H113.269V53.4Z" fill="#F7F7FF"></path>
    <path d="M111.34 47.0128C110.641 47.0128 110.073 47.2247 109.631 47.6485C109.19 48.0734 108.97 48.612 108.97 49.2666C108.97 49.9022 109.19 50.4373 109.631 50.8705C110.073 51.3037 110.641 51.5203 111.34 51.5203C112.039 51.5203 112.608 51.3037 113.048 50.8705C113.489 50.4373 113.709 49.9022 113.709 49.2666C113.709 48.612 113.489 48.0722 113.048 47.6485C112.606 47.2247 112.038 47.0128 111.34 47.0128Z" fill="#F7F7FF"></path>
    <path d="M127.834 54.0652C126.832 53.3905 125.689 53.0532 124.402 53.0532C123.667 53.0532 123.02 53.1597 122.459 53.3716C121.898 53.5835 121.416 53.8675 121.012 54.2239C120.608 54.5813 120.268 54.9613 119.992 55.3661L119.552 53.4012H116.135V74.3275H119.994V66.1186C120.453 66.8123 121.054 67.352 121.798 67.7367C122.542 68.1226 123.419 68.3155 124.43 68.3155C125.68 68.3155 126.801 67.9877 127.793 67.3331C128.785 66.6785 129.575 65.7777 130.163 64.6308C130.751 63.4849 131.044 62.1781 131.044 60.714C131.044 59.2497 130.759 57.9441 130.19 56.7972C129.62 55.6501 128.834 54.7399 127.834 54.0664V54.0652ZM126.662 62.822C126.349 63.4387 125.918 63.9205 125.366 64.2673C124.815 64.6141 124.19 64.7869 123.492 64.7869C122.776 64.7869 122.146 64.6141 121.604 64.2673C121.062 63.9205 120.635 63.4387 120.322 62.822C120.009 62.2054 119.854 61.4928 119.854 60.6832C119.854 59.8937 120.009 59.1906 120.322 58.5739C120.633 57.9571 121.061 57.4706 121.604 57.1144C122.145 56.7581 122.775 56.5794 123.492 56.5794C124.19 56.5794 124.815 56.7581 125.366 57.1144C125.917 57.4718 126.349 57.9571 126.662 58.5739C126.975 59.1906 127.13 59.9031 127.13 60.7128C127.13 61.5035 126.975 62.2065 126.662 62.822Z" fill="#F7F7FF"></path>
    <path d="M143.791 54.0072C142.752 53.3716 141.544 53.0532 140.166 53.0532C138.733 53.0532 137.479 53.3905 136.405 54.0652C135.33 54.7399 134.494 55.6597 133.896 56.8255C133.3 57.9915 133.001 59.3255 133.001 60.8287C133.001 62.3131 133.304 63.6175 133.91 64.7455C134.516 65.8724 135.357 66.7495 136.432 67.3757C137.506 68.0018 138.742 68.3155 140.138 68.3155C141.24 68.3155 142.233 68.0989 143.114 67.6657C143.996 67.2325 144.745 66.6489 145.361 65.9174C145.975 65.1847 146.413 64.3668 146.669 63.4601H142.728C142.507 63.9229 142.181 64.2981 141.75 64.5881C141.318 64.8769 140.772 65.0214 140.11 65.0214C139.448 65.0214 138.87 64.8674 138.374 64.5585C137.878 64.2508 137.493 63.8116 137.216 63.2435C136.997 62.7913 136.889 62.2645 136.844 61.6964H147C147.035 61.4265 147.058 61.1767 147.068 60.9447C147.077 60.714 147.081 60.5021 147.081 60.3091C147.081 58.9029 146.793 57.6601 146.214 56.5805C145.635 55.5022 144.826 54.644 143.788 54.0084L143.791 54.0072ZM136.907 59.2391C136.98 58.8295 137.088 58.4578 137.244 58.1407C137.538 57.544 137.941 57.0907 138.456 56.7829C138.97 56.4751 139.54 56.3201 140.165 56.3201C140.991 56.3201 141.685 56.5853 142.246 57.1155C142.806 57.6458 143.114 58.3537 143.17 59.2403L136.907 59.2391Z" fill="#F7F7FF"></path>
    <path d="M154.332 54.47C153.837 54.9139 153.414 55.4525 153.065 56.0893L152.707 53.4012H149.29V67.9687H153.148V61.3212C153.148 60.5506 153.235 59.9102 153.41 59.3989C153.584 58.8887 153.841 58.4839 154.182 58.1844C154.522 57.8861 154.926 57.6695 155.394 57.5346C155.862 57.3997 156.373 57.3322 156.923 57.3322H158.218V53.0544C157.446 53.0544 156.73 53.1798 156.069 53.4307C155.408 53.6817 154.829 54.0285 154.332 54.4712V54.47Z" fill="#F7F7FF"></path>
    <path d="M168.856 59.8605C168.048 59.5622 167.102 59.297 166.017 59.0663C165.411 58.9313 164.901 58.7917 164.488 58.6472C164.075 58.5028 163.758 58.3288 163.538 58.1264C163.316 57.924 163.207 57.6979 163.207 57.447C163.207 57.0611 163.376 56.7534 163.717 56.5225C164.057 56.2905 164.539 56.1757 165.164 56.1757C165.77 56.1757 166.257 56.2905 166.625 56.5225C166.992 56.7534 167.221 57.0812 167.315 57.505H170.952C170.768 56.1367 170.184 55.0536 169.202 54.2534C168.219 53.4544 166.882 53.0532 165.192 53.0532C163.998 53.0532 162.975 53.2555 162.119 53.6604C161.265 54.0652 160.612 54.6145 160.161 55.3081C159.713 56.0017 159.487 56.7829 159.487 57.6494C159.487 58.362 159.633 58.9597 159.929 59.4415C160.222 59.9233 160.621 60.3233 161.127 60.6405C161.631 60.9589 162.201 61.2146 162.836 61.4064C163.47 61.5993 164.118 61.7733 164.779 61.9261C165.367 62.042 165.872 62.1675 166.295 62.3024C166.717 62.4373 167.039 62.6113 167.259 62.822C167.48 63.0339 167.59 63.3322 167.59 63.7181C167.59 63.988 167.511 64.239 167.356 64.4697C167.199 64.7017 166.97 64.8888 166.666 65.0344C166.362 65.1787 165.972 65.251 165.494 65.251C164.999 65.251 164.572 65.1646 164.214 64.9906C163.856 64.8177 163.57 64.5905 163.36 64.3111C163.148 64.0318 163.006 63.7181 162.933 63.3713H159.075C159.166 64.3159 159.479 65.1587 160.012 65.9008C160.545 66.643 161.28 67.2301 162.216 67.6645C163.153 68.0977 164.264 68.3143 165.552 68.3143C166.764 68.3143 167.811 68.112 168.692 67.7071C169.575 67.3023 170.258 66.7341 170.746 66.0014C171.232 65.2687 171.466 64.4401 171.448 63.5157C171.448 62.4752 171.218 61.681 170.76 61.1317C170.301 60.5826 169.666 60.1588 168.858 59.8605H168.856Z" fill="#F7F7FF"></path>
    <path d="M185.461 54.0652C184.46 53.3905 183.315 53.0532 182.03 53.0532C181.295 53.0532 180.647 53.1597 180.087 53.3716C179.527 53.5835 179.045 53.8675 178.641 54.2239C178.236 54.5813 177.896 54.9613 177.621 55.3661L177.18 53.4012H173.762V74.3275H177.621V66.1186C178.079 66.8123 178.682 67.352 179.426 67.7367C180.17 68.1226 181.047 68.3155 182.058 68.3155C183.308 68.3155 184.428 67.9877 185.42 67.3331C186.413 66.6785 187.202 65.7777 187.791 64.6308C188.378 63.4849 188.672 62.1781 188.672 60.714C188.672 59.2497 188.387 57.9441 187.817 56.7972C187.248 55.6501 186.463 54.7399 185.462 54.0664L185.461 54.0652ZM184.289 62.822C183.977 63.4387 183.545 63.9205 182.995 64.2673C182.443 64.6141 181.818 64.7869 181.12 64.7869C180.404 64.7869 179.774 64.6141 179.232 64.2673C178.69 63.9205 178.262 63.4387 177.951 62.822C177.638 62.2054 177.481 61.4928 177.481 60.6832C177.481 59.8937 177.637 59.1906 177.951 58.5739C178.262 57.9571 178.69 57.4706 179.232 57.1144C179.774 56.7581 180.404 56.5794 181.12 56.5794C181.818 56.5794 182.443 56.7581 182.995 57.1144C183.545 57.4718 183.977 57.9571 184.289 58.5739C184.602 59.1906 184.759 59.9031 184.759 60.7128C184.759 61.5035 184.602 62.2065 184.289 62.822Z" fill="#F7F7FF"></path>
    <path d="M195.01 53.4H191.15V67.9675H195.01V53.4Z" fill="#F7F7FF"></path>
    <path d="M193.081 47.0128C192.382 47.0128 191.813 47.2247 191.372 47.6485C190.931 48.0734 190.71 48.612 190.71 49.2666C190.71 49.9022 190.931 50.4373 191.372 50.8705C191.813 51.3037 192.382 51.5203 193.081 51.5203C193.779 51.5203 194.348 51.3037 194.789 50.8705C195.23 50.4373 195.451 49.9022 195.451 49.2666C195.451 48.612 195.23 48.0722 194.789 47.6485C194.348 47.2247 193.778 47.0128 193.081 47.0128Z" fill="#F7F7FF"></path>
    <path d="M210.87 56.0301C210.458 55.0666 209.855 54.3292 209.066 53.819C208.276 53.3089 207.311 53.0532 206.172 53.0532C205.07 53.0532 204.128 53.3041 203.347 53.8048C202.566 54.3067 201.964 54.9613 201.543 55.7709L201.267 53.4012H197.876V67.9687H201.734V60.1931C201.734 59.4036 201.867 58.7336 202.133 58.1844C202.4 57.6352 202.771 57.2114 203.25 56.9131C203.727 56.6149 204.26 56.4645 204.848 56.4645C205.822 56.4645 206.533 56.7675 206.983 57.3748C207.433 57.982 207.659 58.8449 207.659 59.9623V67.9687H211.49V59.5871C211.49 58.1809 211.284 56.996 210.87 56.0325V56.0301Z" fill="#F7F7FF"></path>
    <path d="M59.7166 57.6459C60.8037 57.6459 61.6849 58.57 61.6849 59.7101C61.6848 60.8502 60.8037 61.7743 59.7166 61.7743C58.6295 61.7742 57.7484 60.8501 57.7484 59.7101C57.7484 58.5701 58.6295 57.646 59.7166 57.6459Z" fill="url(#paint0_linear_1_2)"></path>
    <path fill-rule="evenodd" clip-rule="evenodd" d="M60.5698 44.0279L69.5602 43.1942V59.3736L71.5284 67.9676H67.2367L66.8433 70.0318H75.8049C75.5837 69.3867 75.4649 68.6896 75.4649 67.9676H85.6477V70.0318C85.6477 72.3127 83.8862 74.1601 81.7113 74.1601H66.0563L65.2685 78.2893H47.9055V62.2531C46.6945 61.1227 45.9373 59.4757 45.9373 57.6434C45.9373 56.9191 46.0572 56.224 46.2757 55.5775H42V43.1942L50.9904 44.0279L55.7801 37L60.5698 44.0279ZM51.842 55.5793C50.754 55.5793 49.8738 56.5036 49.8738 57.6434C49.8738 58.7833 50.754 59.7075 51.842 59.7076V74.1593H62.04L64.0082 63.8368H66.8274L65.6221 60.0424V55.5775H51.842V55.5793ZM50.9904 49.3875L45.9373 48.7422V51.4518L51.8085 51.4509C51.8196 51.4508 51.8308 51.4501 51.842 51.4501L65.6221 51.4492L65.6229 48.7422L60.5698 49.3875L55.7785 44.0279L50.9904 49.3875Z" fill="url(#paint1_linear_1_2)"></path>
    <path d="M79.403 47.3226C78.3149 47.3226 77.434 48.2477 77.434 49.3875C77.4341 50.5273 78.3151 51.4518 79.403 51.4518C82.6612 51.4519 85.3076 54.2284 85.3077 57.6443C85.3077 61.0615 82.6602 63.8374 79.403 63.8376V59.7092C80.4909 59.7091 81.3713 58.784 81.3713 57.6443C81.3711 56.5046 80.4908 55.5803 79.403 55.5801C76.1447 55.5801 73.4976 52.8035 73.4975 49.3875C73.4975 45.9715 76.1456 43.1942 79.403 43.1942V47.3226Z" fill="url(#paint2_linear_1_2)"></path>
  </g>
  <defs>
    <linearGradient id="paint0_linear_1_2" x1="63.824" y1="45.4704" x2="63.824" y2="77.1599" gradientUnits="userSpaceOnUse">
      <stop stop-color="#EDE28F"></stop>
      <stop offset="1" stop-color="#FFA94D"></stop>
    </linearGradient>
    <linearGradient id="paint1_linear_1_2" x1="63.824" y1="45.4704" x2="63.824" y2="77.1599" gradientUnits="userSpaceOnUse">
      <stop stop-color="#EDE28F"></stop>
      <stop offset="1" stop-color="#FFA94D"></stop>
    </linearGradient>
    <linearGradient id="paint2_linear_1_2" x1="63.824" y1="45.4704" x2="63.824" y2="77.1599" gradientUnits="userSpaceOnUse">
      <stop stop-color="#EDE28F"></stop>
      <stop offset="1" stop-color="#FFA94D"></stop>
    </linearGradient>
    <clipPath id="clip0_1_2">
      <rect width="170" height="42" fill="white" transform="translate(42 37)"></rect>
    </clipPath>
  </defs>
</svg>
