<?xml version="1.0" encoding="UTF-8"?>
<svg xmlns="http://www.w3.org/2000/svg" width="58" height="28" viewBox="0 0 58 28" fill="none">
  <path fill-rule="evenodd" clip-rule="evenodd" d="M46.5029 7.79213V20.5595H49.9996V7.16797L46.5029 7.79213Z" fill="#862165"></path>
  <path fill-rule="evenodd" clip-rule="evenodd" d="M41.3993 7.79189L44.8937 7.16772V20.5593H41.3993V7.79189Z" fill="#862165"></path>
  <path fill-rule="evenodd" clip-rule="evenodd" d="M36.4219 20.5585V10.7637H39.918V20.5585H36.4219Z" fill="#862165"></path>
  <path fill-rule="evenodd" clip-rule="evenodd" d="M36.4463 8.10544C36.4463 7.15547 37.2183 6.38477 38.1691 6.38477C39.1215 6.38477 39.893 7.15547 39.893 8.10544C39.893 9.05611 39.1215 9.82506 38.1691 9.82506C37.2183 9.82506 36.4463 9.05611 36.4463 8.10544Z" fill="#862165"></path>
  <path fill-rule="evenodd" clip-rule="evenodd" d="M34.4493 10.6204C31.2192 10.7244 29.5781 12.1717 29.5781 15.0487V20.5589H33.1033V16.0647C33.1033 14.3429 33.3295 13.6047 35.377 13.5342V10.6713C35.0327 10.5981 34.4493 10.6204 34.4493 10.6204Z" fill="#862165"></path>
  <path fill-rule="evenodd" clip-rule="evenodd" d="M24.9653 10.7535C24.888 10.9491 24.3292 12.5278 22.9742 14.1636V7.16797L19.3662 7.88044V20.5595H22.9742V16.6398C24.019 18.2046 24.5352 20.5595 24.5352 20.5595H28.856C28.4288 18.7857 26.5593 15.516 26.5593 15.516C28.2378 13.3912 28.9742 11.1285 29.0918 10.7535H24.9653Z" fill="#862165"></path>
  <path fill-rule="evenodd" clip-rule="evenodd" d="M13.3158 12.1498C12.874 12.1213 11.8505 12.0548 11.8505 11.1355C11.8505 10.0262 13.323 10.0262 13.8756 10.0262C14.8476 10.0262 16.1051 10.3123 17.0043 10.5811C17.0043 10.5811 17.5049 10.7577 17.931 10.9377L17.9708 10.9489V7.91037L17.9176 7.89419C16.856 7.5237 15.6236 7.16772 13.3376 7.16772C9.39639 7.16772 8 9.45838 8 11.4227C8 12.5539 8.48599 15.2184 12.9982 15.5252C13.3818 15.5487 14.3974 15.6074 14.3974 16.5574C14.3974 17.3421 13.566 17.8037 12.1679 17.8037C10.636 17.8037 9.14892 17.4147 8.24635 17.0441V20.1726C9.59796 20.5274 11.122 20.7029 12.9081 20.7029C16.7602 20.7029 18.487 18.5351 18.487 16.3858C18.487 13.9499 16.5559 12.3666 13.3158 12.1498Z" fill="#862165"></path>
</svg>
