<?xml version="1.0" encoding="UTF-8"?>
<svg xmlns="http://www.w3.org/2000/svg" width="28" height="28" viewBox="0 0 28 28" fill="none">
  <g clip-path="url(#clip0_331_7040)">
    <path d="M14 26C20.6274 26 26 20.6274 26 14C26 7.37258 20.6274 2 14 2C7.37258 2 2 7.37258 2 14C2 20.6274 7.37258 26 14 26Z" fill="#26A17B"></path>
    <path fill-rule="evenodd" clip-rule="evenodd" d="M15.4421 15.0382V15.0367C15.3596 15.0427 14.9343 15.0682 13.9856 15.0682C13.2281 15.0682 12.6948 15.0457 12.5073 15.0367V15.039C9.59134 14.9107 7.41484 14.403 7.41484 13.7955C7.41484 13.1887 9.59134 12.681 12.5073 12.5505V14.5335C12.6978 14.547 13.2438 14.5792 13.9983 14.5792C14.9036 14.5792 15.3573 14.5417 15.4421 14.5342V12.552C18.3521 12.6817 20.5233 13.1895 20.5233 13.7955C20.5233 14.403 18.3521 14.9092 15.4421 15.0382ZM15.4421 12.3457V10.5712H19.5026V7.86523H8.44684V10.5712H12.5073V12.345C9.20734 12.4965 6.72559 13.1505 6.72559 13.9335C6.72559 14.7165 9.20734 15.3697 12.5073 15.522V21.2085H15.4421V15.5205C18.7368 15.369 21.2126 14.7157 21.2126 13.9335C21.2126 13.1512 18.7368 12.498 15.4421 12.3457Z" fill="white"></path>
  </g>
  <defs>
    <clipPath id="clip0_331_7040">
      <rect width="24" height="24" fill="white" transform="translate(2 2)"></rect>
    </clipPath>
  </defs>
</svg>
