<?xml version="1.0" encoding="UTF-8"?>
<svg xmlns="http://www.w3.org/2000/svg" width="60" height="28" viewBox="0 0 60 28" fill="none">
  <path d="M20.2894 18.5088V11.2724H17.5704V9.55273H24.9719V11.2724H22.2459V18.5088H20.2894Z" fill="#0CD367"></path>
  <path d="M24.6572 18.509V12.0117H26.4573V13.0403C26.8832 12.1678 27.4349 12.0117 28.0214 12.0117H28.7197V13.7461H28.1303C27.284 13.7461 26.5271 14.2117 26.5271 15.6366V18.5077H24.6572V18.509Z" fill="#0CD367"></path>
  <path d="M29.5635 16.1329V12.0118H31.425V15.7327C31.425 16.4933 31.8119 17.0562 32.6078 17.0562C33.3759 17.0562 33.8647 16.4931 33.8647 15.7433V12.0117H35.7262V18.5143H33.9596V17.6952C33.5113 18.3435 32.8424 18.665 31.9975 18.665C30.4991 18.6597 29.5635 17.6792 29.5635 16.1329Z" fill="#0CD367"></path>
  <path d="M36.5205 16.6822L38.1404 16.3287C38.2187 16.8316 38.639 17.2119 39.4531 17.2119C40.0816 17.2119 40.4307 16.9652 40.4307 16.6596C40.4307 16.4128 40.291 16.2313 39.6458 16.0966L38.5803 15.8765C37.2173 15.5923 36.6405 14.9932 36.6405 13.8993C36.6405 12.7853 37.6055 11.8848 39.4153 11.8848C41.3383 11.8848 42.112 12.9881 42.1902 13.7112L40.559 14.0541C40.4808 13.6739 40.189 13.2535 39.3762 13.2535C38.8609 13.2535 38.4796 13.4736 38.4796 13.7952C38.4796 14.062 38.6708 14.2127 39.006 14.2875L40.5589 14.6303C41.7417 14.8878 42.292 15.5642 42.292 16.5208C42.292 17.5494 41.4345 18.6314 39.4654 18.6314C37.3011 18.6327 36.5945 17.3946 36.5205 16.6822Z" fill="#0CD367"></path>
  <path d="M45.868 18.5093C44.6629 18.5093 43.8556 17.8716 43.8556 16.6082V13.5649H42.7119V12.0067H43.8556V10.5605L45.7171 10.0469V12.0068H47.0872V13.5651H45.713V16.2867C45.713 16.7629 45.9713 16.9537 46.47 16.9537H47.1878V18.512L45.868 18.5093Z" fill="#0CD367"></path>
  <path d="M48.2041 18.5093V9.55859H50.0656V18.5146H48.2041V18.5093Z" fill="#0CD367"></path>
  <path d="M55.6755 12.0117H57.6655L54.8277 20.845H52.8377L53.6226 18.5143H52.5961L50.7178 12.0117H52.7147L54.1112 17.0414L55.6755 12.0117Z" fill="#0CD367"></path>
  <path d="M1.5957 13.4794H5.96404V10.148L9.45109 13.4794L5.96404 16.8053V18.509H10.1968V13.4794H14.0818V9.55835H1.5957V13.4794Z" fill="#0CD367"></path>
</svg>
