<svg preserveAspectRatio="none" width="100%" height="100%" overflow="visible" style="display: block;" viewBox="0 0 32 32" fill="none" xmlns="http://www.w3.org/2000/svg">
<g id="shield-tick">
<path id="Vector" d="M16.001 30.347C14.5477 30.347 13.1077 29.9203 11.9744 29.0803L6.24104 24.8003C4.72104 23.667 3.53437 21.2936 3.53437 19.4136V9.49365C3.53437 7.44031 5.04104 5.25365 6.97437 4.53365L13.6277 2.04031C14.9477 1.54698 17.0277 1.54698 18.3477 2.04031L25.001 4.53365C26.9344 5.25365 28.441 7.44031 28.441 9.49365V19.4003C28.441 21.2936 27.2544 23.6536 25.7344 24.787L20.001 29.067C18.8944 29.9203 17.4544 30.347 16.001 30.347ZM14.3344 3.92031L7.68104 6.41365C6.54771 6.84031 5.54771 8.28031 5.54771 9.50698V19.4136C5.54771 20.6803 6.44104 22.4536 7.44104 23.2003L13.1744 27.4803C14.7077 28.627 17.2944 28.627 18.841 27.4803L24.5744 23.2003C25.5877 22.4403 26.4677 20.6803 26.4677 19.4136V9.49365C26.4677 8.28031 25.4677 6.84031 24.3344 6.40031L17.681 3.90698C16.7744 3.58698 15.2277 3.58698 14.3344 3.92031Z" fill="var(--fill-0, #20CE79)"/>
<path id="Vector_2" d="M14.2136 18.9735C13.9603 18.9735 13.707 18.8802 13.507 18.6802L11.3603 16.5335C10.9736 16.1468 10.9736 15.5068 11.3603 15.1202C11.747 14.7335 12.387 14.7335 12.7736 15.1202L14.2136 16.5602L19.2403 11.5335C19.627 11.1468 20.267 11.1468 20.6536 11.5335C21.0403 11.9202 21.0403 12.5602 20.6536 12.9468L14.9203 18.6802C14.7203 18.8802 14.467 18.9735 14.2136 18.9735Z" fill="var(--fill-0, #20CE79)"/>
<g id="Vector_3" opacity="0">
</g>
</g>
</svg>
