<svg preserveAspectRatio="none" width="100%" height="100%" overflow="visible" style="display: block;" viewBox="0 0 16 16" fill="none" xmlns="http://www.w3.org/2000/svg">
<g id="sms">
<path id="Vector" d="M11.3333 14.1667H4.66667C2.23333 14.1667 0.833333 12.7667 0.833333 10.3333V5.66667C0.833333 3.23333 2.23333 1.83333 4.66667 1.83333H11.3333C13.7667 1.83333 15.1667 3.23333 15.1667 5.66667V10.3333C15.1667 12.7667 13.7667 14.1667 11.3333 14.1667ZM4.66667 2.83333C2.76 2.83333 1.83333 3.76 1.83333 5.66667V10.3333C1.83333 12.24 2.76 13.1667 4.66667 13.1667H11.3333C13.24 13.1667 14.1667 12.24 14.1667 10.3333V5.66667C14.1667 3.76 13.24 2.83333 11.3333 2.83333H4.66667Z" fill="var(--fill-0, #6D51E0)"/>
<path id="Vector_2" d="M7.99985 8.57998C7.43985 8.57998 6.87319 8.40665 6.43985 8.05331L4.35318 6.38665C4.13985 6.21331 4.09985 5.89998 4.27319 5.68665C4.44652 5.47331 4.75986 5.43332 4.97319 5.60665L7.05985 7.27332C7.56652 7.67998 8.42651 7.67998 8.93318 7.27332L11.0199 5.60665C11.2332 5.43332 11.5532 5.46665 11.7199 5.68665C11.8932 5.89998 11.8599 6.21998 11.6399 6.38665L9.55319 8.05331C9.12652 8.40665 8.55985 8.57998 7.99985 8.57998Z" fill="var(--fill-0, #6D51E0)"/>
<g id="Vector_3" opacity="0">
</g>
</g>
</svg>
