<svg preserveAspectRatio="none" width="100%" height="100%" overflow="visible" style="display: block;" viewBox="0 0 16 16" fill="none" xmlns="http://www.w3.org/2000/svg">
<g id="call">
<path id="Vector" d="M11.6336 15.1666C10.8803 15.1666 10.087 14.9866 9.26697 14.64C8.46697 14.3 7.66031 13.8333 6.87364 13.2666C6.09364 12.6933 5.34031 12.0533 4.62697 11.3533C3.92031 10.64 3.28031 9.88663 2.71364 9.1133C2.14031 8.3133 1.68031 7.51329 1.35364 6.73996C1.00697 5.91329 0.83364 5.1133 0.83364 4.35996C0.83364 3.83996 0.926973 3.34663 1.10697 2.88663C1.29364 2.4133 1.59364 1.9733 2.00031 1.5933C2.51364 1.08663 3.10031 0.833295 3.72697 0.833295C3.98697 0.833295 4.25364 0.893295 4.48031 0.999962C4.74031 1.11996 4.96031 1.29996 5.12031 1.53996L6.66697 3.71996C6.80697 3.9133 6.91364 4.09996 6.98697 4.28663C7.07364 4.48663 7.12031 4.68663 7.12031 4.87996C7.12031 5.1333 7.04697 5.37996 6.90697 5.6133C6.80697 5.7933 6.65364 5.98663 6.46031 6.17996L6.00697 6.65329C6.01364 6.67329 6.02031 6.68663 6.02697 6.69996C6.10697 6.83996 6.26697 7.07996 6.57364 7.43996C6.90031 7.8133 7.20697 8.1533 7.51364 8.46663C7.90697 8.8533 8.23364 9.15996 8.54031 9.4133C8.92031 9.7333 9.16697 9.8933 9.31364 9.96663L9.30031 9.99996L9.78697 9.51996C9.99364 9.3133 10.1936 9.15996 10.387 9.05996C10.7536 8.8333 11.2203 8.79329 11.687 8.98663C11.8603 9.05996 12.047 9.15996 12.247 9.29996L14.4603 10.8733C14.707 11.04 14.887 11.2533 14.9936 11.5066C15.0936 11.76 15.1403 11.9933 15.1403 12.2266C15.1403 12.5466 15.067 12.8666 14.927 13.1666C14.787 13.4666 14.6136 13.7266 14.3936 13.9666C14.0136 14.3866 13.6003 14.6866 13.1203 14.88C12.6603 15.0666 12.1603 15.1666 11.6336 15.1666ZM3.72697 1.8333C3.36031 1.8333 3.02031 1.9933 2.69364 2.3133C2.38697 2.59996 2.17364 2.9133 2.04031 3.2533C1.90031 3.59996 1.83364 3.96663 1.83364 4.35996C1.83364 4.97996 1.98031 5.6533 2.27364 6.34663C2.57364 7.0533 2.99364 7.78663 3.52697 8.51996C4.06031 9.2533 4.66697 9.96663 5.33364 10.64C6.00031 11.3 6.72031 11.9133 7.46031 12.4533C8.18031 12.98 8.92031 13.4066 9.65364 13.7133C10.7936 14.2 11.8603 14.3133 12.7403 13.9466C13.0803 13.8066 13.3803 13.5933 13.6536 13.2866C13.807 13.12 13.927 12.94 14.027 12.7266C14.107 12.56 14.147 12.3866 14.147 12.2133C14.147 12.1066 14.127 12 14.0736 11.88C14.0536 11.84 14.0136 11.7666 13.887 11.68L11.6736 10.1066C11.5403 10.0133 11.4203 9.94663 11.307 9.89996C11.1603 9.83996 11.1003 9.77996 10.8736 9.91996C10.7403 9.98663 10.6203 10.0866 10.487 10.22L9.98031 10.72C9.72031 10.9733 9.32031 11.0333 9.01364 10.92L8.83364 10.84C8.56031 10.6933 8.24031 10.4666 7.88697 10.1666C7.56697 9.8933 7.22031 9.5733 6.80031 9.15996C6.47364 8.82663 6.14697 8.4733 5.80697 8.07996C5.49364 7.7133 5.26697 7.39996 5.12697 7.13996L5.04697 6.93996C5.00697 6.78663 4.99364 6.69996 4.99364 6.60663C4.99364 6.36663 5.08031 6.15329 5.24697 5.98663L5.74697 5.46663C5.88031 5.3333 5.98031 5.20663 6.04697 5.0933C6.10031 5.00663 6.12031 4.9333 6.12031 4.86663C6.12031 4.8133 6.10031 4.7333 6.06697 4.6533C6.02031 4.54663 5.94697 4.42663 5.85364 4.29996L4.30697 2.1133C4.24031 2.01996 4.16031 1.9533 4.06031 1.90663C3.95364 1.85996 3.84031 1.8333 3.72697 1.8333ZM9.30031 10.0066L9.19364 10.46L9.37364 9.9933C9.34031 9.98663 9.31364 9.9933 9.30031 10.0066Z" fill="var(--fill-0, #6D51E0)"/>
<g id="Vector_2" opacity="0">
</g>
</g>
</svg>
