<svg preserveAspectRatio="none" width="100%" height="100%" overflow="visible" style="display: block;" viewBox="0 0 16 16" fill="none" xmlns="http://www.w3.org/2000/svg">
<g id="game">
<path id="Vector" d="M4.34664 10.8399C4.21997 10.8399 4.09331 10.7933 3.99331 10.6933C3.79997 10.4999 3.79997 10.1799 3.99331 9.9866L6.02664 7.95327C6.21997 7.75993 6.53997 7.75993 6.73331 7.95327C6.92664 8.1466 6.92664 8.4666 6.73331 8.65993L4.69997 10.6933C4.59997 10.7866 4.47331 10.8399 4.34664 10.8399Z" fill="var(--fill-0, #6D51E0)"/>
<path id="Vector_2" d="M6.40016 10.8601C6.27349 10.8601 6.14682 10.8135 6.04682 10.7135L4.01349 8.68012C3.82016 8.48678 3.82016 8.16678 4.01349 7.97345C4.20682 7.78012 4.52682 7.78012 4.72016 7.97345L6.75349 10.0068C6.94682 10.2001 6.94682 10.5201 6.75349 10.7135C6.65349 10.8135 6.52682 10.8601 6.40016 10.8601Z" fill="var(--fill-0, #6D51E0)"/>
<path id="Vector_3" d="M9.02685 10C8.66018 10 8.35352 9.7 8.35352 9.33333C8.35352 8.96667 8.64685 8.66667 9.01352 8.66667H9.02685C9.39352 8.66667 9.69352 8.96667 9.69352 9.33333C9.69352 9.7 9.40018 10 9.02685 10Z" fill="var(--fill-0, #6D51E0)"/>
<path id="Vector_4" d="M11.6532 10C11.2865 10 10.9798 9.7 10.9798 9.33333C10.9798 8.96667 11.2732 8.66667 11.6398 8.66667H11.6532C12.0198 8.66667 12.3198 8.96667 12.3198 9.33333C12.3198 9.7 12.0198 10 11.6532 10Z" fill="var(--fill-0, #6D51E0)"/>
<path id="Vector_5" d="M10.3333 11.3133C9.96667 11.3133 9.66667 11.02 9.66667 10.6533V10.64C9.66667 10.2733 9.96667 9.97331 10.3333 9.97331C10.7 9.97331 11 10.2733 11 10.64C11 11.0066 10.7067 11.3133 10.3333 11.3133Z" fill="var(--fill-0, #6D51E0)"/>
<path id="Vector_6" d="M10.3333 8.68668C9.96667 8.68668 9.66667 8.39335 9.66667 8.02668V8.01335C9.66667 7.64668 9.96667 7.34668 10.3333 7.34668C10.7 7.34668 11 7.64668 11 8.01335C11 8.38001 10.7067 8.68668 10.3333 8.68668Z" fill="var(--fill-0, #6D51E0)"/>
<path id="Vector_7" d="M10 15.1667H6C2.38 15.1667 0.833333 13.62 0.833333 10V8.66667C0.833333 5.04667 2.38 3.5 6 3.5H10C13.62 3.5 15.1667 5.04667 15.1667 8.66667V10C15.1667 13.62 13.62 15.1667 10 15.1667ZM6 4.5C2.92667 4.5 1.83333 5.59333 1.83333 8.66667V10C1.83333 13.0733 2.92667 14.1667 6 14.1667H10C13.0733 14.1667 14.1667 13.0733 14.1667 10V8.66667C14.1667 5.59333 13.0733 4.5 10 4.5H6Z" fill="var(--fill-0, #6D51E0)"/>
<path id="Vector_8" d="M8.66016 4.5H7.99349C7.35349 4.5 6.82682 3.97333 6.82682 3.33333C6.82682 2.69333 7.34682 2.16667 7.98682 2.16667C8.09349 2.16667 8.16682 2.09333 8.17349 2L8.18016 1.32667C8.18682 1.05333 8.40682 0.833333 8.68016 0.833333H8.68682C8.96016 0.84 9.18682 1.06667 9.18016 1.34L9.17349 2.01333C9.16682 2.64667 8.64016 3.16667 8.00682 3.16667C7.90016 3.16667 7.83349 3.24 7.83349 3.33333C7.83349 3.42667 7.90682 3.5 8.00016 3.5H8.66682C8.94016 3.5 9.16682 3.72667 9.16682 4C9.16682 4.27333 8.93349 4.5 8.66016 4.5Z" fill="var(--fill-0, #6D51E0)"/>
<g id="Vector_9" opacity="0">
</g>
</g>
</svg>
