<svg preserveAspectRatio="none" width="100%" height="100%" overflow="visible" style="display: block;" viewBox="0 0 16 16" fill="none" xmlns="http://www.w3.org/2000/svg">
<g id="clock">
<path id="Vector" d="M8 15.1667C4.04667 15.1667 0.833333 11.9533 0.833333 8C0.833333 4.04667 4.04667 0.833333 8 0.833333C11.9533 0.833333 15.1667 4.04667 15.1667 8C15.1667 11.9533 11.9533 15.1667 8 15.1667ZM8 1.83333C4.6 1.83333 1.83333 4.6 1.83333 8C1.83333 11.4 4.6 14.1667 8 14.1667C11.4 14.1667 14.1667 11.4 14.1667 8C14.1667 4.6 11.4 1.83333 8 1.83333Z" fill="var(--fill-0, #6D51E0)"/>
<path id="Vector_2" d="M10.4731 10.6198C10.3864 10.6198 10.2998 10.5998 10.2198 10.5465L8.1531 9.31318C7.63977 9.00651 7.25977 8.33318 7.25977 7.73984V5.00651C7.25977 4.73318 7.48643 4.50651 7.75977 4.50651C8.0331 4.50651 8.25977 4.73318 8.25977 5.00651V7.73984C8.25977 7.97984 8.45977 8.33318 8.66643 8.45318L10.7331 9.68651C10.9731 9.82651 11.0464 10.1332 10.9064 10.3732C10.8064 10.5332 10.6398 10.6198 10.4731 10.6198Z" fill="var(--fill-0, #6D51E0)"/>
<g id="Vector_3" opacity="0">
</g>
</g>
</svg>
