<svg preserveAspectRatio="none" width="100%" height="100%" overflow="visible" style="display: block;" viewBox="0 0 16 16" fill="none" xmlns="http://www.w3.org/2000/svg">
<g id="document-copy">
<path id="Vector" d="M7.59967 15.1665H5.06634C2.13967 15.1665 0.833008 13.8598 0.833008 10.9332V8.39984C0.833008 5.47317 2.13967 4.1665 5.06634 4.1665H7.06634C7.33967 4.1665 7.56634 4.39317 7.56634 4.6665C7.56634 4.93984 7.33967 5.1665 7.06634 5.1665H5.06634C2.67967 5.1665 1.83301 6.01317 1.83301 8.39984V10.9332C1.83301 13.3198 2.67967 14.1665 5.06634 14.1665H7.59967C9.98634 14.1665 10.833 13.3198 10.833 10.9332V8.93317C10.833 8.65984 11.0597 8.43317 11.333 8.43317C11.6063 8.43317 11.833 8.65984 11.833 8.93317V10.9332C11.833 13.8598 10.5263 15.1665 7.59967 15.1665Z" fill="var(--fill-0, #6D51E0)"/>
<path id="Vector_2" d="M11.3331 9.43333H9.19974C7.32641 9.43333 6.56641 8.67333 6.56641 6.79999V4.66666C6.56641 4.46666 6.68641 4.27999 6.87307 4.20666C7.05974 4.12666 7.27307 4.17333 7.41974 4.31333L11.6864 8.57999C11.8264 8.71999 11.8731 8.93999 11.7931 9.12666C11.7197 9.31333 11.5331 9.43333 11.3331 9.43333ZM7.56641 5.87333V6.79999C7.56641 8.12666 7.87307 8.43333 9.19974 8.43333H10.1264L7.56641 5.87333Z" fill="var(--fill-0, #6D51E0)"/>
<path id="Vector_3" d="M10.4001 1.8335H7.7334C7.46007 1.8335 7.2334 1.60683 7.2334 1.3335C7.2334 1.06016 7.46007 0.833496 7.7334 0.833496H10.4001C10.6734 0.833496 10.9001 1.06016 10.9001 1.3335C10.9001 1.60683 10.6734 1.8335 10.4001 1.8335Z" fill="var(--fill-0, #6D51E0)"/>
<path id="Vector_4" d="M4.66699 3.8335C4.39366 3.8335 4.16699 3.60683 4.16699 3.3335C4.16699 1.9535 5.28699 0.833496 6.66699 0.833496H8.41366C8.68699 0.833496 8.91366 1.06016 8.91366 1.3335C8.91366 1.60683 8.68699 1.8335 8.41366 1.8335H6.66699C5.84033 1.8335 5.16699 2.50683 5.16699 3.3335C5.16699 3.60683 4.94033 3.8335 4.66699 3.8335Z" fill="var(--fill-0, #6D51E0)"/>
<path id="Vector_5" d="M12.7939 11.8335C12.5206 11.8335 12.2939 11.6068 12.2939 11.3335C12.2939 11.0602 12.5206 10.8335 12.7939 10.8335C13.5539 10.8335 14.1673 10.2135 14.1673 9.46016V5.3335C14.1673 5.06016 14.3939 4.8335 14.6673 4.8335C14.9406 4.8335 15.1673 5.06016 15.1673 5.3335V9.46016C15.1673 10.7668 14.1006 11.8335 12.7939 11.8335Z" fill="var(--fill-0, #6D51E0)"/>
<path id="Vector_6" d="M14.667 5.83349H12.667C10.8937 5.83349 10.167 5.10682 10.167 3.33349V1.33349C10.167 1.13349 10.287 0.946822 10.4737 0.873489C10.6603 0.793489 10.8737 0.840155 11.0203 0.980155L15.0203 4.98016C15.1603 5.12016 15.207 5.34016 15.127 5.52682C15.0537 5.71349 14.867 5.83349 14.667 5.83349ZM11.167 2.54016V3.33349C11.167 4.55349 11.447 4.83349 12.667 4.83349H13.4603L11.167 2.54016Z" fill="var(--fill-0, #6D51E0)"/>
<g id="Vector_7" opacity="0">
</g>
</g>
</svg>
