<svg preserveAspectRatio="none" width="100%" height="100%" overflow="visible" style="display: block;" viewBox="0 0 14.3467 13.5879" fill="none" xmlns="http://www.w3.org/2000/svg">
<g id="vuesax/outline/setting-2">
<g id="Vector">
<path d="M7.16675 9.29186C5.78675 9.29186 4.66675 8.17186 4.66675 6.79186C4.66675 5.41186 5.78675 4.29186 7.16675 4.29186C8.54675 4.29186 9.66675 5.41186 9.66675 6.79186C9.66675 8.17186 8.54675 9.29186 7.16675 9.29186ZM7.16675 5.29186C6.34008 5.29186 5.66675 5.96519 5.66675 6.79186C5.66675 7.61852 6.34008 8.29186 7.16675 8.29186C7.99341 8.29186 8.66675 7.61852 8.66675 6.79186C8.66675 5.96519 7.99341 5.29186 7.16675 5.29186Z" fill="#6D51E0"/>
<path d="M9.30675 13.5852C9.16675 13.5852 9.02675 13.5652 8.88675 13.5319C8.47341 13.4185 8.12675 13.1585 7.90675 12.7919L7.82675 12.6585C7.43341 11.9785 6.89342 11.9785 6.50008 12.6585L6.42675 12.7852C6.20675 13.1585 5.86008 13.4252 5.44675 13.5319C5.02675 13.6452 4.59342 13.5852 4.22675 13.3652L3.08008 12.7052C2.67341 12.4719 2.38008 12.0919 2.25341 11.6319C2.13341 11.1719 2.19341 10.6985 2.42675 10.2919C2.62008 9.95186 2.67341 9.64519 2.56008 9.45186C2.44675 9.25852 2.16008 9.14519 1.76675 9.14519C0.793415 9.14519 8.13802e-05 8.35186 8.13802e-05 7.37852V6.20519C8.13802e-05 5.23186 0.793415 4.43852 1.76675 4.43852C2.16008 4.43852 2.44675 4.32519 2.56008 4.13186C2.67341 3.93852 2.62675 3.63186 2.42675 3.29186C2.19341 2.88519 2.13341 2.40519 2.25341 1.95186C2.37341 1.49186 2.66675 1.11186 3.08008 0.878524L4.23341 0.218524C4.98675 -0.228142 5.98008 0.0318576 6.43341 0.798524L6.51342 0.931858C6.90675 1.61186 7.44675 1.61186 7.84008 0.931858L7.91341 0.805191C8.36675 0.0318576 9.36008 -0.228142 10.1201 0.225191L11.2667 0.885191C11.6734 1.11852 11.9667 1.49852 12.0934 1.95852C12.2134 2.41852 12.1534 2.89186 11.9201 3.29852C11.7267 3.63852 11.6734 3.94519 11.7867 4.13852C11.9001 4.33186 12.1867 4.44519 12.5801 4.44519C13.5534 4.44519 14.3467 5.23852 14.3467 6.21186V7.38519C14.3467 8.35852 13.5534 9.15186 12.5801 9.15186C12.1867 9.15186 11.9001 9.26519 11.7867 9.45852C11.6734 9.65186 11.7201 9.95852 11.9201 10.2985C12.1534 10.7052 12.2201 11.1852 12.0934 11.6385C11.9734 12.0985 11.6801 12.4785 11.2667 12.7119L10.1134 13.3719C9.86008 13.5119 9.58675 13.5852 9.30675 13.5852ZM7.16675 11.1185C7.76008 11.1185 8.31342 11.4919 8.69341 12.1519L8.76675 12.2785C8.84675 12.4185 8.98008 12.5185 9.14008 12.5585C9.30008 12.5985 9.46008 12.5785 9.59342 12.4985L10.7467 11.8319C10.9201 11.7319 11.0534 11.5652 11.1067 11.3652C11.1601 11.1652 11.1334 10.9585 11.0334 10.7852C10.6534 10.1319 10.6067 9.45852 10.9001 8.94519C11.1934 8.43186 11.8001 8.13852 12.5601 8.13852C12.9867 8.13852 13.3267 7.79852 13.3267 7.37186V6.19852C13.3267 5.77852 12.9867 5.43186 12.5601 5.43186C11.8001 5.43186 11.1934 5.13852 10.9001 4.62519C10.6067 4.11186 10.6534 3.43852 11.0334 2.78519C11.1334 2.61186 11.1601 2.40519 11.1067 2.20519C11.0534 2.00519 10.9267 1.84519 10.7534 1.73852L9.60008 1.07852C9.31341 0.905191 8.93342 1.00519 8.76008 1.29852L8.68675 1.42519C8.30675 2.08519 7.75342 2.45852 7.16008 2.45852C6.56675 2.45852 6.01341 2.08519 5.63341 1.42519L5.56008 1.29186C5.39341 1.01186 5.02008 0.911858 4.73342 1.07852L3.58008 1.74519C3.40675 1.84519 3.27341 2.01186 3.22008 2.21186C3.16675 2.41186 3.19341 2.61852 3.29341 2.79186C3.67341 3.44519 3.72008 4.11852 3.42675 4.63186C3.13341 5.14519 2.52675 5.43852 1.76675 5.43852C1.34008 5.43852 1.00008 5.77852 1.00008 6.20519V7.37852C1.00008 7.79852 1.34008 8.14519 1.76675 8.14519C2.52675 8.14519 3.13341 8.43852 3.42675 8.95186C3.72008 9.46519 3.67341 10.1385 3.29341 10.7919C3.19341 10.9652 3.16675 11.1719 3.22008 11.3719C3.27341 11.5719 3.40008 11.7319 3.57341 11.8385L4.72675 12.4985C4.86675 12.5852 5.03341 12.6052 5.18675 12.5652C5.34675 12.5252 5.48008 12.4185 5.56675 12.2785L5.64008 12.1519C6.02008 11.4985 6.57341 11.1185 7.16675 11.1185Z" fill="#6D51E0"/>
</g>
</g>
</svg>
