<svg preserveAspectRatio="none" width="100%" height="100%" overflow="visible" style="display: block;" viewBox="0 0 16 16" fill="none" xmlns="http://www.w3.org/2000/svg">
<g id="mobile">
<path id="Vector" d="M10.0003 15.1668H6.00033C3.06033 15.1668 2.16699 14.2735 2.16699 11.3335V4.66683C2.16699 1.72683 3.06033 0.833496 6.00033 0.833496H10.0003C12.9403 0.833496 13.8337 1.72683 13.8337 4.66683V11.3335C13.8337 14.2735 12.9403 15.1668 10.0003 15.1668ZM6.00033 1.8335C3.61366 1.8335 3.16699 2.28683 3.16699 4.66683V11.3335C3.16699 13.7135 3.61366 14.1668 6.00033 14.1668H10.0003C12.387 14.1668 12.8337 13.7135 12.8337 11.3335V4.66683C12.8337 2.28683 12.387 1.8335 10.0003 1.8335H6.00033Z" fill="var(--fill-0, #6D51E0)"/>
<path id="Vector_2" d="M9.33366 4.1665H6.66699C6.39366 4.1665 6.16699 3.93984 6.16699 3.6665C6.16699 3.39317 6.39366 3.1665 6.66699 3.1665H9.33366C9.60699 3.1665 9.83366 3.39317 9.83366 3.6665C9.83366 3.93984 9.60699 4.1665 9.33366 4.1665Z" fill="var(--fill-0, #6D51E0)"/>
<path id="Vector_3" d="M8.00013 13.2398C7.15346 13.2398 6.4668 12.5532 6.4668 11.7065C6.4668 10.8598 7.15346 10.1732 8.00013 10.1732C8.8468 10.1732 9.53346 10.8598 9.53346 11.7065C9.53346 12.5532 8.8468 13.2398 8.00013 13.2398ZM8.00013 11.1665C7.7068 11.1665 7.4668 11.4065 7.4668 11.6998C7.4668 11.9932 7.7068 12.2332 8.00013 12.2332C8.29346 12.2332 8.53346 11.9932 8.53346 11.6998C8.53346 11.4065 8.29346 11.1665 8.00013 11.1665Z" fill="var(--fill-0, #6D51E0)"/>
<g id="Vector_4" opacity="0">
</g>
</g>
</svg>
