<svg preserveAspectRatio="none" width="100%" height="100%" overflow="visible" style="display: block;" viewBox="0 0 16 16" fill="none" xmlns="http://www.w3.org/2000/svg">
<g id="24-support">
<path id="Vector" d="M8 15.1665C7.53333 15.1665 7.06 14.9865 6.70667 14.6331L5.56667 13.5065C5.28 13.2265 4.90666 13.0732 4.50666 13.0732H4C2.62 13.0732 1.5 11.9598 1.5 10.5932V3.31982C1.5 1.95316 2.62 0.839844 4 0.839844H12C13.38 0.839844 14.5 1.95316 14.5 3.31982V10.5932C14.5 11.9598 13.38 13.0732 12 13.0732H11.4933C11.0933 13.0732 10.7133 13.2265 10.4333 13.5065L9.29334 14.6331C8.94 14.9865 8.46667 15.1665 8 15.1665ZM4 1.83317C3.17333 1.83317 2.5 2.49982 2.5 3.31315V10.5865C2.5 11.4065 3.17333 12.0665 4 12.0665H4.50666C5.17333 12.0665 5.8 12.3265 6.27334 12.7931L7.41333 13.9198C7.74 14.2398 8.26667 14.2398 8.59333 13.9198L9.73334 12.7931C10.2067 12.3265 10.8333 12.0665 11.5 12.0665H12C12.8267 12.0665 13.5 11.3998 13.5 10.5865V3.31315C13.5 2.49315 12.8267 1.83317 12 1.83317H4Z" fill="var(--fill-0, #6D51E0)"/>
<path id="Vector_2" d="M6.92016 9.67334H5.13348C4.84015 9.67334 4.56682 9.53329 4.39348 9.29329C4.22682 9.06663 4.18682 8.78669 4.26682 8.52002C4.50015 7.80669 5.07348 7.41999 5.58015 7.07332C6.11348 6.71332 6.41348 6.48668 6.41348 6.10002C6.41348 5.75335 6.13348 5.47331 5.78681 5.47331C5.44015 5.47331 5.16016 5.75335 5.16016 6.10002C5.16016 6.37335 4.93349 6.60002 4.66016 6.60002C4.38682 6.60002 4.16016 6.37335 4.16016 6.10002C4.16016 5.20668 4.88681 4.47331 5.78681 4.47331C6.68681 4.47331 7.41348 5.20002 7.41348 6.10002C7.41348 7.04002 6.70682 7.51999 6.14016 7.90666C5.78682 8.14666 5.45348 8.37334 5.28681 8.67334H6.91348C7.18682 8.67334 7.41348 8.90001 7.41348 9.17334C7.41348 9.44667 7.19349 9.67334 6.92016 9.67334Z" fill="var(--fill-0, #6D51E0)"/>
<path id="Vector_3" d="M10.6932 9.6733C10.4199 9.6733 10.1932 9.44663 10.1932 9.1733V8.71326H8.88659C8.88659 8.71326 8.88659 8.71326 8.87992 8.71326C8.55326 8.71326 8.25326 8.53997 8.08659 8.25997C7.91992 7.9733 7.91992 7.61996 8.08659 7.33996C8.53992 6.55996 9.06659 5.67327 9.54659 4.89994C9.75992 4.55994 10.1666 4.40664 10.5466 4.5133C10.9266 4.62664 11.1933 4.97333 11.1866 5.37333V7.71993H11.3333C11.6066 7.71993 11.8333 7.9466 11.8333 8.21993C11.8333 8.49326 11.6066 8.71993 11.3333 8.71993H11.1932V9.17997C11.1932 9.4533 10.9732 9.6733 10.6932 9.6733ZM10.1932 5.75997C9.79991 6.39997 9.39325 7.08659 9.02658 7.71326H10.1932V5.75997Z" fill="var(--fill-0, #6D51E0)"/>
<g id="Vector_4" opacity="0">
</g>
</g>
</svg>
