<svg preserveAspectRatio="none" width="100%" height="100%" overflow="visible" style="display: block;" viewBox="0 0 47.1588 58" fill="none" xmlns="http://www.w3.org/2000/svg">
<g id="img">
<path id="Vector" d="M46.4725 46.8586C45.8257 44.3457 44.7722 41.9694 43.3412 39.7957C41.9348 37.6593 40.2009 35.774 38.1879 34.1921C36.1538 32.5938 33.8901 31.3493 31.4596 30.4933C28.9449 29.6076 26.3068 29.1585 23.6185 29.1585C20.9303 29.1585 18.2922 29.6076 15.7775 30.4933C13.347 31.3493 11.0833 32.5938 9.04919 34.1921C7.03613 35.774 5.3023 37.6593 3.89588 39.7957C2.46488 41.9694 1.41138 44.3457 0.764622 46.8586L0.000365844 49.3953C0.374331 49.7104 0.754163 50.0172 1.13938 50.3164C3.64516 52.2621 6.38609 53.8692 9.32964 55.1143C13.8568 57.0291 18.6643 58 23.6186 58C28.5729 58 33.3804 57.0291 37.9075 55.1143C41.0933 53.7668 44.0419 51.9953 46.7117 49.8291C46.8616 49.7075 47.0106 49.5846 47.1588 49.4604L46.4725 46.8586Z" fill="var(--fill-0, #C2C2C2)"/>
<path id="Vector_2" d="M35.6973 8.00604C35.0368 6.44462 34.092 5.04289 32.8889 3.83975C31.6857 2.6366 30.2839 1.69171 28.7226 1.03131C27.1046 0.34699 25.3875 0 23.6188 0C21.8502 0 20.1331 0.34699 18.5151 1.03131C16.9537 1.69174 15.552 2.6366 14.3489 3.83975C13.1458 5.04289 12.2008 6.44462 11.5404 8.00604C10.8561 9.62397 10.5091 11.3411 10.5091 13.1097C10.5091 14.8784 10.8561 16.5955 11.5404 18.2135C12.2008 19.7749 13.1457 21.1766 14.3489 22.3797C15.552 23.5828 16.9537 24.5277 18.5151 25.1881C20.1331 25.8725 21.8502 26.2195 23.6188 26.2195C25.3875 26.2195 27.1046 25.8725 28.7226 25.1881C30.2839 24.5277 31.6857 23.5828 32.8889 22.3797C34.092 21.1766 35.0369 19.7748 35.6973 18.2135C36.3816 16.5955 36.7286 14.8784 36.7286 13.1097C36.7286 11.3411 36.3816 9.62397 35.6973 8.00604Z" fill="var(--fill-0, #C2C2C2)"/>
</g>
</svg>
