<svg preserveAspectRatio="xMidYMid meet" width="16" height="16" viewBox="0 0 16 16" fill="none" xmlns="http://www.w3.org/2000/svg">
<g id="dislike">
<path d="M10.4067 3.66668V10.44C10.4067 10.7067 10.3267 10.9667 10.18 11.1867L8.36001 13.8933C8.07334 14.3267 7.36001 14.6333 6.75334 14.4067C6.10001 14.1867 5.66668 13.4533 5.80668 12.8L6.15334 10.62C6.18001 10.42 6.12668 10.24 6.01334 10.1C5.90001 9.97335 5.73334 9.89335 5.55334 9.89335H2.81334C2.28668 9.89335 1.83334 9.68001 1.56668 9.30668C1.31334 8.94668 1.26668 8.48001 1.43334 8.00668L3.07334 3.01335C3.28001 2.18668 4.18001 1.51335 5.07334 1.51335H7.67334C8.12001 1.51335 8.74668 1.66668 9.03334 1.95335L9.88668 2.61335C10.2133 2.86668 10.4067 3.25335 10.4067 3.66668Z" fill="#E5395B"/>
<path d="M12.5266 11.7399H13.2132C14.2466 11.7399 14.6666 11.3399 14.6666 10.3533V3.65327C14.6666 2.6666 14.2466 2.2666 13.2132 2.2666H12.5266C11.4932 2.2666 11.0732 2.6666 11.0732 3.65327V10.3599C11.0732 11.3399 11.4932 11.7399 12.5266 11.7399Z" fill="#E5395B"/>
</g>
</svg>
