<svg preserveAspectRatio="xMidYMid meet" width="16" height="16" viewBox="0 0 16 16" fill="none" xmlns="http://www.w3.org/2000/svg">
<g id="like">
<path d="M5.59342 12.3267V5.55332C5.59342 5.28665 5.67342 5.02665 5.82009 4.80665L7.64009 2.09998C7.92676 1.66665 8.64009 1.35998 9.24676 1.58665C9.90009 1.80665 10.3334 2.53998 10.1934 3.19332L9.84676 5.37332C9.82009 5.57332 9.87342 5.75332 9.98676 5.89332C10.1001 6.01998 10.2668 6.09998 10.4468 6.09998H13.1868C13.7134 6.09998 14.1668 6.31332 14.4334 6.68665C14.6868 7.04665 14.7334 7.51332 14.5668 7.98665L12.9268 12.98C12.7201 13.8067 11.8201 14.48 10.9268 14.48H8.32676C7.88009 14.48 7.25342 14.3267 6.96676 14.04L6.11342 13.38C5.78676 13.1333 5.59342 12.74 5.59342 12.3267Z" fill="#20CE79"/>
<path d="M3.47333 4.25326H2.78667C1.75333 4.25326 1.33333 4.65326 1.33333 5.63992V12.3466C1.33333 13.3333 1.75333 13.7333 2.78667 13.7333H3.47333C4.50667 13.7333 4.92667 13.3333 4.92667 12.3466V5.63992C4.92667 4.65326 4.50667 4.25326 3.47333 4.25326Z" fill="#20CE79"/>
</g>
</svg>
