<svg preserveAspectRatio="none" width="100%" height="100%" overflow="visible" style="display: block;" viewBox="0 0 16 16" fill="none" xmlns="http://www.w3.org/2000/svg">
<g id="dislike">
<path id="Vector" d="M7.19938 14.7333C7.00604 14.7333 6.81271 14.6999 6.63271 14.6333C5.79938 14.3599 5.26604 13.4399 5.45271 12.5866L5.77937 10.4866C5.78604 10.4399 5.78604 10.3733 5.73937 10.3199C5.70604 10.2866 5.65937 10.2666 5.60604 10.2666H2.93937C2.28604 10.2666 1.71937 9.99327 1.38604 9.51994C1.05937 9.05994 0.992708 8.45327 1.20604 7.8666L2.79937 3.01327C3.04604 2.0466 4.07937 1.2666 5.14604 1.2666H7.67938C8.05271 1.2666 8.86604 1.37993 9.29938 1.81327L11.3194 3.37327L10.706 4.1666L8.63938 2.5666C8.47271 2.39993 8.05271 2.2666 7.67938 2.2666H5.14604C4.54604 2.2666 3.89937 2.7466 3.76604 3.2866L2.15271 8.1866C2.04604 8.47994 2.06604 8.7466 2.20604 8.93994C2.35271 9.1466 2.61937 9.2666 2.94604 9.2666H5.61271C5.95937 9.2666 6.27938 9.41327 6.49938 9.6666C6.72604 9.9266 6.82604 10.2733 6.77271 10.6333L6.43938 12.7733C6.35938 13.1466 6.61271 13.5666 6.97271 13.6866C7.29271 13.8066 7.71938 13.6333 7.86604 13.4199L10.5994 9.35327L11.426 9.91327L8.69271 13.9799C8.37938 14.4466 7.78604 14.7333 7.19938 14.7333Z" fill="var(--fill-0, #151515)"/>
<path id="Vector_2" d="M13.0801 12.0667H12.4134C11.1801 12.0667 10.5801 11.4867 10.5801 10.3V3.76667C10.5801 2.58 11.1801 2 12.4134 2H13.0801C14.3134 2 14.9134 2.58 14.9134 3.76667V10.3C14.9134 11.4867 14.3134 12.0667 13.0801 12.0667ZM12.4134 3C11.6867 3 11.5801 3.17333 11.5801 3.76667V10.3C11.5801 10.8933 11.6867 11.0667 12.4134 11.0667H13.0801C13.8067 11.0667 13.9134 10.8933 13.9134 10.3V3.76667C13.9134 3.17333 13.8067 3 13.0801 3H12.4134Z" fill="var(--fill-0, #151515)"/>
<g id="Vector_3" opacity="0">
</g>
</g>
</svg>
