<svg preserveAspectRatio="xMidYMid meet" overflow="visible" style="display: block;" viewBox="0 0 16 16" fill="none" xmlns="http://www.w3.org/2000/svg">
<g id="clock">
<path id="Vector" d="M7.99967 15.1668C4.04634 15.1668 0.833008 11.9535 0.833008 8.00016C0.833008 4.04683 4.04634 0.833496 7.99967 0.833496C11.953 0.833496 15.1663 4.04683 15.1663 8.00016C15.1663 11.9535 11.953 15.1668 7.99967 15.1668ZM7.99967 1.8335C4.59967 1.8335 1.83301 4.60016 1.83301 8.00016C1.83301 11.4002 4.59967 14.1668 7.99967 14.1668C11.3997 14.1668 14.1663 11.4002 14.1663 8.00016C14.1663 4.60016 11.3997 1.8335 7.99967 1.8335Z" fill="var(--fill-0, #6D51E0)"/>
<path id="Vector_2" d="M10.4731 10.6202C10.3864 10.6202 10.2998 10.6002 10.2198 10.5468L8.1531 9.3135C7.63977 9.00684 7.25977 8.3335 7.25977 7.74017V5.00684C7.25977 4.7335 7.48643 4.50684 7.75977 4.50684C8.0331 4.50684 8.25977 4.7335 8.25977 5.00684V7.74017C8.25977 7.98017 8.45977 8.3335 8.66643 8.4535L10.7331 9.68684C10.9731 9.82684 11.0464 10.1335 10.9064 10.3735C10.8064 10.5335 10.6398 10.6202 10.4731 10.6202Z" fill="var(--fill-0, #6D51E0)"/>
<g id="Vector_3" opacity="0">
</g>
</g>
</svg>
