<svg preserveAspectRatio="xMidYMid meet" overflow="visible" style="display: block;" viewBox="0 0 16 16" fill="none" xmlns="http://www.w3.org/2000/svg">
<g id="money-send">
<path id="Vector" d="M8.69967 10.8335H7.44635C6.55968 10.8335 5.83301 10.0868 5.83301 9.16682C5.83301 8.89349 6.05967 8.66682 6.33301 8.66682C6.60634 8.66682 6.83301 8.89349 6.83301 9.16682C6.83301 9.53349 7.10635 9.83349 7.44635 9.83349H8.69967C8.95967 9.83349 9.16634 9.60015 9.16634 9.31349C9.16634 8.95349 9.06635 8.90015 8.83968 8.82015L6.83301 8.12015C6.40634 7.96681 5.83301 7.66016 5.83301 6.68016C5.83301 5.84682 6.49302 5.16016 7.29968 5.16016H8.553C9.43967 5.16016 10.1663 5.90682 10.1663 6.82682C10.1663 7.10016 9.93967 7.32682 9.66634 7.32682C9.39301 7.32682 9.16634 7.10016 9.16634 6.82682C9.16634 6.46016 8.893 6.16016 8.553 6.16016H7.29968C7.03968 6.16016 6.83301 6.39349 6.83301 6.68016C6.83301 7.04016 6.933 7.09348 7.15967 7.17348L9.16634 7.87348C9.59301 8.02682 10.1663 8.33349 10.1663 9.31349C10.1663 10.1535 9.50633 10.8335 8.69967 10.8335Z" fill="var(--fill-0, #6D51E0)"/>
<path id="Vector_2" d="M8 11.5C7.72667 11.5 7.5 11.2733 7.5 11V5C7.5 4.72667 7.72667 4.5 8 4.5C8.27333 4.5 8.5 4.72667 8.5 5V11C8.5 11.2733 8.27333 11.5 8 11.5Z" fill="var(--fill-0, #6D51E0)"/>
<path id="Vector_3" d="M7.99967 15.1668C4.04634 15.1668 0.833008 11.9535 0.833008 8.00016C0.833008 4.04683 4.04634 0.833496 7.99967 0.833496C8.27301 0.833496 8.49967 1.06016 8.49967 1.3335C8.49967 1.60683 8.27301 1.8335 7.99967 1.8335C4.59967 1.8335 1.83301 4.60016 1.83301 8.00016C1.83301 11.4002 4.59967 14.1668 7.99967 14.1668C11.3997 14.1668 14.1663 11.4002 14.1663 8.00016C14.1663 7.72683 14.393 7.50016 14.6663 7.50016C14.9397 7.50016 15.1663 7.72683 15.1663 8.00016C15.1663 11.9535 11.953 15.1668 7.99967 15.1668Z" fill="var(--fill-0, #6D51E0)"/>
<path id="Vector_4" d="M14.6667 4.5C14.3933 4.5 14.1667 4.27333 14.1667 4V1.83333H12C11.7267 1.83333 11.5 1.60667 11.5 1.33333C11.5 1.06 11.7267 0.833333 12 0.833333H14.6667C14.94 0.833333 15.1667 1.06 15.1667 1.33333V4C15.1667 4.27333 14.94 4.5 14.6667 4.5Z" fill="var(--fill-0, #6D51E0)"/>
<path id="Vector_5" d="M11.3333 5.16667C11.2066 5.16667 11.08 5.12 10.98 5.02C10.7866 4.82667 10.7866 4.50667 10.98 4.31334L14.3133 0.980002C14.5066 0.786668 14.8266 0.786668 15.02 0.980002C15.2133 1.17333 15.2133 1.49333 15.02 1.68667L11.6866 5.02C11.5866 5.12 11.46 5.16667 11.3333 5.16667Z" fill="var(--fill-0, #6D51E0)"/>
<g id="Vector_6" opacity="0">
</g>
</g>
</svg>
