<svg preserveAspectRatio="xMidYMid meet" overflow="visible" style="display: block;" viewBox="0 0 16 16" fill="none" xmlns="http://www.w3.org/2000/svg">
<g id="receipt-disscount">
<path id="Vector" d="M7.99967 15.1668C7.47301 15.1668 6.97301 14.9002 6.62634 14.4268L5.95301 13.5268C5.81301 13.3402 5.62634 13.2335 5.42634 13.2202C5.22634 13.2068 5.02634 13.3002 4.86634 13.4668L4.48634 13.1335L4.85301 13.4735C3.88634 14.5002 3.15301 14.4202 2.79967 14.2802C2.43967 14.1402 1.83301 13.6802 1.83301 12.2002V4.6935C1.83301 1.7335 2.68634 0.833496 5.47967 0.833496H10.513C13.3063 0.833496 14.1597 1.7335 14.1597 4.6935V12.2002C14.1597 13.6735 13.553 14.1335 13.193 14.2802C12.8397 14.4202 12.1063 14.5002 11.1397 13.4735C10.9797 13.3002 10.773 13.2135 10.573 13.2268C10.373 13.2402 10.1797 13.3468 10.0397 13.5335L9.36634 14.4335C9.02634 14.9002 8.52634 15.1668 7.99967 15.1668ZM5.38634 12.2202C5.41301 12.2202 5.44634 12.2202 5.47301 12.2202C5.96634 12.2468 6.43301 12.5068 6.74634 12.9268L7.42634 13.8268C7.75301 14.2602 8.25301 14.2602 8.57967 13.8268L9.25301 12.9268C9.56634 12.5068 10.033 12.2468 10.533 12.2202C11.033 12.1935 11.5197 12.4002 11.8797 12.7868C12.3863 13.3268 12.713 13.3935 12.833 13.3468C12.993 13.2802 13.1663 12.8935 13.1663 12.2002V4.6935C13.1663 2.28683 12.7463 1.8335 10.5197 1.8335H5.47967C3.25301 1.8335 2.83301 2.28683 2.83301 4.6935V12.2002C2.83301 12.9002 3.00634 13.2868 3.16634 13.3468C3.28634 13.3935 3.61301 13.3268 4.11967 12.7868C4.46634 12.4202 4.91967 12.2202 5.38634 12.2202Z" fill="var(--fill-0, #6D51E0)"/>
<path id="Vector_2" d="M9.99967 9.33333C9.62634 9.33333 9.33301 9.03333 9.33301 8.66667C9.33301 8.3 9.63301 8 9.99967 8C10.3663 8 10.6663 8.3 10.6663 8.66667C10.6663 9.03333 10.373 9.33333 9.99967 9.33333Z" fill="var(--fill-0, #6D51E0)"/>
<path id="Vector_3" d="M5.99967 5.99984C5.62634 5.99984 5.33301 5.69984 5.33301 5.33317C5.33301 4.9665 5.63301 4.6665 5.99967 4.6665C6.36634 4.6665 6.66634 4.9665 6.66634 5.33317C6.66634 5.69984 6.37301 5.99984 5.99967 5.99984Z" fill="var(--fill-0, #6D51E0)"/>
<path id="Vector_4" d="M5.75333 9.7C5.62667 9.7 5.5 9.65333 5.4 9.55333C5.20667 9.36 5.20667 9.04 5.4 8.84667L9.88667 4.36C10.08 4.16667 10.4 4.16667 10.5933 4.36C10.7867 4.55333 10.7867 4.87333 10.5933 5.06667L6.10667 9.55333C6.01333 9.65333 5.88667 9.7 5.75333 9.7Z" fill="var(--fill-0, #6D51E0)"/>
<g id="Vector_5" opacity="0">
</g>
</g>
</svg>
