<svg preserveAspectRatio="xMidYMid meet" overflow="visible" style="display: block;" viewBox="0 0 56.0698 11.2924" fill="none" xmlns="http://www.w3.org/2000/svg">
<g id="Group">
<path id="Vector" d="M18.6937 8.95606V1.7197H15.9747V0H23.3762V1.7197H20.6502V8.95606H18.6937Z" fill="var(--fill-0, #0CD367)"/>
<path id="Vector_2" d="M23.0615 8.95632V2.45904H24.8616V3.48762C25.2875 2.6151 25.8392 2.45904 26.4257 2.45904H27.124V4.19338H26.5346C25.6883 4.19338 24.9314 4.65904 24.9314 6.08389V8.95501H23.0615V8.95632Z" fill="var(--fill-0, #0CD367)"/>
<path id="Vector_3" d="M27.9678 6.58027V2.45916H29.8293V6.18007C29.8293 6.94058 30.2162 7.5035 31.0121 7.5035C31.7801 7.5035 32.269 6.94046 32.269 6.19066V2.45904H34.1305V8.96167H32.3639V8.14248C31.9156 8.79086 31.2467 9.11237 30.4018 9.11237C28.9034 9.10702 27.9678 8.12653 27.9678 6.58027Z" fill="var(--fill-0, #0CD367)"/>
<path id="Vector_4" d="M34.9248 7.12955L36.5447 6.77602C36.623 7.27894 37.0433 7.65925 37.8574 7.65925C38.4859 7.65925 38.835 7.4125 38.835 7.10693C38.835 6.86017 38.6953 6.67864 38.0501 6.5439L36.9846 6.3238C35.6216 6.03967 35.0448 5.44056 35.0448 4.34664C35.0448 3.23259 36.0098 2.33209 37.8196 2.33209C39.7426 2.33209 40.5163 3.43542 40.5945 4.15856L38.9633 4.50138C38.8851 4.12118 38.5933 3.70087 37.7805 3.70087C37.2652 3.70087 36.8839 3.92097 36.8839 4.24248C36.8839 4.50936 37.0751 4.66005 37.4103 4.73481L38.9632 5.07763C40.146 5.3351 40.6963 6.01157 40.6963 6.96814C40.6963 7.99672 39.8388 9.07874 37.8697 9.07874C35.7054 9.08005 34.9988 7.84197 34.9248 7.12955Z" fill="var(--fill-0, #0CD367)"/>
<path id="Vector_5" d="M44.2723 8.95662C43.0672 8.95662 42.2599 8.31895 42.2599 7.05552V4.01227H41.1162V2.45399H42.2599V1.00784L44.1214 0.494201V2.45411H45.4915V4.01239H44.1173V6.734C44.1173 7.21026 44.3756 7.40108 44.8743 7.40108H45.5921V8.95936L44.2723 8.95662Z" fill="var(--fill-0, #0CD367)"/>
<path id="Vector_6" d="M46.6084 8.95662V0.00591985H48.4699V8.96197H46.6084V8.95662Z" fill="var(--fill-0, #0CD367)"/>
<path id="Vector_7" d="M54.0798 2.45904H56.0698L53.232 11.2924H51.242L52.0269 8.96167H51.0004L49.1221 2.45904H51.119L52.5155 7.48874L54.0798 2.45904Z" fill="var(--fill-0, #0CD367)"/>
<path id="Vector_8" d="M3.91088e-06 3.92678H4.36834V0.595478L7.85539 3.92678L4.36834 7.25273V8.95648H8.60112V3.92678H12.4861V0.00578054H3.91088e-06V3.92678Z" fill="var(--fill-0, #0CD367)"/>
</g>
</svg>
