<svg preserveAspectRatio="xMidYMid meet" overflow="visible" style="display: block;" viewBox="0 0 42 14.3182" fill="none" xmlns="http://www.w3.org/2000/svg">
<g id="logo">
<path id="Vector" fill-rule="evenodd" clip-rule="evenodd" d="M38.5029 1.40737V14.1748H41.9996V0.783203L38.5029 1.40737Z" fill="var(--fill-0, #862165)"/>
<path id="Vector_2" fill-rule="evenodd" clip-rule="evenodd" d="M33.3993 1.40716L36.8937 0.782995V14.1745H33.3993V1.40716Z" fill="var(--fill-0, #862165)"/>
<path id="Vector_3" fill-rule="evenodd" clip-rule="evenodd" d="M28.4219 14.1738V4.37891H31.918V14.1738H28.4219Z" fill="var(--fill-0, #862165)"/>
<path id="Vector_4" fill-rule="evenodd" clip-rule="evenodd" d="M28.4463 1.72067C28.4463 0.770706 29.2183 0 30.1691 0C31.1215 0 31.893 0.770706 31.893 1.72067C31.893 2.67134 31.1215 3.44029 30.1691 3.44029C29.2183 3.44029 28.4463 2.67134 28.4463 1.72067Z" fill="var(--fill-0, #862165)"/>
<path id="Vector_5" fill-rule="evenodd" clip-rule="evenodd" d="M26.4493 4.23563C23.2192 4.3396 21.5781 5.78698 21.5781 8.66397V14.1741H25.1033V9.67991C25.1033 7.95809 25.3295 7.21993 27.377 7.14948V4.28656C27.0327 4.21329 26.4493 4.23563 26.4493 4.23563Z" fill="var(--fill-0, #862165)"/>
<path id="Vector_6" fill-rule="evenodd" clip-rule="evenodd" d="M16.9653 4.36871C16.888 4.56434 16.3292 6.14304 14.9742 7.77883V0.783203L11.3662 1.49568V14.1748H14.9742V10.255C16.019 11.8198 16.5352 14.1748 16.5352 14.1748H20.856C20.4288 12.401 18.5593 9.13122 18.5593 9.13122C20.2378 7.00646 20.9742 4.74369 21.0918 4.36871H16.9653Z" fill="var(--fill-0, #862165)"/>
<path id="Vector_7" fill-rule="evenodd" clip-rule="evenodd" d="M5.31576 5.76505C4.874 5.73655 3.85045 5.67005 3.85045 4.75078C3.85045 3.64143 5.32303 3.64143 5.87565 3.64143C6.84762 3.64143 8.10513 3.92756 9.00434 4.19637C9.00434 4.19637 9.50495 4.37299 9.93104 4.55296L9.97079 4.56413V1.52564L9.91755 1.50946C8.856 1.13897 7.62362 0.782995 5.33756 0.782995C1.39639 0.782995 0 3.07365 0 5.03797C0 6.16914 0.485993 8.83371 4.99825 9.14051C5.38178 9.164 6.39745 9.22267 6.39745 10.1726C6.39745 10.9573 5.56602 11.4189 4.16792 11.4189C2.63602 11.4189 1.14892 11.03 0.246355 10.6594V13.7879C1.59796 14.1427 3.12202 14.3182 4.90815 14.3182C8.76021 14.3182 10.487 12.1504 10.487 10.0011C10.487 7.56515 8.55592 5.98187 5.31576 5.76505Z" fill="var(--fill-0, #862165)"/>
</g>
</svg>
