<svg preserveAspectRatio="xMidYMid meet" overflow="visible" style="display: block;" viewBox="0 0 31 29" fill="none" xmlns="http://www.w3.org/2000/svg">
<g id="Mastercard-logo 1">
<path id="XMLID_1775_" d="M5.61848 26.0495V24.5098C5.61848 23.9208 5.24618 23.5351 4.60707 23.5351C4.28752 23.5351 3.94004 23.6368 3.70115 23.9716C3.515 23.6906 3.24818 23.5351 2.84796 23.5351C2.58115 23.5351 2.31434 23.6129 2.10337 23.8939V23.586H1.54492V26.0495H2.10337V24.6892C2.10337 24.2527 2.34226 24.0464 2.71456 24.0464C3.08686 24.0464 3.273 24.2766 3.273 24.6892V26.0495H3.83145V24.6892C3.83145 24.2527 4.09826 24.0464 4.44264 24.0464C4.81494 24.0464 5.00109 24.2766 5.00109 24.6892V26.0495H5.61848ZM13.9021 23.586H12.9962V22.8415H12.4377V23.586H11.932V24.0733H12.4377V25.2034C12.4377 25.7684 12.6766 26.1003 13.3157 26.1003C13.5546 26.1003 13.8214 26.0226 14.0076 25.9209L13.8463 25.4575C13.6849 25.5592 13.4988 25.5861 13.3654 25.5861C13.0986 25.5861 12.9931 25.4306 12.9931 25.1765V24.0733H13.899V23.586H13.9021ZM18.6427 23.5322C18.3231 23.5322 18.1091 23.6876 17.9757 23.8909V23.583H17.4172V26.0465H17.9757V24.6593C17.9757 24.2497 18.1618 24.0165 18.5093 24.0165C18.6148 24.0165 18.7482 24.0434 18.8568 24.0673L19.0181 23.5531C18.9064 23.5322 18.7482 23.5322 18.6427 23.5322ZM11.4791 23.7893C11.2123 23.6099 10.84 23.5322 10.4397 23.5322C9.80063 23.5322 9.37559 23.8401 9.37559 24.3274C9.37559 24.737 9.69514 24.9702 10.2536 25.0449L10.5204 25.0718C10.812 25.1227 10.9734 25.2004 10.9734 25.329C10.9734 25.5083 10.7593 25.6369 10.387 25.6369C10.0147 25.6369 9.71996 25.5083 9.53381 25.3798L9.267 25.7894C9.55863 25.9957 9.95885 26.0973 10.3591 26.0973C11.1037 26.0973 11.5318 25.7625 11.5318 25.302C11.5318 24.8656 11.1843 24.6353 10.6538 24.5576L10.387 24.5307C10.1481 24.5038 9.96196 24.453 9.96196 24.3005C9.96196 24.1211 10.1481 24.0195 10.4428 24.0195C10.7624 24.0195 11.082 24.148 11.2433 24.2258L11.4791 23.7893ZM26.3369 23.5322C26.0173 23.5322 25.8032 23.6876 25.6698 23.8909V23.583H25.1114V26.0465H25.6698V24.6593C25.6698 24.2497 25.856 24.0165 26.2034 24.0165C26.3089 24.0165 26.4423 24.0434 26.5509 24.0673L26.7123 23.5591C26.6037 23.5322 26.4454 23.5322 26.3369 23.5322ZM19.2011 24.8177C19.2011 25.5622 19.7348 26.1003 20.56 26.1003C20.9323 26.1003 21.1991 26.0226 21.466 25.8193L21.1991 25.3828C20.9851 25.5382 20.7741 25.613 20.5321 25.613C20.0791 25.613 19.7596 25.305 19.7596 24.8177C19.7596 24.3543 20.0791 24.0464 20.5321 24.0225C20.771 24.0225 20.9851 24.1002 21.1991 24.2527L21.466 23.8162C21.1991 23.6099 20.9323 23.5351 20.56 23.5351C19.7348 23.5322 19.2011 24.0733 19.2011 24.8177ZM24.3668 24.8177V23.586H23.8083V23.8939C23.6222 23.6637 23.3554 23.5351 23.0079 23.5351C22.2881 23.5351 21.7297 24.0733 21.7297 24.8177C21.7297 25.5622 22.2881 26.1003 23.0079 26.1003C23.3802 26.1003 23.647 25.9717 23.8083 25.7415V26.0495H24.3668V24.8177ZM22.316 24.8177C22.316 24.3812 22.6077 24.0225 23.0886 24.0225C23.5415 24.0225 23.8611 24.3573 23.8611 24.8177C23.8611 25.2542 23.5415 25.613 23.0886 25.613C22.6108 25.5861 22.316 25.2512 22.316 24.8177ZM15.6333 23.5322C14.8887 23.5322 14.3551 24.0464 14.3551 24.8147C14.3551 25.5861 14.8887 26.0973 15.6612 26.0973C16.0335 26.0973 16.4058 25.9957 16.7005 25.7625L16.4337 25.3768C16.2197 25.5323 15.9528 25.6339 15.6891 25.6339C15.3417 25.6339 14.9973 25.4784 14.9166 25.0449H16.806C16.806 24.9672 16.806 24.9164 16.806 24.8386C16.8309 24.0464 16.35 23.5322 15.6333 23.5322ZM15.6333 23.9956C15.9808 23.9956 16.2197 24.2018 16.2724 24.5845H14.9414C14.9942 24.2527 15.2331 23.9956 15.6333 23.9956ZM29.5076 24.8177V22.6113H28.9491V23.8939C28.763 23.6637 28.4962 23.5351 28.1487 23.5351C27.4289 23.5351 26.8705 24.0733 26.8705 24.8177C26.8705 25.5622 27.4289 26.1003 28.1487 26.1003C28.521 26.1003 28.7878 25.9717 28.9491 25.7415V26.0495H29.5076V24.8177ZM27.4568 24.8177C27.4568 24.3812 27.7485 24.0225 28.2294 24.0225C28.6823 24.0225 29.0019 24.3573 29.0019 24.8177C29.0019 25.2542 28.6823 25.613 28.2294 25.613C27.7485 25.5861 27.4568 25.2512 27.4568 24.8177ZM8.76129 24.8177V23.586H8.20285V23.8939C8.0167 23.6637 7.74989 23.5351 7.40241 23.5351C6.68263 23.5351 6.12418 24.0733 6.12418 24.8177C6.12418 25.5622 6.68263 26.1003 7.40241 26.1003C7.77471 26.1003 8.04152 25.9717 8.20285 25.7415V26.0495H8.76129V24.8177ZM6.68573 24.8177C6.68573 24.3812 6.97737 24.0225 7.45825 24.0225C7.91121 24.0225 8.23077 24.3573 8.23077 24.8177C8.23077 25.2542 7.91121 25.613 7.45825 25.613C6.97737 25.5861 6.68573 25.2512 6.68573 24.8177Z" fill="var(--fill-0, black)"/>
<g id="Group">
<path id="rect19" d="M19.6821 4.87695H11.293V19.4009H19.6821V4.87695Z" fill="var(--fill-0, #FF5A00)"/>
<path id="XMLID_330_" d="M11.8515 12.1385C11.8515 9.18771 13.291 6.56874 15.5 4.87658C13.8743 3.64482 11.8236 2.90039 9.58667 2.90039C4.28763 2.90039 0 7.03214 0 12.1385C0 17.2449 4.28763 21.3767 9.58667 21.3767C11.8236 21.3767 13.8743 20.6322 15.5 19.4005C13.2879 17.7322 11.8515 15.0894 11.8515 12.1385Z" fill="var(--fill-0, #EB001B)"/>
<path id="path22" d="M31 12.1385C31 17.2449 26.7124 21.3766 21.4133 21.3766C19.1764 21.3766 17.1257 20.6322 15.5 19.4005C17.7369 17.7053 19.1485 15.0893 19.1485 12.1385C19.1485 9.18767 17.709 6.5687 15.5 4.87653C17.1226 3.64478 19.1733 2.90035 21.4102 2.90035C26.7124 2.90035 31 7.05901 31 12.1385Z" fill="var(--fill-0, #F79E1B)"/>
</g>
</g>
</svg>
