<svg preserveAspectRatio="xMidYMid meet" overflow="visible" style="display: block;" viewBox="0 0 42.7387 12.6636" fill="none" xmlns="http://www.w3.org/2000/svg">
<g id="g4158">
<path id="polygon9" d="M18.5198 12.4812H15.0576L17.2231 0.222656H20.6851L18.5198 12.4812Z" fill="var(--fill-0, #00579F)"/>
<path id="path11" d="M31.0709 0.52199C30.388 0.273956 29.3049 9.4974e-05 27.9656 9.4974e-05C24.5466 9.4974e-05 22.139 1.66926 22.1242 4.05566C22.0958 5.81634 23.848 6.79427 25.1585 7.38133C26.498 7.98123 26.9533 8.37278 26.9533 8.9075C26.9396 9.72873 25.8709 10.1073 24.8741 10.1073C23.4919 10.1073 22.7512 9.91212 21.6257 9.45522L21.1698 9.25936L20.6853 12.0111C21.4973 12.3498 22.9934 12.6504 24.5466 12.6636C28.1793 12.6636 30.5444 11.0202 30.5724 8.47712C30.5862 7.08165 29.661 6.01238 27.6663 5.13862C26.4554 4.57773 25.7138 4.19952 25.7138 3.62563C25.728 3.10391 26.341 2.56953 27.7079 2.56953C28.8335 2.54336 29.6604 2.79105 30.2869 3.03891L30.6 3.16908L31.0709 0.52199Z" fill="var(--fill-0, #00579F)"/>
<path id="path13" d="M35.672 8.13844C35.9571 7.43421 37.0542 4.7086 37.0542 4.7086C37.0398 4.73477 37.3388 3.99136 37.5097 3.53498L37.7517 4.59125C37.7517 4.59125 38.4073 7.52555 38.5497 8.13844C38.0086 8.13844 36.3558 8.13844 35.672 8.13844ZM39.9456 0.222656H37.2676C36.4418 0.222656 35.8143 0.444171 35.458 1.23975L30.3154 12.481H33.9482C33.9482 12.481 34.5463 10.968 34.6748 10.6422C35.0733 10.6422 38.6073 10.6422 39.1199 10.6422C39.2193 11.0726 39.5331 12.481 39.5331 12.481H42.7387L39.9456 0.222656Z" fill="var(--fill-0, #00579F)"/>
<path id="path15" d="M12.166 0.222656L8.77536 8.58182L8.40485 6.88648C7.77799 4.93029 5.81205 2.80492 3.61816 1.74813L6.72384 12.4682H10.385L15.8269 0.222656H12.166Z" fill="var(--fill-0, #00579F)"/>
<path id="path17" d="M5.62728 0.222656H0.0569863L0 0.470344C4.34518 1.48762 7.22291 3.93971 8.40524 6.887L7.19432 1.2531C6.99496 0.470171 6.38231 0.248482 5.62728 0.222656Z" fill="var(--fill-0, #FAA61A)"/>
</g>
</svg>
