<svg preserveAspectRatio="xMidYMid meet" overflow="visible" style="display: block;" viewBox="0 0 56.0002 16.0001" fill="none" xmlns="http://www.w3.org/2000/svg">
<g id="Paysafecard_logo 1">
<path id="path2491" d="M10.2754 7.49578C10.2692 7.30267 10.1785 7.20299 10.0026 7.19644H9.06289C8.84047 7.21013 8.72556 7.33272 8.72023 7.56333V9.26148C8.72556 9.49952 8.85262 9.62093 9.09961 9.62777H9.96085C10.0503 9.62777 10.1246 9.59444 10.1839 9.5263C10.2458 9.47512 10.2754 9.40936 10.2754 9.32783V7.49578ZM7.51367 7.25476C7.51989 6.82985 7.61407 6.50701 7.7968 6.28622C7.89246 6.19368 8.01211 6.11632 8.15782 6.05234C8.30916 5.9842 8.45576 5.95117 8.59792 5.95117H10.3228C11.0836 5.95772 11.4704 6.37578 11.4825 7.20626V9.76226C11.4769 10.0571 11.362 10.313 11.1399 10.527C10.9198 10.7519 10.6571 10.8665 10.3512 10.8733H8.72023V12.7161H7.51367V7.25476Z" fill="var(--fill-0, #008AC9)"/>
<path id="path2493" d="M13.661 9.3811C13.661 9.45221 13.6935 9.50845 13.7572 9.5507C13.8141 9.60129 13.8857 9.62777 13.9764 9.62777H14.9031C15.1124 9.62777 15.2211 9.54624 15.2274 9.3811V9.03355C15.2274 8.84371 15.1169 8.7479 14.8942 8.7479H13.9764C13.8555 8.7479 13.772 8.76813 13.7255 8.80622C13.6826 8.85115 13.661 8.94012 13.661 9.07194V9.3811ZM15.2274 7.46573C15.2336 7.27946 15.1255 7.19049 14.9028 7.19644H12.4728V5.95117H15.2087C16.0057 5.96426 16.4102 6.35109 16.4238 7.11491V9.72001C16.417 10.0494 16.3166 10.3211 16.1218 10.5371C15.918 10.7609 15.6553 10.8733 15.3334 10.8733H13.6796C12.8746 10.8665 12.4665 10.4972 12.4541 9.76316V8.75801C12.4603 7.99092 12.8504 7.60112 13.6225 7.58773H15.2274V7.46573Z" fill="var(--fill-0, #008AC9)"/>
<path id="path2495" d="M19.8124 11.4705C19.908 11.4646 19.991 11.4301 20.0582 11.3682C20.1228 11.3104 20.1553 11.2441 20.1553 11.1688V10.8733H18.6106C18.4092 10.8733 18.2481 10.8475 18.1278 10.796C18.0008 10.7493 17.8743 10.6621 17.747 10.5383C17.6264 10.4071 17.5396 10.2699 17.4869 10.1265C17.4321 9.99525 17.4043 9.82832 17.4043 9.62777V5.95117H18.6106V9.23321C18.6106 9.49625 18.7175 9.62777 18.934 9.62777H19.7857C19.887 9.62777 19.975 9.59444 20.0487 9.5263C20.1198 9.46858 20.1553 9.40014 20.1553 9.3198V5.95117H21.3518V11.375C21.345 11.7764 21.2425 12.0978 21.045 12.3415C20.8445 12.5852 20.5703 12.7099 20.2205 12.7161H17.4043V11.4705H19.8124Z" fill="var(--fill-0, #008AC9)"/>
<path id="path2497" d="M22.2988 9.62777H24.4487C24.6453 9.62093 24.7475 9.54178 24.7537 9.39002V9.27814C24.7537 9.24571 24.7439 9.2097 24.725 9.17102C24.677 9.07699 24.6181 9.03028 24.5479 9.03028H23.482C23.1657 9.02403 22.8959 8.91453 22.669 8.70326C22.4395 8.50807 22.3219 8.26794 22.3151 7.98616V7.05748C22.3276 6.33294 22.7194 5.96426 23.4912 5.95117H25.9845V7.19644H23.872C23.6241 7.19644 23.4992 7.27291 23.4992 7.42526V7.54577C23.4992 7.70378 23.6268 7.78292 23.8812 7.78292H24.9438C25.227 7.78947 25.4683 7.89838 25.6694 8.11083C25.8726 8.32477 25.978 8.57918 25.9845 8.87466V9.78309C25.978 10.0384 25.8605 10.2931 25.6345 10.5472C25.5243 10.6719 25.4115 10.7576 25.2986 10.8061C25.182 10.8507 25.0235 10.8733 24.8212 10.8733H22.2988V9.62777Z" fill="var(--fill-0, #008AC9)"/>
<path id="path2499" d="M28.0494 9.3811C28.0494 9.45221 28.082 9.50845 28.1472 9.5507C28.2034 9.60129 28.2754 9.62777 28.3648 9.62777H29.2933C29.5027 9.62777 29.6108 9.54624 29.617 9.3811V9.03355C29.617 8.84371 29.5051 8.7479 29.2832 8.7479H28.3648C28.2443 8.7479 28.1611 8.76813 28.1149 8.80622C28.0719 8.85115 28.0494 8.94012 28.0494 9.07194V9.3811ZM29.617 7.46573C29.6223 7.27946 29.5142 7.19049 29.2912 7.19644H26.8618V5.95117H29.5986C30.3947 5.96426 30.7996 6.35109 30.812 7.11491V9.72001C30.8055 10.0494 30.7042 10.3211 30.5105 10.5371C30.3082 10.7609 30.0452 10.8733 29.723 10.8733H28.0678C27.2634 10.8665 26.855 10.4972 26.8438 9.76316V8.75801C26.8491 7.99092 27.2388 7.60112 28.0115 7.58773H29.617V7.46573Z" fill="var(--fill-0, #008AC9)"/>
<path id="path2501" d="M31.793 5.24675C31.8004 4.91051 31.9236 4.64063 32.1652 4.43829C32.3998 4.23268 32.7078 4.12704 33.0887 4.12109H33.8548V5.32411H33.3908C33.1358 5.33006 33.0057 5.45265 33.0001 5.68951V5.95314H33.8548V7.1996H33.0001V10.8756H31.793V5.24675Z" fill="var(--fill-0, #008AC9)"/>
<path id="path2503" d="M37.2863 7.44252V7.41366C37.2863 7.34968 37.2606 7.29523 37.2087 7.25476C37.1525 7.21549 37.0837 7.19644 37.0011 7.19644H36.1612C36.0534 7.19644 35.9666 7.22679 35.8994 7.28898C35.8159 7.34641 35.7735 7.42199 35.7735 7.51512V8.01502L37.2863 7.44252ZM35.7928 9.20286V9.28052C35.7928 9.3802 35.8185 9.45935 35.871 9.51678C35.9089 9.59028 35.9598 9.62777 36.0276 9.62777H38.5062V10.8733H35.871C35.6305 10.8733 35.443 10.8507 35.3106 10.8055C35.1658 10.7576 35.0358 10.6793 34.9224 10.5704C34.7897 10.4386 34.6994 10.3044 34.654 10.1663C34.6043 10.0223 34.5797 9.8313 34.5797 9.59325L34.5693 7.10063C34.5827 6.34752 34.9742 5.96426 35.7436 5.95117H37.3701C38.1215 5.96426 38.5021 6.36091 38.5142 7.14318V8.12779L35.7928 9.20286Z" fill="var(--fill-0, #008AC9)"/>
<path id="path2505" d="M41.0676 10.8742C40.8849 10.8742 40.7182 10.8573 40.5668 10.8263C40.4084 10.8004 40.2505 10.7266 40.0891 10.602C39.9236 10.4571 39.8089 10.2946 39.7462 10.1152C39.6798 9.93871 39.6478 9.73875 39.6478 9.5138V7.18959C39.641 7.00005 39.66 6.83371 39.7041 6.6894C39.7447 6.54538 39.83 6.40434 39.9588 6.26628C40.1057 6.12137 40.2556 6.02496 40.4137 5.97765C40.5659 5.93926 40.7374 5.91992 40.9296 5.91992H42.7788V6.21123H40.9726C40.6536 6.21123 40.403 6.27699 40.2197 6.40881C40.0323 6.55253 39.9366 6.80039 39.9366 7.14972V9.47541C39.9366 9.63907 39.9615 9.79826 40.0109 9.9518C40.0616 10.1027 40.146 10.2351 40.2671 10.3508C40.3986 10.4511 40.5295 10.5136 40.6572 10.5392C40.7901 10.5686 40.9329 10.5826 41.0842 10.5826H42.8079V10.8742H41.0676Z" fill="var(--fill-0, #008AC9)"/>
<path id="path2507" d="M47.5352 7.8589H45.1108C44.8206 7.86544 44.5931 7.9556 44.4294 8.12937C44.26 8.30583 44.1761 8.54774 44.1761 8.85511V9.59692C44.1761 9.74064 44.1909 9.87216 44.2217 9.99059C44.2523 10.1153 44.3284 10.2265 44.4486 10.3221C44.658 10.4964 44.8899 10.5827 45.1434 10.5827H46.6124C47.2263 10.5762 47.5352 10.2512 47.5352 9.60614V7.8589ZM47.8234 9.53354C47.8234 9.7207 47.8091 9.88495 47.7852 10.0296C47.7461 10.1867 47.6658 10.3381 47.5441 10.4821C47.2909 10.7502 46.9769 10.8809 46.6023 10.8743H45.1609C44.7862 10.8743 44.4827 10.7618 44.2475 10.5381C44.0073 10.317 43.8856 10.0096 43.8856 9.61537V8.86612C43.8977 8.02077 44.3168 7.58782 45.1425 7.56818H47.5441V7.24028C47.5441 6.9701 47.4662 6.73354 47.3113 6.53001C47.213 6.3979 47.0966 6.30952 46.9645 6.264C46.8309 6.22889 46.6811 6.21133 46.514 6.21133H43.8942V5.92002H46.3778C46.605 5.92002 46.8102 5.93609 46.9962 5.96763C47.0918 5.98668 47.1786 6.02417 47.2589 6.07832C47.3439 6.1298 47.4232 6.20508 47.4967 6.30387C47.7194 6.5925 47.8281 6.92546 47.8234 7.30038V9.53354Z" fill="var(--fill-0, #008AC9)"/>
<path id="path2509" d="M50.5344 6.21133C49.8621 6.22383 49.5307 6.5925 49.5431 7.31794V10.8743H49.2544V7.31913C49.2408 6.386 49.6829 5.92002 50.5809 5.92002H50.9019V6.21133H50.5344Z" fill="var(--fill-0, #008AC9)"/>
<path id="path2511" d="M55.4182 6.21226H53.133C52.9683 6.21226 52.8209 6.23071 52.6879 6.26582C52.5487 6.29736 52.4142 6.38217 52.2884 6.52023C52.1678 6.6461 52.092 6.77077 52.0603 6.89545C52.018 7.02132 51.9987 7.17218 52.0055 7.34803V9.61541C52.0055 9.99241 52.1142 10.2489 52.3346 10.3867C52.4433 10.4506 52.5626 10.4986 52.6965 10.5307C52.8297 10.5664 52.9784 10.584 53.1422 10.584H54.1414C54.5146 10.584 54.8199 10.4977 55.0545 10.3236C55.2903 10.1602 55.4102 9.87845 55.4182 9.47675V6.21226ZM55.7067 9.49668C55.6812 10.4352 55.1869 10.8952 54.2241 10.8759H53.1529C52.9266 10.8759 52.7243 10.8559 52.5454 10.8181C52.3612 10.7702 52.185 10.6574 52.0153 10.4816C51.8877 10.3236 51.8056 10.1638 51.7727 10.0001C51.7286 9.83679 51.7094 9.65498 51.7162 9.45651V7.34059C51.7286 6.38752 52.2063 5.91381 53.1505 5.92096H55.4182V4.31445H55.7067V9.49668Z" fill="var(--fill-0, #008AC9)"/>
<path id="path2513" d="M0.811682 5.76493C0.906454 5.72298 1.00123 5.69025 1.096 5.66971C1.27014 4.83418 2.00669 4.20753 2.88955 4.20753C3.77299 4.20753 4.50984 4.83507 4.68369 5.67031C4.95468 5.72208 5.17887 5.83218 5.3536 5.99613C5.36071 5.83575 5.3542 5.68132 5.33524 5.53582C5.22359 4.27358 4.17015 3.28302 2.8857 3.28302C1.56334 3.28302 0.486793 4.33607 0.430819 5.65246C0.423119 5.76612 0.42075 5.88455 0.424896 6.00833C0.535956 5.91431 0.662714 5.8298 0.811682 5.76493Z" fill="var(--fill-0, #E3001B)"/>
<path id="path2515" d="M4.32529 5.95117H1.37849C1.23663 5.95117 1.08973 5.9842 0.938391 6.05234C0.792384 6.11632 0.672735 6.19368 0.576779 6.28622C0.394048 6.50701 0.300461 6.82985 0.293945 7.25476V9.56915C0.300461 9.99495 0.394048 10.3175 0.576779 10.5371C0.672735 10.6311 0.792384 10.7085 0.938391 10.7731C1.08973 10.8397 1.23663 10.8733 1.37849 10.8733H4.32529C5.08642 10.8665 5.4735 10.4469 5.48565 9.61765V7.20626C5.4735 6.37578 5.08642 5.95772 4.32529 5.95117Z" fill="var(--fill-0, #E3001B)"/>
</g>
</svg>
