<svg preserveAspectRatio="none" width="100%" height="100%" overflow="visible" style="display: block;" viewBox="0 0 14.2041 14.2041" fill="none" xmlns="http://www.w3.org/2000/svg">
<g id="crown">
<path id="Vector" d="M10.0617 12.4523H4.1433C2.26717 12.4523 0.740234 10.9253 0.740234 9.04921V3.37942C0.740234 2.61003 1.09534 2.3437 1.3084 2.25493C1.52146 2.16615 1.95942 2.10105 2.50391 2.64554L4.03677 4.1784C4.09595 4.23758 4.19064 4.23758 4.24391 4.1784L6.3686 2.0537C6.75921 1.66309 7.44574 1.66309 7.83044 2.0537L9.95513 4.1784C10.0143 4.23758 10.109 4.23758 10.1623 4.1784L11.6951 2.64554C12.2396 2.10105 12.6776 2.17207 12.8906 2.25493C13.1037 2.3437 13.4588 2.60411 13.4588 3.37942V9.05513C13.4647 11.0851 12.0976 12.4523 10.0617 12.4523ZM1.6635 3.10125C1.64574 3.1486 1.62799 3.23737 1.62799 3.37942V9.05513C1.62799 10.44 2.7584 11.5704 4.1433 11.5704H10.0617C11.5886 11.5704 12.577 10.5821 12.577 9.05513V3.37942C12.577 3.23737 12.5592 3.15452 12.5415 3.10717C12.4941 3.13084 12.4231 3.17819 12.3225 3.2788L10.7896 4.81166C10.399 5.20227 9.71248 5.20227 9.32779 4.81166L7.20309 2.68697C7.14391 2.62778 7.04921 2.62778 6.99595 2.68697L4.87717 4.80574C4.48656 5.19635 3.80003 5.19635 3.41534 4.80574L1.88248 3.27289C1.78187 3.17227 1.70493 3.12493 1.6635 3.10125Z" fill="var(--fill-0, white)"/>
<g id="Vector_2" opacity="0">
</g>
</g>
</svg>
