<svg preserveAspectRatio="none" width="100%" height="100%" overflow="visible" style="display: block;" viewBox="0 0 14.2041 14.2041" fill="none" xmlns="http://www.w3.org/2000/svg">
<g id="card">
<path id="Vector" d="M13.0208 5.47443H1.18411C0.941459 5.47443 0.740234 5.2732 0.740234 5.03055C0.740234 4.78789 0.941459 4.58667 1.18411 4.58667H13.0208C13.2635 4.58667 13.4647 4.78789 13.4647 5.03055C13.4647 5.2732 13.2635 5.47443 13.0208 5.47443Z" fill="var(--fill-0, white)"/>
<path id="Vector_2" d="M4.73497 10.2093H3.5513C3.30865 10.2093 3.10742 10.0081 3.10742 9.76541C3.10742 9.52276 3.30865 9.32153 3.5513 9.32153H4.73497C4.97763 9.32153 5.17885 9.52276 5.17885 9.76541C5.17885 10.0081 4.97763 10.2093 4.73497 10.2093Z" fill="var(--fill-0, white)"/>
<path id="Vector_3" d="M8.58165 10.2092H6.21431C5.97165 10.2092 5.77043 10.008 5.77043 9.76534C5.77043 9.52268 5.97165 9.32146 6.21431 9.32146H8.58165C8.82431 9.32146 9.02553 9.52268 9.02553 9.76534C9.02553 10.008 8.82431 10.2092 8.58165 10.2092Z" fill="var(--fill-0, white)"/>
<path id="Vector_4" d="M10.3931 12.5767H3.81187C1.45636 12.5767 0.740234 11.8665 0.740234 9.53462V4.66973C0.740234 2.33789 1.45636 1.62769 3.81187 1.62769H10.3872C12.7427 1.62769 13.4588 2.33789 13.4588 4.66973V9.52871C13.4647 11.8665 12.7486 12.5767 10.3931 12.5767ZM3.81187 2.51544C1.9535 2.51544 1.62799 2.83503 1.62799 4.66973V9.52871C1.62799 11.3634 1.9535 11.683 3.81187 11.683H10.3872C12.2455 11.683 12.571 11.3634 12.571 9.52871V4.66973C12.571 2.83503 12.2455 2.51544 10.3872 2.51544H3.81187Z" fill="var(--fill-0, white)"/>
<g id="Vector_5" opacity="0">
</g>
</g>
</svg>
