<svg preserveAspectRatio="none" width="100%" height="100%" overflow="visible" style="display: block;" viewBox="0 0 16.5714 16.5714" fill="none" xmlns="http://www.w3.org/2000/svg">
<g id="shield">
<path id="Vector" d="M8.28603 15.7152C7.53341 15.7152 6.7877 15.4943 6.20079 15.0593L3.23174 12.8429C2.4446 12.256 1.83008 11.0269 1.83008 10.0533V4.9162C1.83008 3.85286 2.61032 2.72048 3.61151 2.34763L7.05698 1.05643C7.74055 0.800958 8.8177 0.800958 9.50127 1.05643L12.9467 2.34763C13.9479 2.72048 14.7282 3.85286 14.7282 4.9162V10.0464C14.7282 11.0269 14.1136 12.2491 13.3265 12.836L10.3575 15.0524C9.78436 15.4943 9.03865 15.7152 8.28603 15.7152ZM7.42294 2.03001L3.97746 3.3212C3.39055 3.54215 2.8727 4.28786 2.8727 4.9231V10.0533C2.8727 10.7093 3.33532 11.6276 3.85317 12.0143L6.82222 14.2307C7.61627 14.8245 8.95579 14.8245 9.75674 14.2307L12.7258 12.0143C13.2506 11.6207 13.7063 10.7093 13.7063 10.0533V4.9162C13.7063 4.28786 13.1884 3.54215 12.6015 3.31429L9.15603 2.0231C8.68651 1.85739 7.88555 1.85739 7.42294 2.03001Z" fill="var(--fill-0, white)"/>
<g id="Vector_2" opacity="0">
</g>
</g>
</svg>
