<svg preserveAspectRatio="none" width="100%" height="100%" overflow="visible" style="display: block;" viewBox="0 0 14.2041 14.2041" fill="none" xmlns="http://www.w3.org/2000/svg">
<g id="gift">
<path id="Vector" d="M9.45151 13.4643H4.71682C2.69274 13.4643 1.90559 12.6771 1.90559 10.6531V5.91836C1.90559 5.6757 2.10682 5.47448 2.34947 5.47448H11.8189C12.0615 5.47448 12.2627 5.6757 12.2627 5.91836V10.6531C12.2627 12.6771 11.4756 13.4643 9.45151 13.4643ZM2.79335 6.36223V10.6531C2.79335 12.18 3.18988 12.5765 4.71682 12.5765H9.45151C10.9784 12.5765 11.375 12.18 11.375 10.6531V6.36223H2.79335Z" fill="var(--fill-0, white)"/>
<path id="Vector_2" d="M11.5409 6.36224H2.66331C1.62759 6.36224 1.03575 5.7704 1.03575 4.73468V4.14285C1.03575 3.10713 1.62759 2.5153 2.66331 2.5153H11.5409C12.547 2.5153 13.1684 3.13672 13.1684 4.14285V4.73468C13.1684 5.74081 12.547 6.36224 11.5409 6.36224ZM2.66331 3.40305C2.12473 3.40305 1.92351 3.60428 1.92351 4.14285V4.73468C1.92351 5.27326 2.12473 5.47448 2.66331 5.47448H11.5409C12.0617 5.47448 12.2807 5.2555 12.2807 4.73468V4.14285C12.2807 3.62203 12.0617 3.40305 11.5409 3.40305H2.66331Z" fill="var(--fill-0, white)"/>
<path id="Vector_3" d="M6.88907 3.40298H3.62214C3.49785 3.40298 3.37948 3.34972 3.29663 3.26094C2.93561 2.86441 2.94744 2.25482 3.32622 1.87604L4.16663 1.03563C4.55724 0.645023 5.20234 0.645023 5.59295 1.03563L7.20275 2.64543C7.32703 2.76972 7.36846 2.96502 7.29744 3.13074C7.23234 3.29645 7.07254 3.40298 6.88907 3.40298ZM3.94765 2.51523H5.82377L4.96561 1.66298C4.91826 1.61563 4.84132 1.61563 4.79397 1.66298L3.95356 2.50339C3.95356 2.50931 3.94765 2.50931 3.94765 2.51523Z" fill="var(--fill-0, white)"/>
<path id="Vector_4" d="M10.5762 3.40298H7.30927C7.13172 3.40298 6.96601 3.29645 6.90091 3.13074C6.82989 2.96502 6.87132 2.77563 6.9956 2.64543L8.6054 1.03563C8.99601 0.645023 9.64111 0.645023 10.0317 1.03563L10.8721 1.87604C11.2509 2.25482 11.2687 2.86441 10.9017 3.26094C10.8189 3.34972 10.7005 3.40298 10.5762 3.40298ZM8.38642 2.51523H10.2625C10.2566 2.50931 10.2566 2.50931 10.2507 2.50339L9.41029 1.66298C9.36295 1.61563 9.28601 1.61563 9.23866 1.66298L8.38642 2.51523Z" fill="var(--fill-0, white)"/>
<path id="Vector_5" d="M5.88315 10.002C5.71744 10.002 5.5458 9.9606 5.39193 9.87775C5.05458 9.69428 4.84744 9.34509 4.84744 8.96632V5.91836C4.84744 5.6757 5.04866 5.47448 5.29131 5.47448H8.86601C9.10866 5.47448 9.30989 5.6757 9.30989 5.91836V8.95448C9.30989 9.33917 9.10274 9.68836 8.7654 9.86591C8.42805 10.0494 8.01968 10.0257 7.70009 9.81264L7.17336 9.45754C7.12601 9.42203 7.06091 9.42203 7.00764 9.45754L6.45131 9.82448C6.27968 9.94285 6.07846 10.002 5.88315 10.002ZM5.73519 6.36223V8.9604C5.73519 9.03734 5.78254 9.07285 5.81213 9.0906C5.84172 9.10836 5.90091 9.12611 5.96601 9.08468L6.52234 8.71774C6.87152 8.48693 7.32131 8.48693 7.66458 8.71774L8.19131 9.07285C8.25642 9.11428 8.3156 9.09652 8.34519 9.07877C8.37478 9.06101 8.42213 9.0255 8.42213 8.94856V6.35632H5.73519V6.36223Z" fill="var(--fill-0, white)"/>
<g id="Vector_6" opacity="0">
</g>
</g>
</svg>
