<svg preserveAspectRatio="none" width="100%" height="100%" overflow="visible" style="display: block;" viewBox="0 0 14.2041 14.2041" fill="none" xmlns="http://www.w3.org/2000/svg">
<g id="call">
<path id="Vector" d="M10.3279 13.4643C9.65912 13.4643 8.95483 13.3045 8.22687 12.9967C7.51667 12.6949 6.80054 12.2806 6.10218 11.7775C5.40973 11.2686 4.74095 10.7004 4.10769 10.079C3.48034 9.4457 2.91218 8.77693 2.40911 8.0904C1.90013 7.38019 1.49177 6.66999 1.20177 5.98346C0.894012 5.24958 0.740135 4.53938 0.740135 3.8706C0.740135 3.40897 0.822992 2.97101 0.982788 2.56264C1.1485 2.14244 1.41483 1.75183 1.77585 1.41448C2.23156 0.964684 2.75238 0.739786 3.30871 0.739786C3.53952 0.739786 3.77626 0.793051 3.97748 0.887745C4.2083 0.994276 4.4036 1.15407 4.54564 1.36713L5.91871 3.30244C6.04299 3.47407 6.13769 3.63979 6.20279 3.8055C6.27973 3.98305 6.32116 4.1606 6.32116 4.33224C6.32116 4.55713 6.25605 4.77611 6.13177 4.98326C6.04299 5.14305 5.90687 5.31468 5.73524 5.48632L5.33279 5.90652C5.33871 5.92428 5.34462 5.93611 5.35054 5.94795C5.42156 6.07224 5.5636 6.2853 5.83585 6.60489C6.12585 6.93632 6.39809 7.23815 6.67034 7.51632C7.01952 7.85958 7.30952 8.13183 7.58177 8.35672C7.91911 8.64081 8.13809 8.78285 8.2683 8.84795L8.25646 8.87754L8.6885 8.45142C8.87197 8.26795 9.04952 8.13183 9.22116 8.04305C9.54667 7.84183 9.96095 7.80632 10.3752 7.97795C10.5291 8.04305 10.6948 8.13183 10.8724 8.25611L12.8373 9.65285C13.0563 9.80081 13.2161 9.99019 13.3107 10.2151C13.3995 10.44 13.441 10.6471 13.441 10.8543C13.441 11.1384 13.3758 11.4224 13.2516 11.6888C13.1273 11.9551 12.9734 12.1859 12.7781 12.399C12.4407 12.7718 12.0738 13.0382 11.6477 13.2098C11.2393 13.3755 10.7954 13.4643 10.3279 13.4643ZM3.30871 1.62754C2.9832 1.62754 2.68136 1.76958 2.39136 2.05366C2.11911 2.30815 1.92973 2.58632 1.81136 2.88815C1.68707 3.19591 1.62789 3.52142 1.62789 3.8706C1.62789 4.42101 1.75809 5.01877 2.0185 5.63428C2.28483 6.26162 2.65769 6.91264 3.13116 7.56366C3.60462 8.21468 4.1432 8.84795 4.73503 9.4457C5.32687 10.0316 5.96605 10.5761 6.62299 11.0555C7.26218 11.5231 7.91911 11.9018 8.57013 12.1741C9.58218 12.6061 10.5291 12.7067 11.3103 12.3812C11.6122 12.2569 11.8785 12.0675 12.1212 11.7953C12.2573 11.6473 12.3638 11.4875 12.4526 11.2982C12.5236 11.1502 12.5591 10.9963 12.5591 10.8424C12.5591 10.7477 12.5414 10.6531 12.494 10.5465C12.4763 10.511 12.4407 10.4459 12.3283 10.369L10.3634 8.97224C10.245 8.88938 10.1385 8.83019 10.0379 8.78877C9.90769 8.7355 9.85442 8.68224 9.6532 8.80652C9.53483 8.8657 9.4283 8.95448 9.30993 9.07285L8.86014 9.51672C8.62932 9.74162 8.27422 9.79489 8.00197 9.69428L7.84218 9.62326C7.59952 9.49305 7.31544 9.29183 7.00177 9.0255C6.71769 8.78285 6.40993 8.49877 6.03707 8.13183C5.74707 7.83591 5.45707 7.52224 5.15524 7.17305C4.87707 6.84754 4.67585 6.56938 4.55156 6.33856L4.48054 6.16101C4.44503 6.02489 4.4332 5.94795 4.4332 5.86509C4.4332 5.65203 4.51013 5.46264 4.65809 5.31468L5.10197 4.85305C5.22034 4.73468 5.30911 4.62223 5.3683 4.52162C5.41564 4.44468 5.4334 4.37958 5.4334 4.3204C5.4334 4.27305 5.41565 4.20203 5.38605 4.13101C5.34462 4.03632 5.27952 3.92979 5.19667 3.81734L3.8236 1.87611C3.76442 1.79326 3.6934 1.73407 3.60462 1.69264C3.50993 1.65121 3.40932 1.62754 3.30871 1.62754ZM8.25646 8.88346L8.16177 9.28591L8.32156 8.87162C8.29197 8.8657 8.2683 8.87162 8.25646 8.88346Z" fill="var(--fill-0, white)"/>
<g id="Vector_2" opacity="0">
</g>
</g>
</svg>
